<?xml version="1.0" encoding="utf-8"?>
<svg viewBox="0 0 500 500" xmlns="http://www.w3.org/2000/svg" xmlns:bx="https://boxy-svg.com">
  <path style="stroke-width: 5.49px; stroke: rgb(119, 108, 108); fill: none;" transform="matrix(-0.406664, 0.365006, -0.365006, -0.406664, 552.052979, 273.703522)" d="M 362.299 153.535 L 429.701 153.535 L 443.925 256.481 A 179.052 179.052 0 0 1 484.102 273.122 L 566.953 210.387 L 614.613 258.047 L 551.878 340.898 A 179.052 179.052 0 0 1 568.519 381.075 L 671.465 395.299 L 671.465 462.701 L 568.519 476.925 A 179.052 179.052 0 0 1 551.878 517.102 L 614.613 599.953 L 566.953 647.613 L 484.102 584.878 A 179.052 179.052 0 0 1 443.925 601.519 L 429.701 704.465 L 362.299 704.465 L 348.075 601.519 A 179.052 179.052 0 0 1 307.898 584.878 L 225.047 647.613 L 177.387 599.953 L 240.122 517.102 A 179.052 179.052 0 0 1 223.481 476.925 L 120.535 462.701 L 120.535 395.299 L 223.481 381.075 A 179.052 179.052 0 0 1 240.122 340.898 L 177.387 258.047 L 225.047 210.387 L 307.898 273.122 A 179.052 179.052 0 0 1 348.075 256.481 Z M 396 346.36 A 82.64 82.64 0 0 0 396 511.64 A 82.64 82.64 0 0 0 396 346.36" bx:shape="cog 396 429 82.64 179.052 275.465 0.38 8 1@16bd6134"/>
</svg>