<?xml version="1.0" standalone="no"?>
<!DOCTYPE svg PUBLIC "-//W3C//DTD SVG 20010904//EN"
 "http://www.w3.org/TR/2001/REC-SVG-20010904/DTD/svg10.dtd">
<svg version="1.0" xmlns="http://www.w3.org/2000/svg"
 width="2000.000000pt" height="2000.000000pt" viewBox="0 0 2000.000000 2000.000000"
 preserveAspectRatio="xMidYMid meet">

<g transform="translate(0.000000,2000.000000) scale(0.100000,-0.100000)"
fill="#000000" stroke="none">
<path d="M4985 17485 c-143 -25 -274 -95 -366 -193 -75 -80 -104 -138 -139
-277 -110 -433 -178 -1244 -152 -1808 18 -382 48 -605 117 -867 124 -472 137
-527 142 -621 7 -113 0 -158 -72 -464 -100 -429 -110 -500 -110 -795 0 -248 6
-306 52 -485 36 -138 83 -258 158 -402 35 -68 61 -123 57 -123 -4 0 -49 14
-99 32 -128 45 -132 38 -58 -94 31 -57 85 -141 118 -188 104 -145 331 -360
472 -445 13 -8 2 -18 -64 -58 -288 -172 -636 -481 -870 -772 -212 -264 -490
-731 -455 -765 5 -4 50 0 104 11 97 20 412 38 445 25 13 -4 -1 -20 -59 -65
-274 -219 -432 -587 -526 -1224 -24 -167 -24 -157 -2 -157 10 0 27 18 41 45
35 65 130 165 196 204 56 34 196 81 240 81 l22 0 -33 -88 c-44 -117 -79 -241
-103 -362 -23 -113 -44 -301 -39 -345 6 -55 29 -33 57 55 86 263 238 467 494
662 43 33 80 58 82 56 9 -8 -45 -217 -80 -313 -186 -513 -603 -957 -1080
-1151 -44 -18 -80 -38 -80 -45 0 -32 222 -84 403 -95 113 -7 113 -7 107 -31
-32 -128 -115 -266 -229 -378 -139 -137 -272 -205 -486 -247 -87 -17 -110 -25
-108 -37 4 -20 148 -144 263 -226 113 -82 322 -186 440 -221 102 -30 307 -44
384 -26 52 12 49 9 -51 -56 -106 -68 -254 -143 -373 -187 -163 -61 -286 -88
-497 -110 -106 -11 -73 -34 200 -136 207 -78 408 -133 607 -165 149 -24 407
-24 529 0 257 50 477 163 662 338 l74 70 -16 -53 c-109 -382 -226 -619 -388
-787 -118 -122 -230 -188 -392 -228 -138 -35 -44 -67 236 -82 414 -21 770 43
1098 199 l122 58 0 -59 c0 -75 -32 -240 -66 -344 -75 -227 -194 -420 -360
-583 -63 -62 -114 -117 -114 -123 0 -15 181 -12 317 5 365 48 636 165 829 359
85 85 160 200 190 289 9 26 18 47 20 45 13 -13 198 -421 223 -491 85 -243 51
-476 -91 -609 -38 -35 -43 -58 -14 -58 27 0 313 149 406 211 161 108 297 254
396 424 9 16 15 12 48 -41 87 -138 192 -401 233 -584 10 -45 23 -85 30 -87 23
-9 232 175 307 270 93 118 140 240 160 415 l11 105 73 -97 c40 -53 114 -145
164 -204 119 -138 407 -432 425 -432 21 0 16 25 -21 98 -69 138 -99 268 -98
427 0 174 46 347 127 475 l35 55 0 -50 c0 -106 54 -240 146 -365 64 -88 169
-195 359 -367 88 -80 188 -175 223 -212 l62 -66 63 66 c34 37 134 132 222 211
275 249 378 368 450 519 36 77 55 152 55 223 l0 41 35 -55 c81 -128 127 -301
127 -475 1 -159 -29 -289 -98 -427 -37 -73 -42 -98 -21 -98 18 0 306 294 425
432 50 59 124 151 164 204 l73 97 11 -105 c30 -268 115 -408 382 -630 40 -33
78 -58 85 -55 7 2 20 42 30 87 41 183 146 446 233 584 33 53 39 57 48 41 99
-170 235 -316 396 -424 93 -62 379 -211 406 -211 29 0 24 23 -14 58 -142 133
-176 366 -91 609 25 70 210 478 223 491 2 2 11 -19 20 -45 30 -89 105 -204
190 -289 193 -194 464 -311 829 -359 136 -17 317 -20 317 -5 0 6 -51 61 -114
123 -166 163 -285 356 -360 583 -34 104 -66 269 -66 344 l0 59 123 -58 c327
-156 692 -222 1100 -199 278 15 370 47 233 82 -162 40 -274 106 -392 228 -162
168 -279 405 -388 787 l-16 53 74 -70 c185 -175 405 -288 662 -338 181 -36
472 -21 719 36 234 54 675 215 675 245 0 9 -19 16 -57 20 -212 22 -335 49
-498 110 -119 44 -267 119 -373 187 -100 65 -103 68 -51 56 77 -18 282 -4 384
26 118 35 327 139 440 221 115 82 259 206 263 226 2 12 -21 20 -108 37 -214
42 -347 110 -486 247 -114 112 -197 250 -229 378 -6 24 -6 24 107 31 181 11
403 63 403 95 0 7 -36 27 -80 45 -477 194 -894 638 -1080 1151 -35 96 -89 305
-80 313 2 2 39 -23 82 -56 256 -195 408 -399 494 -662 28 -88 51 -110 57 -55
5 44 -16 232 -39 345 -24 121 -59 245 -103 362 l-33 88 22 0 c44 0 184 -47
240 -81 66 -39 161 -139 196 -204 14 -27 31 -45 41 -45 22 0 22 -10 -2 157
-94 637 -252 1005 -526 1224 -58 45 -72 61 -59 65 33 13 348 -5 445 -25 54
-11 99 -15 104 -11 35 34 -243 501 -455 765 -234 291 -582 600 -870 772 -66
40 -77 50 -64 58 66 40 191 140 266 212 140 135 243 271 339 446 57 105 50
112 -73 69 -50 -18 -95 -32 -99 -32 -4 0 22 55 57 123 75 144 122 264 158 402
46 179 52 237 52 485 0 295 -10 366 -110 795 -72 306 -79 351 -72 464 5 94 18
149 142 621 69 262 99 485 117 868 31 675 -79 1718 -207 1972 -44 86 -154 189
-255 238 -114 56 -182 72 -325 79 -143 6 -273 -16 -419 -73 -237 -91 -412
-214 -787 -551 -373 -334 -622 -518 -1359 -998 -262 -171 -384 -257 -440 -311
-21 -20 -70 -47 -121 -67 -152 -60 -255 -136 -573 -421 -93 -83 -207 -182
-255 -220 -91 -74 -256 -186 -273 -186 -25 0 42 220 115 373 36 76 47 111 40
118 -14 14 -284 -122 -418 -209 -171 -111 -291 -233 -360 -365 -17 -31 -32
-57 -35 -57 -3 0 -18 26 -35 57 -69 132 -189 254 -360 365 -134 87 -404 223
-418 209 -7 -7 4 -42 40 -118 70 -148 140 -373 117 -373 -35 0 -266 171 -439
326 -411 367 -520 449 -663 500 -49 17 -91 40 -117 64 -66 61 -150 121 -386
276 -851 559 -1035 693 -1418 1037 -326 293 -481 408 -674 501 -234 113 -453
150 -662 111z m346 -45 c178 -36 325 -100 494 -215 136 -92 212 -154 460 -375
363 -323 565 -475 1080 -815 667 -440 748 -498 797 -572 40 -61 87 -159 129
-268 21 -55 99 -220 173 -366 133 -265 183 -389 221 -559 9 -41 23 -102 30
-135 92 -407 52 -949 -111 -1495 -57 -191 -179 -562 -220 -665 -23 -60 -49
-144 -58 -186 -19 -93 -23 -354 -7 -453 28 -167 70 -326 122 -461 16 -43 28
-79 26 -81 -6 -6 -162 322 -201 424 -42 107 -78 228 -103 345 -28 131 -24 366
10 532 51 251 57 311 57 630 0 612 -41 1042 -135 1415 -239 946 -876 1766
-2148 2764 -328 258 -575 392 -808 441 -113 24 -294 19 -393 -11 -37 -12 -5
16 52 45 163 81 336 101 533 61z m9744 -10 c78 -25 180 -73 191 -91 4 -7 0 -9
-12 -5 -99 30 -280 35 -393 11 -233 -49 -480 -183 -808 -441 -1042 -817 -1663
-1525 -1973 -2248 -226 -526 -310 -1052 -310 -1931 0 -319 6 -379 57 -630 34
-166 38 -401 10 -532 -25 -117 -61 -238 -103 -345 -39 -102 -195 -430 -201
-424 -2 2 10 38 26 81 91 235 133 454 131 684 -1 183 -15 263 -74 416 -41 103
-163 474 -220 665 -163 547 -203 1087 -111 1495 7 33 21 94 30 135 38 170 88
294 221 559 74 146 152 311 173 366 21 55 53 129 71 164 86 170 72 160 855
676 515 340 717 492 1080 815 248 221 324 283 460 375 163 110 313 177 486
215 118 26 316 21 414 -10z m-9919 -130 c253 -59 471 -189 919 -551 861 -694
1418 -1317 1725 -1928 293 -585 400 -1179 387 -2146 -4 -332 -5 -344 -36 -495
-46 -232 -57 -354 -43 -498 21 -216 87 -425 223 -711 38 -80 68 -143 66 -140
-2 2 -80 117 -172 254 -368 547 -526 747 -854 1076 -182 182 -304 282 -404
329 l-58 28 33 11 c117 39 338 53 478 31 85 -14 222 -56 284 -87 67 -34 78
-21 49 57 -43 117 -111 218 -233 340 -206 208 -447 344 -865 490 -82 28 -159
55 -170 59 -37 14 246 105 429 137 183 32 456 35 624 8 102 -16 22 64 -238
237 -300 201 -649 338 -1019 402 l-134 23 69 31 c268 124 614 131 1129 24 77
-16 143 -27 147 -24 24 14 -10 51 -167 177 -243 195 -589 359 -907 430 -190
42 -244 49 -483 55 l-230 6 43 46 c48 52 120 89 239 120 100 27 397 37 565 20
157 -17 351 -56 472 -96 59 -19 105 -29 110 -24 15 14 -11 52 -92 140 -103
111 -260 225 -422 308 -291 148 -530 213 -1130 307 l-35 6 29 23 c46 36 150
84 224 102 88 21 271 21 375 -1 129 -28 243 -64 401 -126 204 -81 213 -72 74
71 -339 345 -772 552 -1253 599 -60 6 -111 13 -113 15 -6 6 141 72 208 93 216
66 492 53 686 -33 56 -25 74 -25 74 -1 0 21 -229 238 -330 312 -280 206 -598
346 -942 414 -196 39 -201 40 -196 46 3 2 32 14 64 25 118 42 246 44 400 9z
m10029 8 c28 -6 68 -19 90 -28 47 -21 62 -15 -163 -60 -344 -68 -662 -208
-942 -414 -101 -74 -330 -291 -330 -312 0 -24 18 -24 74 1 194 86 470 99 686
33 67 -21 214 -87 208 -93 -2 -2 -53 -9 -113 -15 -481 -47 -914 -254 -1252
-599 -88 -90 -104 -113 -85 -125 5 -3 76 21 158 54 158 62 272 98 401 126 104
22 287 22 375 1 74 -18 178 -66 224 -102 l29 -23 -35 -6 c-600 -94 -839 -159
-1130 -307 -162 -83 -319 -197 -422 -308 -81 -88 -107 -126 -92 -140 5 -5 51
5 110 24 121 40 315 79 472 96 168 17 465 7 565 -20 119 -31 191 -68 239 -120
l43 -46 -230 -6 c-239 -6 -293 -13 -483 -55 -324 -72 -666 -236 -917 -438
-149 -120 -181 -155 -157 -169 4 -3 70 8 147 24 515 107 861 100 1129 -24 l69
-31 -134 -23 c-370 -64 -719 -201 -1019 -402 -260 -173 -340 -253 -237 -237
96 16 300 23 413 15 202 -14 378 -51 569 -120 68 -25 85 -34 70 -40 -11 -4
-87 -31 -170 -59 -418 -146 -659 -282 -865 -490 -122 -122 -190 -223 -233
-340 -28 -77 -18 -91 44 -59 67 34 176 68 268 84 152 27 374 15 499 -26 l33
-11 -58 -28 c-100 -47 -222 -147 -404 -329 -328 -329 -486 -529 -854 -1076
-92 -137 -170 -252 -172 -254 -2 -3 28 60 66 140 136 286 202 495 223 711 14
144 3 266 -43 498 -31 151 -32 163 -36 495 -16 1179 148 1840 635 2560 365
540 982 1150 1749 1728 389 294 713 407 988 345z m-10320 -123 c111 -22 294
-71 304 -80 2 -3 -5 -7 -15 -11 -187 -61 -336 -232 -419 -477 -101 -303 -122
-760 -54 -1222 44 -307 102 -500 297 -995 188 -480 257 -694 304 -945 17 -95
22 -159 22 -305 1 -203 -10 -280 -65 -444 -45 -136 -21 -139 97 -13 162 174
259 450 237 680 -3 37 -3 67 0 67 10 0 156 -226 216 -335 112 -205 211 -463
266 -698 22 -94 31 -117 44 -115 41 8 55 350 21 543 -10 60 -18 110 -17 111 1
1 58 -102 127 -229 243 -449 363 -593 656 -790 51 -34 92 -62 91 -64 -2 -1
-51 11 -110 27 -248 66 -562 97 -834 80 -226 -13 -263 -19 -262 -39 0 -9 69
-76 152 -149 84 -73 181 -159 217 -191 l64 -58 -69 8 c-389 47 -746 223 -1005
496 -179 188 -297 410 -351 658 -15 73 -18 408 -5 745 20 534 -54 797 -260
927 -42 27 -44 31 -63 113 -79 344 -109 895 -76 1428 9 150 20 307 25 350 33
288 42 359 56 434 8 45 19 110 25 143 19 115 60 260 90 323 l31 63 71 -6 c40
-3 126 -17 192 -30z m10564 -28 c30 -62 71 -208 90 -322 6 -33 17 -98 25 -143
14 -75 23 -146 56 -434 25 -217 42 -633 36 -908 -7 -373 -33 -625 -86 -865
-20 -88 -22 -91 -64 -118 -206 -130 -280 -393 -260 -927 13 -337 10 -672 -5
-745 -94 -433 -392 -795 -827 -1002 -158 -75 -352 -130 -529 -152 l-69 -8 64
58 c36 32 133 118 217 191 83 73 152 140 152 149 1 20 -36 26 -261 39 -275 17
-609 -16 -853 -84 -49 -14 -90 -24 -91 -23 -2 1 39 30 90 64 293 197 413 341
656 790 69 127 126 230 127 229 1 -1 -7 -51 -17 -111 -34 -193 -20 -535 21
-543 13 -2 22 21 44 115 56 237 152 491 266 698 60 109 206 335 216 335 3 0 3
-30 0 -67 -22 -230 75 -506 237 -680 118 -126 142 -123 97 13 -55 164 -66 241
-65 444 1 340 65 587 325 1246 196 499 253 691 298 999 56 380 52 756 -9 1052
-72 346 -229 565 -465 648 -17 6 -14 9 20 21 110 40 400 100 492 102 42 1 42
1 72 -61z m-9993 -161 c165 -81 284 -154 401 -245 107 -84 236 -205 208 -196
-123 41 -175 48 -335 49 -187 1 -267 -13 -410 -71 -103 -42 -205 -103 -205
-123 0 -12 24 -16 120 -22 404 -22 798 -169 1110 -413 85 -66 228 -195 223
-201 -2 -2 -56 17 -121 42 -64 24 -170 59 -235 76 -110 30 -128 32 -297 32
-151 1 -189 -2 -235 -18 -119 -40 -270 -136 -270 -171 0 -15 -3 -15 210 -45
516 -75 910 -206 1182 -392 78 -53 284 -235 276 -243 -2 -2 -61 12 -133 30
-220 55 -341 69 -600 70 -243 0 -329 -11 -451 -56 -111 -42 -202 -127 -207
-194 -2 -26 1 -30 23 -28 85 8 390 4 470 -6 379 -50 722 -178 1020 -382 88
-60 224 -168 218 -174 -2 -2 -48 6 -103 16 -509 99 -847 83 -1122 -51 -138
-68 -139 -82 -5 -99 371 -48 763 -189 1072 -386 66 -42 250 -174 250 -179 0
-1 -83 0 -184 2 -269 6 -463 -21 -694 -97 -142 -47 -217 -82 -217 -100 0 -9
62 -35 180 -76 557 -191 864 -382 1046 -651 51 -76 95 -162 86 -170 -2 -2 -33
7 -68 20 -131 49 -211 61 -399 60 -156 0 -186 -3 -272 -27 -124 -33 -188 -61
-188 -83 0 -13 6 -15 36 -10 104 20 285 -104 557 -381 216 -220 399 -437 563
-667 98 -138 604 -892 604 -901 0 -3 -24 14 -54 39 -29 24 -74 57 -99 75 -34
23 -57 51 -88 108 -235 429 -575 760 -1000 974 -192 96 -429 248 -568 364
-176 146 -255 257 -481 668 -210 385 -244 441 -263 445 -24 5 -22 -9 18 -107
71 -178 111 -429 96 -601 -6 -68 -7 -72 -15 -40 -44 181 -165 489 -263 665
-112 203 -277 438 -303 432 -17 -3 -17 -1 5 -117 39 -201 -21 -455 -149 -633
-24 -34 -55 -72 -68 -84 l-24 -23 23 93 c70 275 49 604 -62 987 -46 156 -98
300 -236 652 -178 454 -235 636 -278 893 -39 235 -46 326 -46 605 1 235 4 293
23 400 69 404 220 646 450 721 85 28 124 20 278 -55z m9403 55 c231 -72 383
-314 453 -721 19 -107 22 -165 23 -400 0 -279 -7 -370 -46 -605 -43 -257 -100
-439 -278 -893 -138 -352 -190 -496 -236 -652 -111 -383 -132 -712 -62 -987
l23 -93 -24 23 c-13 12 -44 50 -68 84 -128 178 -188 432 -149 633 22 116 22
114 5 117 -26 6 -191 -229 -303 -432 -98 -176 -219 -484 -263 -665 -8 -32 -9
-28 -15 40 -15 172 25 423 96 601 40 98 42 112 18 107 -20 -4 -58 -69 -265
-447 -221 -404 -304 -521 -479 -666 -139 -116 -376 -268 -568 -364 -425 -214
-765 -545 -1000 -974 -31 -57 -54 -85 -88 -108 -25 -18 -70 -51 -99 -75 -30
-25 -54 -42 -54 -39 0 9 506 763 604 901 164 230 347 447 563 667 272 277 453
401 557 381 30 -5 36 -3 36 10 0 22 -64 50 -188 83 -86 24 -116 27 -272 27
-188 1 -268 -11 -399 -60 -35 -13 -66 -22 -68 -20 -9 8 35 94 86 170 125 184
328 345 606 477 154 73 220 99 440 174 118 41 180 67 180 76 0 18 -75 53 -217
100 -231 76 -425 103 -694 97 -101 -2 -184 -3 -184 -2 0 5 184 137 250 179
309 197 701 338 1073 386 133 17 132 31 -6 99 -275 134 -613 150 -1122 51 -55
-10 -101 -18 -103 -16 -6 6 130 114 218 174 298 204 641 332 1020 382 80 10
385 14 470 6 22 -2 25 2 23 28 -5 67 -96 152 -207 194 -122 45 -208 56 -451
56 -260 -1 -384 -15 -600 -70 -71 -18 -131 -32 -133 -30 -1 1 39 42 91 91 298
285 733 456 1397 548 175 25 180 26 180 41 0 35 -151 131 -270 171 -46 16 -84
19 -235 18 -169 0 -187 -2 -297 -32 -65 -17 -171 -52 -235 -76 -65 -25 -119
-44 -121 -42 -5 6 138 135 223 201 312 244 706 391 1110 413 96 6 120 10 120
22 0 20 -102 81 -205 123 -143 58 -223 72 -410 71 -160 -1 -212 -8 -335 -49
-28 -9 101 112 208 196 137 107 343 227 507 295 68 28 92 29 169 5z m-6484
-1655 c78 -47 190 -134 315 -246 373 -333 476 -416 614 -494 92 -52 116 -57
116 -23 0 42 -59 246 -100 347 -23 56 -40 103 -38 105 9 10 233 -109 335 -177
178 -119 304 -259 364 -403 30 -72 48 -72 78 0 60 144 186 284 364 403 102 68
326 187 335 177 2 -2 -15 -49 -38 -105 -41 -101 -100 -305 -100 -347 0 -34 24
-29 116 23 138 78 241 161 614 494 179 160 311 255 407 293 l43 17 -27 -58
c-14 -31 -48 -113 -75 -182 -58 -144 -110 -228 -210 -335 -130 -139 -245 -220
-617 -434 -144 -84 -309 -183 -366 -221 -182 -122 -357 -280 -445 -403 -18
-26 -36 -47 -40 -47 -4 0 -20 19 -37 43 -52 71 -164 187 -256 264 -126 105
-258 191 -558 364 -372 214 -487 295 -617 434 -100 107 -152 191 -210 335 -27
69 -61 151 -75 182 l-27 58 43 -17 c23 -9 65 -30 92 -47z m291 -673 c92 -75
205 -147 470 -299 132 -76 277 -162 323 -192 196 -126 371 -280 488 -429 36
-46 68 -83 73 -83 5 0 37 37 73 83 117 149 292 303 488 429 46 30 191 116 323
192 334 192 443 266 574 390 l44 41 -62 -124 c-80 -160 -138 -256 -215 -356
-180 -231 -479 -438 -1038 -716 l-187 -94 -188 94 c-558 278 -857 485 -1037
716 -77 100 -135 196 -215 356 l-62 124 44 -41 c23 -23 71 -64 104 -91z m155
-443 c168 -196 479 -402 992 -656 92 -46 167 -87 167 -91 0 -15 -73 -120 -132
-190 -93 -112 -365 -353 -508 -449 -19 -14 -61 -44 -92 -67 -362 -269 -532
-419 -678 -597 -30 -36 -51 -58 -48 -49 13 34 109 342 147 469 21 74 51 189
65 255 15 66 29 129 32 140 17 65 45 299 50 410 3 72 7 138 8 147 4 18 -11
294 -19 365 -11 93 -67 356 -91 430 -3 10 7 2 22 -17 16 -19 54 -64 85 -100z
m2493 75 c-17 -59 -71 -320 -79 -385 -8 -74 -23 -349 -19 -368 1 -9 5 -75 8
-147 9 -224 61 -507 143 -790 31 -107 137 -447 151 -485 3 -8 -18 14 -48 50
-146 178 -316 328 -678 597 -31 23 -73 53 -92 67 -143 96 -415 337 -508 449
-59 70 -132 175 -132 190 0 4 75 45 168 91 549 273 852 479 1028 700 37 47 69
84 70 83 2 -2 -4 -25 -12 -52z m-6720 -95 c54 -57 105 -161 129 -260 33 -139
40 -262 31 -560 -14 -440 -11 -670 10 -768 88 -424 397 -798 831 -1007 166
-80 307 -123 540 -162 l50 -9 -80 -27 c-240 -80 -437 -111 -710 -112 -256 0
-341 8 -544 52 -54 11 -81 23 -98 41 -37 40 -168 315 -207 433 -103 316 -116
647 -41 1059 9 46 38 177 65 290 106 444 106 481 -15 926 -25 91 -45 167 -45
170 0 12 41 -19 84 -66z m10891 -104 c-121 -445 -121 -482 -15 -926 27 -113
56 -244 65 -290 75 -412 62 -743 -41 -1059 -38 -116 -171 -394 -208 -434 -16
-17 -44 -29 -97 -40 -203 -44 -288 -52 -544 -52 -273 1 -470 32 -710 112 l-80
27 50 9 c233 39 374 82 540 162 325 156 572 394 720 693 53 106 99 239 116
337 16 84 17 353 5 745 -12 391 5 539 84 705 28 59 54 95 95 134 31 29 58 51
61 49 2 -3 -16 -80 -41 -172z m-5448 -668 c22 -49 136 -190 220 -274 121 -122
240 -220 493 -408 118 -88 260 -196 315 -240 213 -171 401 -375 495 -537 144
-246 152 -581 24 -1005 -36 -119 -114 -328 -120 -322 -2 3 5 49 15 104 95 491
-54 942 -445 1353 -120 126 -219 209 -488 410 -277 207 -384 315 -481 480 -20
33 -40 61 -45 61 -5 0 -25 -28 -45 -61 -96 -164 -205 -272 -481 -480 -270
-201 -368 -284 -488 -410 -391 -411 -540 -862 -445 -1353 10 -55 17 -101 15
-104 -6 -6 -84 203 -120 322 -128 424 -120 759 24 1005 94 162 282 366 495
537 55 44 197 152 315 240 255 190 373 287 494 409 86 86 197 225 219 273 6
12 13 22 17 22 4 0 11 -10 17 -22z m28 -515 c58 -97 245 -281 399 -394 241
-176 350 -264 469 -378 236 -228 382 -447 467 -699 40 -120 40 -135 -2 -95
-75 70 -182 117 -304 132 -124 15 -268 -13 -430 -85 -7 -3 -14 19 -18 66 -10
103 -31 174 -77 269 -54 109 -160 218 -319 326 -63 44 -141 105 -172 137 l-58
59 -57 -59 c-32 -32 -110 -93 -173 -137 -159 -108 -265 -217 -319 -326 -46
-95 -67 -166 -77 -269 -4 -47 -11 -69 -18 -66 -162 72 -306 100 -430 85 -122
-15 -229 -62 -303 -132 -43 -40 -43 -25 -3 95 78 232 203 428 410 642 123 127
237 222 485 405 204 151 375 315 440 424 22 36 42 66 45 66 3 0 23 -30 45 -66z
m-9 -761 c22 -20 99 -79 172 -131 168 -119 256 -211 311 -322 42 -87 71 -203
71 -286 l0 -48 -82 -55 c-112 -73 -300 -259 -411 -405 -49 -66 -93 -120 -97
-120 -4 0 -48 54 -97 120 -111 146 -299 332 -410 405 l-83 55 0 48 c0 83 29
199 71 286 55 111 143 203 311 322 102 72 191 145 204 168 0 0 19 -16 40 -37z
m-3650 -282 c329 -26 614 -102 889 -235 397 -193 725 -502 958 -902 20 -35 35
-63 33 -63 -2 0 -39 16 -82 36 -108 49 -156 66 -166 56 -4 -4 1 -54 12 -110
11 -57 20 -109 20 -116 0 -9 -21 -3 -65 21 -74 39 -193 84 -281 107 -125 32
-282 47 -634 61 -375 15 -519 29 -659 65 -44 11 -84 20 -90 20 -42 0 47 -255
131 -377 16 -24 27 -43 25 -43 -3 0 -21 7 -41 15 -152 64 -493 -10 -764 -166
-59 -34 -156 -96 -217 -137 -481 -332 -622 -404 -852 -432 -48 -6 -92 -15 -98
-21 -14 -14 128 -147 218 -203 155 -97 328 -152 507 -163 l106 -6 -151 -101
c-200 -134 -324 -235 -471 -381 -193 -192 -349 -403 -463 -624 -29 -56 -58
-104 -64 -105 -7 -2 -49 -10 -95 -19 -122 -23 -221 -75 -308 -163 -50 -51 -70
-65 -67 -50 30 193 49 292 74 393 105 430 271 708 518 868 66 43 72 49 57 63
-13 13 -47 16 -203 16 -111 1 -228 -5 -286 -13 -54 -7 -99 -12 -101 -10 -6 7
92 199 157 307 141 235 309 446 526 662 211 210 417 373 644 508 42 26 77 52
77 59 0 7 -13 19 -30 28 -116 60 -366 290 -477 439 -58 79 -147 225 -141 232
3 2 25 -3 49 -11 88 -32 307 -84 424 -102 92 -14 176 -18 360 -17 217 0 255 3
394 28 237 43 525 135 519 167 -2 9 -101 103 -221 209 -120 106 -216 194 -214
197 6 6 212 20 318 22 53 0 154 -4 225 -9z m7733 -8 l45 -7 -220 -194 c-120
-107 -220 -201 -222 -210 -6 -32 282 -124 519 -167 139 -25 177 -28 394 -28
184 -1 268 3 360 17 117 18 336 70 424 102 24 8 46 13 49 11 6 -7 -83 -153
-141 -232 -111 -149 -361 -379 -477 -439 -17 -9 -30 -21 -30 -28 0 -7 35 -33
78 -59 223 -134 435 -301 643 -508 217 -216 385 -427 526 -662 65 -108 163
-300 157 -307 -2 -2 -47 3 -101 10 -58 8 -175 14 -286 13 -156 0 -190 -3 -203
-16 -15 -14 -9 -20 57 -63 247 -160 413 -438 518 -868 25 -101 44 -200 74
-393 3 -15 -17 -1 -67 50 -87 88 -186 140 -308 163 -46 9 -88 17 -95 19 -6 1
-35 49 -64 105 -114 221 -270 432 -463 624 -147 146 -271 247 -471 381 l-151
101 106 6 c179 11 352 66 507 163 90 56 232 189 218 203 -6 6 -50 15 -98 21
-230 28 -371 100 -852 432 -141 97 -306 192 -392 225 -94 35 -251 80 -331 94
-78 14 -206 6 -258 -16 -20 -8 -38 -15 -41 -15 -2 0 9 19 25 43 64 92 142 287
142 353 0 29 -1 29 -101 4 -140 -36 -284 -50 -659 -65 -352 -14 -509 -29 -634
-61 -88 -23 -207 -68 -281 -107 -44 -24 -65 -30 -65 -21 0 7 9 59 20 116 11
58 16 106 11 111 -9 9 -108 -27 -193 -69 -26 -13 -50 -24 -52 -24 -3 0 11 28
31 63 389 668 1029 1066 1828 1137 103 9 446 4 524 -8z m-4949 -443 c166 -44
337 -151 500 -311 92 -91 213 -235 280 -335 19 -29 42 -52 50 -52 8 0 31 23
50 52 67 100 188 244 280 335 223 219 454 334 674 334 137 -1 239 -36 343
-119 67 -54 63 -58 -56 -59 -87 -1 -122 -6 -191 -29 -381 -124 -753 -470 -956
-892 -48 -100 -119 -302 -130 -370 -4 -24 -10 -43 -14 -43 -4 0 -10 19 -14 43
-11 68 -82 270 -130 370 -203 422 -575 768 -956 892 -69 23 -104 28 -191 29
-119 1 -123 5 -56 59 146 117 316 149 517 96z m-280 -222 c406 -136 795 -526
977 -979 64 -159 113 -373 113 -489 -1 -113 -40 -383 -76 -524 -61 -236 -191
-558 -304 -755 -23 -41 -61 -106 -83 -145 -64 -113 -196 -309 -315 -467 -96
-128 -161 -208 -350 -432 -106 -124 -391 -421 -432 -449 -62 -43 -122 -99
-192 -180 -45 -53 -58 -63 -58 -46 0 43 53 257 95 384 63 190 111 299 365 815
125 256 248 517 273 580 166 423 210 752 146 1075 -39 193 -97 338 -218 542
-129 218 -207 412 -252 623 -18 83 -23 136 -22 256 0 172 5 201 36 214 40 18
215 4 297 -23z m2535 10 c23 -31 29 -246 11 -367 -38 -252 -116 -458 -273
-723 -114 -192 -174 -342 -212 -532 -64 -323 -20 -652 146 -1075 25 -63 148
-324 273 -580 254 -516 302 -625 365 -815 42 -127 95 -341 95 -384 0 -17 -13
-7 -58 46 -70 81 -130 137 -192 180 -41 28 -326 325 -432 449 -189 224 -254
304 -350 432 -119 158 -251 354 -315 467 -22 39 -60 104 -83 145 -113 197
-243 519 -304 755 -36 141 -75 411 -76 524 0 116 49 330 113 489 103 256 250
466 465 664 193 178 397 291 617 342 11 3 60 4 108 3 73 -2 91 -5 102 -20z
m-4916 -478 c119 -20 291 -32 696 -49 248 -10 415 -31 549 -71 86 -25 218 -86
280 -128 45 -31 76 -40 76 -21 0 6 -11 63 -25 127 -14 64 -23 118 -20 121 8 8
126 -47 220 -103 369 -220 646 -617 730 -1045 39 -198 28 -447 -30 -675 -65
-252 -142 -438 -407 -970 -205 -412 -274 -565 -344 -760 -24 -66 -42 -104 -39
-85 2 19 14 105 25 190 73 541 205 1030 401 1485 50 116 76 165 96 180 237
171 238 703 3 1056 -42 63 -204 229 -223 229 -9 0 -6 -37 9 -104 7 -28 2 -25
-75 40 -220 187 -475 294 -738 311 -100 6 -103 5 -103 -15 0 -12 8 -23 21 -27
24 -8 86 -61 99 -85 9 -17 5 -17 -63 1 -39 10 -110 22 -157 25 -78 6 -100 3
-275 -40 -232 -56 -328 -70 -423 -62 -99 8 -159 36 -226 105 -94 99 -182 258
-202 365 -6 36 -5 39 12 32 10 -4 70 -16 133 -27z m7126 -6 c-27 -147 -182
-380 -287 -434 -109 -55 -256 -48 -558 26 -172 43 -192 46 -275 41 -49 -3
-123 -14 -162 -25 -68 -18 -72 -18 -63 -1 13 24 75 77 99 85 13 4 21 15 21 27
0 20 -3 21 -102 15 -264 -17 -519 -124 -739 -311 -77 -65 -82 -68 -75 -40 15
67 18 104 9 104 -19 0 -181 -166 -223 -229 -92 -137 -151 -309 -170 -496 -27
-253 38 -463 173 -560 20 -15 46 -64 96 -180 196 -455 328 -944 401 -1485 11
-85 23 -171 25 -190 3 -19 -15 19 -39 85 -70 195 -139 348 -344 760 -265 532
-342 718 -407 970 -58 228 -69 477 -30 675 84 429 360 824 730 1045 94 56 212
111 220 103 3 -3 -6 -57 -20 -121 -14 -64 -25 -121 -25 -127 0 -18 31 -10 73
19 117 80 279 139 468 170 149 24 212 29 569 41 271 10 462 28 570 54 30 8 59
14 64 15 4 1 5 -16 1 -36z m-5829 -318 c236 -42 463 -158 636 -326 45 -43 87
-79 95 -79 9 0 13 17 13 58 l1 57 62 -66 c157 -167 259 -467 243 -714 -7 -106
-22 -168 -62 -249 l-29 -59 -12 116 c-14 129 -49 250 -109 369 -161 321 -355
401 -974 402 -252 1 -332 -11 -392 -55 -43 -31 -159 -40 -226 -17 -157 52
-309 195 -385 362 -16 35 -16 38 -1 32 9 -3 48 -11 86 -17 109 -17 228 -2 480
62 208 52 266 51 466 -6 79 -22 92 -14 63 42 -11 22 -32 54 -46 72 -32 37 -31
37 91 16z m4479 -16 c-14 -18 -35 -50 -46 -72 -29 -56 -16 -64 63 -42 200 57
258 58 466 6 252 -64 371 -79 480 -62 38 6 77 14 86 17 15 6 15 3 -1 -32 -76
-167 -228 -310 -385 -362 -67 -23 -183 -14 -226 17 -60 44 -140 56 -392 55
-619 -1 -813 -81 -974 -402 -60 -119 -95 -240 -109 -369 l-13 -118 -28 60
c-40 83 -55 145 -62 250 -16 247 86 547 243 714 l62 66 1 -57 c0 -41 4 -58 13
-58 8 0 50 36 95 79 84 82 204 167 307 219 116 57 325 117 423 121 l24 1 -27
-31z m-5910 -10 c22 -6 77 -29 122 -50 l83 -39 45 -93 c80 -164 188 -282 321
-354 l53 -29 -177 -27 c-443 -70 -839 -192 -1237 -383 -184 -88 -336 -104
-535 -54 -160 41 -352 143 -443 237 l-37 39 78 11 c220 32 358 105 852 445
217 150 356 216 570 272 143 37 234 44 305 25z m7550 -25 c77 -20 174 -50 215
-66 84 -35 264 -139 385 -223 456 -316 635 -407 845 -431 l61 -7 -38 -39 c-91
-94 -281 -196 -443 -238 -192 -49 -344 -35 -520 48 -174 82 -224 104 -365 156
-280 105 -551 177 -870 229 l-194 32 52 28 c132 69 242 190 322 354 l45 92 77
37 c160 77 221 81 428 28z m-5851 -498 c288 -40 418 -128 534 -361 76 -152
123 -349 107 -451 -9 -66 -21 -40 -29 66 -8 109 -46 250 -92 342 -62 123 -115
206 -152 240 -50 43 -166 95 -281 125 -128 33 -341 42 -450 19 -81 -17 -193
-65 -228 -98 -29 -28 -77 -20 -138 22 -51 35 -65 57 -44 71 19 12 82 30 144
40 75 12 504 2 629 -15z m4471 15 c70 -10 134 -27 155 -41 22 -14 3 -39 -60
-77 -61 -37 -99 -42 -124 -14 -26 28 -146 80 -228 97 -108 23 -321 14 -449
-19 -116 -30 -231 -82 -281 -126 -20 -17 -57 -67 -82 -109 -104 -179 -151
-314 -162 -472 -8 -106 -20 -132 -29 -66 -21 138 70 426 181 578 76 103 183
173 318 208 61 15 187 32 331 43 91 8 374 6 430 -2z m-4709 -234 c1 -181 11
-238 64 -379 26 -71 45 -74 87 -15 82 114 107 207 107 405 1 104 4 142 13 142
7 0 49 -12 95 -26 225 -71 298 -154 286 -323 -6 -86 -35 -148 -98 -215 -87
-93 -228 -146 -385 -146 -259 0 -460 146 -505 367 -18 84 -9 236 14 262 41 45
193 98 286 100 l35 1 1 -173z m209 161 c16 -16 17 -223 2 -306 -17 -88 -58
-191 -87 -217 -17 -15 -19 -12 -43 62 -45 140 -60 256 -51 386 l7 89 83 -4
c45 -1 85 -6 89 -10z m4089 -75 c9 -130 -6 -246 -51 -386 -24 -74 -26 -77 -43
-62 -69 62 -117 308 -94 478 8 53 10 54 110 56 l71 1 7 -87z m229 52 c86 -30
132 -64 141 -106 11 -57 6 -183 -9 -244 -44 -166 -174 -287 -357 -330 -192
-45 -413 10 -528 131 -63 67 -92 129 -98 215 -12 169 61 252 286 323 46 14 88
26 95 26 9 0 12 -38 13 -142 0 -198 25 -291 107 -405 42 -59 61 -56 87 15 54
141 63 198 64 381 l1 173 65 -6 c36 -4 96 -18 133 -31z m-5375 -39 c-177 -100
-328 -248 -464 -453 -95 -143 -238 -294 -381 -401 -198 -149 -344 -229 -998
-547 -575 -280 -873 -522 -1046 -852 -22 -43 -43 -80 -45 -82 -12 -13 45 261
75 362 169 556 538 1025 1094 1390 180 118 473 267 677 344 30 12 85 33 123
47 37 14 97 35 135 45 37 11 112 33 167 49 134 39 357 87 540 116 211 34 213
34 123 -18z m228 -68 c1 -131 19 -211 70 -308 67 -128 159 -217 289 -280 152
-73 319 -97 540 -77 72 7 186 12 255 12 116 0 129 -2 175 -27 28 -14 62 -39
76 -55 l27 -28 -68 -155 c-170 -391 -283 -782 -366 -1265 l-32 -190 -1 100
c-2 147 -18 383 -36 515 -43 311 -119 481 -285 632 -250 229 -611 305 -935
197 -292 -97 -505 -297 -660 -620 l-54 -114 0 70 c-1 361 116 797 294 1100
160 272 368 473 590 570 124 54 120 56 121 -77z m5682 80 c486 -202 856 -874
887 -1609 l6 -134 -55 114 c-159 325 -369 523 -661 620 -324 108 -685 32 -935
-197 -166 -151 -242 -321 -285 -632 -17 -130 -34 -366 -36 -515 l-1 -100 -23
135 c-87 524 -205 934 -384 1340 l-59 135 27 28 c14 16 49 41 76 55 46 25 59
27 175 27 69 0 184 -5 255 -12 221 -20 388 4 540 77 130 63 222 152 289 280
51 98 69 177 70 308 0 132 -4 129 114 80z m231 6 c186 -28 422 -79 557 -119
49 -15 118 -35 155 -45 163 -47 545 -206 660 -276 31 -19 60 -34 63 -34 14 0
217 -127 323 -203 246 -175 497 -418 636 -617 175 -250 291 -488 360 -740 29
-106 73 -330 63 -319 -2 2 -23 39 -45 82 -132 251 -324 440 -644 635 -140 85
-246 139 -817 420 -499 246 -762 449 -961 741 -145 215 -290 357 -467 457 -42
24 -70 44 -62 44 7 0 88 -12 179 -26z m-5757 -54 c24 -11 52 -20 63 -20 20 0
21 -5 17 -92 -13 -306 171 -511 490 -547 l83 -10 -99 5 c-289 15 -505 139
-604 345 -58 120 -84 265 -66 358 l7 31 33 -25 c19 -14 53 -35 76 -45z m5377
-28 c2 -83 -27 -199 -71 -291 -99 -206 -315 -330 -604 -345 l-99 -5 83 10
c319 36 503 241 490 547 -4 87 -3 92 17 92 24 0 110 41 145 69 l25 20 7 -22
c3 -12 6 -46 7 -75z m-4183 -249 c51 -117 94 -314 94 -437 l0 -25 -51 35 c-98
66 -177 74 -459 49 l-55 -5 62 14 c139 32 271 123 326 224 16 29 32 82 39 126
7 42 14 76 15 76 2 0 15 -26 29 -57z m2944 -130 c55 -111 185 -205 333 -239
l62 -14 -55 5 c-282 25 -361 17 -459 -49 l-51 -35 0 25 c0 126 43 324 96 439
l28 60 8 -65 c5 -37 22 -92 38 -127z m-1497 129 c11 -92 59 -288 107 -432 184
-559 595 -1189 1194 -1829 133 -142 130 -128 27 -123 -67 3 -103 0 -145 -13
-129 -41 -255 -160 -338 -320 l-43 -84 -1 132 c-1 162 -21 242 -97 402 -66
137 -172 294 -325 482 -192 236 -300 383 -343 465 -22 43 -44 78 -49 78 -5 0
-27 -35 -49 -78 -43 -82 -148 -224 -350 -474 -156 -193 -248 -329 -317 -471
-77 -159 -97 -241 -98 -404 l-1 -132 -43 84 c-83 160 -209 279 -338 320 -42
13 -78 16 -145 13 -103 -5 -106 -19 27 123 599 640 1010 1270 1194 1829 48
144 96 340 107 432 3 26 9 48 13 48 4 0 10 -22 13 -48z m-1940 -389 c-7 -2
-19 -2 -25 0 -7 3 -2 5 12 5 14 0 19 -2 13 -5z m3880 0 c-7 -2 -19 -2 -25 0
-7 3 -2 5 12 5 14 0 19 -2 13 -5z m-5607 -89 c-62 -148 -119 -352 -151 -544
-6 -34 -10 -37 -152 -105 -287 -137 -518 -295 -729 -497 -303 -292 -529 -665
-640 -1061 l-28 -97 -95 -49 c-194 -99 -380 -148 -602 -158 -173 -7 -320 10
-447 53 -8 2 36 29 96 59 384 192 699 511 899 910 92 182 156 372 178 527 4
26 14 53 24 61 32 30 270 161 451 249 544 266 656 324 780 398 153 92 290 192
382 279 35 33 64 58 65 57 2 -1 -12 -38 -31 -82z m7497 -104 c186 -140 322
-214 1007 -548 180 -88 418 -219 451 -249 10 -8 20 -35 24 -61 11 -81 55 -244
89 -332 187 -484 544 -883 988 -1105 79 -39 104 -57 91 -61 -10 -3 -28 -10
-40 -14 -61 -25 -251 -42 -393 -37 -229 9 -413 57 -611 158 l-95 49 -28 97
c-111 396 -337 769 -640 1061 -211 202 -442 360 -729 497 -142 68 -146 71
-152 105 -32 192 -89 396 -151 545 -19 44 -34 81 -34 83 0 3 30 -23 66 -57 36
-34 107 -93 157 -131z m-6484 -100 c102 -17 240 -66 326 -116 120 -70 259
-213 313 -324 68 -137 109 -334 132 -624 11 -140 12 -644 1 -741 -6 -59 -6
-58 -24 80 -53 405 -158 795 -272 1012 -99 187 -185 265 -346 309 -92 26 -370
26 -489 0 -260 -56 -500 -174 -688 -335 -40 -34 -72 -60 -72 -57 0 15 52 140
85 206 136 270 352 465 608 550 141 46 296 61 426 40z m5562 -5 c327 -57 592
-262 754 -585 33 -66 85 -191 85 -206 0 -3 -32 23 -72 57 -188 161 -428 279
-688 335 -119 26 -397 26 -489 0 -123 -34 -189 -78 -263 -176 -153 -201 -289
-639 -355 -1145 -18 -138 -18 -139 -24 -80 -11 97 -10 601 1 741 23 290 64
487 132 624 34 69 59 102 137 181 113 113 211 175 349 219 160 52 283 62 433
35z m-5419 -444 c87 -28 152 -73 211 -146 56 -70 142 -242 186 -371 63 -187
132 -491 165 -734 9 -63 19 -131 22 -150 3 -25 -9 -7 -44 66 -190 390 -524
642 -910 685 -281 31 -552 -44 -835 -231 -131 -87 -200 -151 -409 -379 -405
-443 -698 -674 -1068 -842 -124 -57 -307 -125 -314 -118 -2 2 22 57 54 121 61
123 95 230 115 363 15 97 74 300 121 413 123 298 279 529 518 767 157 157 288
262 472 376 109 69 361 199 384 199 10 0 11 -18 7 -72 -4 -40 -7 -129 -7 -198
-2 -204 -2 -200 16 -200 10 0 57 38 105 85 209 201 474 328 809 389 14 2 95 3
180 2 126 -3 168 -7 222 -25z m5518 0 c278 -70 508 -192 689 -366 48 -47 95
-85 105 -85 18 0 18 -4 16 200 0 69 -3 158 -7 198 -4 54 -3 72 7 72 23 0 275
-130 384 -199 335 -209 621 -490 818 -804 135 -216 260 -536 293 -752 20 -133
54 -240 115 -363 32 -64 56 -119 54 -121 -7 -7 -190 61 -314 118 -370 168
-663 399 -1068 842 -93 102 -201 214 -238 248 -84 77 -244 184 -358 240 -468
229 -964 149 -1312 -211 -106 -109 -178 -212 -246 -352 -35 -73 -47 -91 -44
-66 3 19 13 87 22 150 48 348 139 700 235 908 103 223 203 317 381 357 94 22
356 13 468 -14z m-2983 -249 c37 -68 124 -184 272 -365 302 -369 420 -575 460
-801 15 -84 13 -88 -15 -27 -93 205 -287 350 -548 408 -95 21 -317 21 -412 0
-261 -58 -455 -203 -548 -408 -28 -61 -30 -57 -15 27 40 226 158 432 460 801
148 181 235 297 272 365 18 32 34 58 37 58 3 0 19 -26 37 -58z m-2768 -467
c371 -101 663 -390 796 -788 19 -57 35 -110 35 -117 0 -7 -12 -4 -32 9 -63 42
-264 139 -342 166 -182 62 -408 86 -611 66 -593 -61 -1175 -454 -1498 -1012
-97 -168 -127 -251 -212 -584 l-64 -250 -103 -101 c-392 -383 -878 -467 -1538
-267 -110 33 -255 85 -341 121 l-41 18 138 27 c178 35 317 82 479 161 471 231
846 636 1025 1109 l37 98 75 43 c245 139 492 346 754 631 309 336 417 433 592
534 128 74 274 128 424 157 112 21 309 12 427 -21z m5972 2 c184 -48 335 -121
499 -243 88 -64 210 -186 434 -429 262 -285 509 -492 754 -631 l75 -43 37 -98
c183 -483 570 -895 1056 -1124 142 -67 283 -113 448 -146 l138 -27 -41 -18
c-358 -152 -756 -239 -1031 -225 -341 18 -604 133 -848 371 l-103 101 -64 250
c-85 333 -115 416 -212 584 -233 402 -602 723 -1031 897 -347 141 -756 159
-1078 49 -78 -27 -279 -124 -341 -166 -21 -13 -33 -16 -33 -9 0 7 16 60 35
117 147 439 490 746 910 814 93 15 291 3 396 -24z m-3114 -348 c105 -14 244
-60 323 -106 79 -46 196 -158 205 -195 19 -77 -25 -108 -157 -108 -104 -1
-205 -19 -370 -65 l-128 -37 -128 37 c-165 46 -266 64 -370 65 -132 0 -176 31
-157 108 9 37 126 149 205 195 159 92 381 133 577 106z m-1323 -246 c134 -47
260 -189 351 -393 21 -48 30 -90 36 -158 10 -113 31 -163 98 -225 83 -78 171
-113 422 -166 153 -33 190 -46 237 -86 l33 -27 -3 -142 -3 -141 -129 -48
c-151 -57 -385 -118 -541 -143 -152 -23 -393 -23 -505 0 -128 27 -268 77 -355
127 -73 41 -226 171 -215 182 3 3 43 -11 90 -30 224 -93 474 -121 730 -82 86
13 100 18 100 34 0 16 -16 21 -100 30 -229 25 -522 127 -697 241 -145 95 -270
268 -257 358 9 65 34 210 39 224 3 8 29 -16 64 -60 129 -160 331 -295 616
-413 129 -54 498 -176 512 -171 28 11 9 27 -94 80 -399 204 -717 517 -843 828
-27 67 -26 69 56 123 119 79 242 99 358 58z m2643 -4 c53 -18 150 -77 174
-105 10 -12 8 -25 -11 -72 -126 -311 -444 -624 -842 -828 -104 -53 -123 -69
-95 -80 14 -5 383 117 512 171 285 118 487 253 616 413 35 44 61 68 64 60 5
-14 30 -159 39 -224 13 -90 -112 -263 -257 -358 -175 -114 -468 -216 -697
-241 -84 -9 -100 -14 -100 -30 0 -49 393 -67 588 -26 94 20 197 53 295 95 37
16 38 16 28 -3 -19 -35 -129 -126 -207 -171 -86 -49 -226 -99 -354 -126 -112
-23 -353 -23 -505 0 -156 25 -390 86 -541 143 l-129 48 -3 141 -3 142 33 27
c47 40 84 53 237 86 251 53 339 88 422 166 67 62 88 112 98 225 6 68 15 110
36 158 51 115 108 202 180 275 131 134 262 169 422 114z m-3859 -138 c149 -38
267 -85 387 -157 135 -80 137 -82 125 -124 -15 -54 -38 -196 -45 -285 -6 -75
7 -243 22 -281 6 -15 1 -16 -43 -9 -27 4 -93 9 -147 11 -280 9 -590 -137 -849
-402 -213 -219 -335 -401 -474 -711 -41 -92 -95 -205 -119 -251 -165 -310
-422 -517 -808 -647 -257 -88 -566 -133 -817 -120 -166 9 -234 18 -205 30 150
58 276 148 380 273 184 219 283 473 455 1167 24 94 58 215 77 269 128 369 416
727 777 965 214 141 451 239 676 280 63 11 126 23 140 25 14 3 97 3 185 1 138
-3 177 -8 283 -34z m5432 10 c234 -47 482 -151 689 -290 356 -240 638 -593
764 -957 19 -54 53 -175 77 -269 108 -435 168 -635 241 -804 149 -341 327
-532 594 -636 29 -12 -39 -21 -205 -30 -251 -13 -566 33 -820 120 -385 132
-640 338 -805 647 -24 46 -78 159 -119 251 -139 310 -261 492 -474 711 -259
265 -569 411 -849 402 -54 -2 -120 -7 -147 -11 -44 -7 -49 -6 -43 9 15 38 28
206 22 281 -7 89 -30 231 -45 285 -12 42 -10 44 125 124 150 90 339 157 524
186 94 15 353 4 471 -19z m-3697 -17 c31 -40 76 -54 176 -54 106 0 215 -19
368 -66 62 -19 122 -34 133 -34 11 0 71 15 133 34 153 47 262 66 368 66 101 0
145 14 177 55 25 32 25 32 45 -17 27 -64 48 -182 45 -248 l-3 -65 -56 -27
c-79 -38 -146 -55 -167 -42 -9 6 -23 31 -30 55 -27 91 -50 129 -88 145 -47 20
-105 10 -145 -23 -96 -81 -77 -206 51 -346 33 -36 60 -70 60 -76 0 -16 -36
-37 -160 -92 -62 -27 -139 -67 -171 -88 l-59 -39 -55 36 c-31 21 -115 64 -187
97 -72 33 -136 67 -141 76 -9 14 1 30 51 84 130 142 149 267 53 348 -40 33
-98 43 -145 23 -38 -16 -61 -54 -88 -145 -7 -24 -21 -49 -30 -55 -21 -13 -88
4 -167 42 l-56 27 -3 67 c-2 36 4 97 13 135 16 71 44 153 52 153 3 0 14 -12
26 -26z m-902 -186 c127 -214 305 -399 543 -560 50 -33 95 -65 100 -69 23 -20
-272 98 -389 155 -204 101 -337 199 -441 324 -84 101 -84 102 -38 169 21 31
61 81 88 110 l49 54 29 -66 c16 -37 43 -90 59 -117z m3383 19 c46 -67 46 -68
-38 -169 -106 -128 -239 -224 -451 -328 -117 -57 -347 -150 -372 -150 -4 0 36
29 88 64 291 198 511 447 610 690 l24 58 50 -54 c27 -30 68 -80 89 -111z
m-2128 -73 c63 -30 82 -109 45 -190 -10 -23 -49 -73 -85 -111 -89 -95 -88
-124 4 -178 l45 -27 -40 7 c-80 13 -223 66 -281 103 -65 42 -107 95 -123 157
-11 39 -15 105 -7 105 2 0 33 -14 69 -30 136 -64 204 -48 227 52 28 118 68
149 146 112z m728 6 c30 -11 49 -45 66 -118 23 -100 91 -116 227 -52 36 16 67
30 69 30 10 0 3 -82 -10 -118 -22 -62 -55 -101 -120 -144 -58 -37 -200 -89
-281 -103 l-40 -7 45 27 c92 54 93 83 4 178 -36 38 -75 88 -85 111 -36 80 -18
159 43 189 39 19 48 20 82 7z m-5773 -77 c-27 -145 -94 -308 -178 -436 -33
-49 -42 -72 -35 -79 14 -14 233 61 402 137 l119 53 -29 -78 c-86 -234 -261
-493 -462 -686 -123 -118 -201 -158 -343 -173 -259 -29 -614 120 -899 375
l-57 52 48 7 c26 3 89 20 138 36 291 97 490 291 595 579 l28 75 43 7 c24 4 87
14 139 22 139 22 261 60 385 120 61 29 111 52 113 51 2 -2 -1 -29 -7 -62z
m11044 -68 c50 -14 133 -33 185 -41 52 -8 115 -18 139 -22 l43 -7 28 -75 c88
-244 242 -417 465 -525 92 -45 247 -95 293 -95 24 0 21 -4 -33 -52 -286 -257
-641 -406 -900 -377 -142 15 -220 55 -343 173 -201 193 -376 452 -462 686
l-29 78 119 -53 c169 -76 388 -151 402 -137 7 7 -3 30 -36 80 -82 125 -161
322 -180 454 l-7 47 113 -54 c62 -30 154 -66 203 -80z m-7522 -370 c104 -136
277 -242 526 -325 64 -22 158 -47 210 -58 82 -16 90 -20 62 -25 -56 -11 -201
-8 -301 8 -124 18 -253 56 -370 108 -109 49 -125 69 -159 197 -22 87 -35 179
-23 165 5 -6 29 -37 55 -70z m3747 4 c-11 -79 -43 -183 -69 -225 -35 -57 -283
-149 -481 -179 -100 -16 -245 -19 -301 -8 -28 5 -20 9 62 25 52 11 146 36 210
58 254 84 427 192 534 335 27 35 50 63 52 62 1 -2 -2 -32 -7 -68z m-3850 -149
c44 -12 46 -15 88 -101 47 -98 144 -207 236 -267 29 -19 59 -50 73 -74 41 -72
161 -204 259 -285 52 -43 94 -81 94 -85 0 -5 -16 -8 -34 -8 -53 0 -234 -37
-312 -64 -189 -64 -295 -135 -416 -278 -147 -173 -212 -445 -243 -1013 -13
-243 -58 -461 -120 -591 -72 -150 -210 -298 -387 -416 -78 -52 -273 -156 -266
-142 63 132 78 193 78 325 0 167 -31 263 -197 608 -238 497 -323 853 -293
1226 l12 139 54 109 c213 425 574 774 917 887 150 49 338 61 457 30z m4211 5
c261 -45 499 -190 735 -447 130 -141 242 -303 328 -475 l54 -109 12 -139 c31
-374 -54 -725 -293 -1225 -166 -348 -197 -442 -197 -609 0 -132 15 -193 78
-325 7 -14 -188 90 -266 142 -177 118 -315 266 -387 416 -62 130 -107 348
-120 591 -31 568 -96 840 -243 1013 -121 143 -227 214 -416 278 -78 27 -259
64 -312 64 -18 0 -34 3 -34 8 0 4 42 42 94 85 98 81 218 213 259 285 14 24 44
55 73 74 27 17 81 65 121 105 55 56 82 94 115 162 l43 89 50 11 c112 24 194
26 306 6z m-2149 -375 c109 -43 314 -106 379 -116 22 -4 39 -10 39 -14 0 -8
-201 -72 -305 -97 -51 -12 -113 -17 -225 -17 -112 0 -174 5 -225 17 -104 25
-305 89 -305 97 0 4 17 10 39 14 66 10 271 73 376 115 55 22 105 40 112 40 6
1 58 -17 115 -39z m-1502 -106 c132 -46 253 -64 433 -63 89 0 200 6 247 12
l85 12 153 -51 c210 -71 306 -89 472 -89 166 0 262 18 472 89 l153 51 85 -12
c47 -6 158 -12 247 -12 180 -1 301 17 433 63 122 43 114 42 101 17 -46 -86
-228 -254 -388 -358 -307 -202 -849 -396 -1103 -396 -254 0 -796 194 -1103
396 -160 104 -342 272 -388 358 -13 25 -21 26 101 -17z m332 -418 c40 -24 92
-54 116 -67 l43 -24 4 -80 c3 -44 12 -107 22 -140 41 -137 152 -297 308 -443
l86 -80 -16 -64 c-27 -103 -78 -196 -239 -436 -206 -309 -244 -404 -253 -643
-6 -149 11 -286 47 -382 l19 -52 -102 105 c-380 388 -649 786 -770 1135 -57
164 -72 251 -71 415 1 168 19 253 84 388 52 110 89 161 188 264 80 83 85 87
154 103 84 21 218 43 270 44 28 1 57 -11 110 -43z m2315 33 c43 -5 117 -19
165 -30 l86 -20 84 -87 c99 -103 136 -154 188 -264 65 -135 83 -220 84 -388 1
-164 -14 -250 -71 -415 -119 -346 -390 -746 -769 -1135 l-102 -104 24 72 c35
102 47 216 41 366 -9 234 -48 332 -253 638 -161 240 -212 333 -239 436 l-16
64 86 80 c156 146 267 306 308 443 10 33 19 96 22 140 l4 80 73 40 c40 23 91
53 113 67 45 30 63 32 172 17z m-2925 -156 c-153 -180 -226 -364 -239 -608 -5
-107 -3 -134 21 -248 15 -70 40 -167 57 -215 41 -118 143 -325 220 -447 59
-93 64 -105 67 -168 8 -127 -33 -310 -91 -407 -44 -74 -116 -156 -207 -237
-52 -45 -99 -83 -105 -83 -7 0 -23 44 -38 98 -50 192 -143 411 -232 547 l-45
69 19 60 c43 130 61 262 86 626 19 261 36 388 71 520 48 185 153 354 275 446
64 48 159 104 177 104 7 0 -9 -26 -36 -57z m3367 26 c244 -138 373 -356 425
-718 9 -58 25 -229 36 -379 24 -335 43 -461 85 -586 l15 -43 -45 -69 c-89
-135 -182 -355 -232 -546 -15 -54 -31 -98 -37 -98 -21 0 -196 161 -250 231
-106 135 -149 262 -150 449 l-1 115 63 100 c77 121 179 328 221 447 17 48 42
145 57 215 24 114 26 141 21 248 -13 244 -86 428 -239 608 -27 31 -44 57 -37
57 7 0 37 -14 68 -31z m-2414 -74 c268 -112 552 -185 715 -185 163 0 447 73
715 185 73 30 135 55 138 55 12 0 7 -83 -8 -149 -43 -182 -145 -314 -465 -601
-196 -176 -303 -284 -345 -347 -15 -24 -31 -43 -35 -43 -4 0 -20 19 -35 43
-42 63 -149 171 -345 347 -320 287 -422 419 -465 601 -15 66 -20 149 -8 149 3
0 65 -25 138 -55z m-2719 -110 c-3 -8 -1 -97 4 -199 13 -268 61 -483 165 -741
l35 -86 -21 -61 c-71 -211 -232 -384 -464 -500 -185 -93 -494 -168 -690 -168
l-67 0 87 92 c234 249 385 592 402 915 l6 101 68 47 c185 126 338 318 451 568
20 43 38 67 24 32z m6995 -227 c83 -143 211 -279 350 -374 l66 -46 6 -101 c17
-323 168 -666 402 -915 l87 -92 -67 0 c-138 0 -384 48 -545 106 -309 111 -524
309 -609 562 l-21 61 35 86 c104 258 152 473 165 741 5 102 7 192 4 202 -3 9
16 -23 41 -73 26 -49 65 -120 86 -157z m-3886 -462 c122 -107 217 -208 267
-283 23 -35 49 -63 58 -63 9 0 35 28 58 63 53 80 140 171 276 291 l108 96 30
-87 c33 -99 90 -203 186 -342 72 -104 92 -157 92 -241 0 -183 -119 -364 -425
-645 -71 -66 -174 -162 -227 -214 l-98 -95 -98 95 c-53 52 -156 148 -227 214
-306 281 -425 462 -425 645 0 87 20 134 111 270 94 140 149 245 176 337 20 71
7 75 138 -41z"/>
</g>
</svg>
