<?xml version="1.0" encoding="utf-8"?>
<svg version="1.1" x="0px" y="0px" viewBox="0 0 1122 1122" style="enable-background:new 0 0 1122 1122;" xmlns="http://www.w3.org/2000/svg">
  <g id="BG">
    <rect style="fill: rgb(255, 255, 255);" width="1122" height="1122"/>
  </g>
  <g id="Object">
    <g>
      <g>
        <g>
          <g>
            <path d="M313.315,679.089l-0.236-0.042l-188.806-33.292l0.042-0.236l33.291-188.806l0.236,0.042l188.806,33.292l-0.042,0.236 L313.315,679.089z M124.828,645.367l188.097,33.167l33.167-188.097l-188.097-33.167L124.828,645.367z"/>
          </g>
        </g>
        <g>
          <g>
            <path d="M163.532,683.011l-0.054-0.234l-43.127-186.805l187.038-43.181l0.054,0.234l43.128,186.805L163.532,683.011z M120.926,496.332l42.965,186.104l186.104-42.965l-42.966-186.104L120.926,496.332z"/>
          </g>
        </g>
        <g>
          <g>
            <path d="M214.227,701.965l-112.83-155.298l155.297-112.83l112.83,155.297L214.227,701.965z M102.067,546.774l112.266,154.521 l154.521-112.266L256.588,434.507L102.067,546.774z"/>
          </g>
        </g>
        <g>
          <g>
            <path d="M268.298,699.604l-0.205-0.123l-164.335-98.742l0.123-0.206l98.743-164.335l0.205,0.124l164.335,98.742l-0.123,0.206 L268.298,699.604z M104.416,600.575l163.718,98.372l98.372-163.718l-163.718-98.372L104.416,600.575z"/>
          </g>
        </g>
        <g>
          <g>
            <path d="M317.148,676.304l-0.238-0.033l-189.853-26.682l26.716-190.09l0.238,0.033l189.852,26.682L317.148,676.304z M127.6,649.18l189.14,26.582l26.582-189.14l-189.14-26.582L127.6,649.18z"/>
          </g>
        </g>
        <g>
          <g>
            <path d="M167.593,685.451l-0.062-0.232l-49.62-185.186l185.418-49.683l0.062,0.232l49.621,185.186L167.593,685.451z M118.498,500.373l49.434,184.491l184.491-49.434l-49.434-184.491L118.498,500.373z"/>
          </g>
        </g>
        <g>
          <g>
            <path d="M218.919,702.625l-0.148-0.189L100.737,551.359l0.189-0.148l151.076-118.034l0.147,0.189l118.034,151.076l-0.189,0.148 L218.919,702.625z M101.411,551.442l117.591,150.509L369.51,584.36L251.92,433.851L101.411,551.442z"/>
          </g>
        </g>
        <g>
          <g>
            <path d="M272.874,698.378l-0.21-0.116l-167.681-92.947l0.116-0.21l92.948-167.681l0.209,0.116l167.681,92.947l-0.116,0.21 L272.874,698.378z M105.636,605.128l167.051,92.598l92.599-167.051l-167.052-92.598L105.636,605.128z"/>
          </g>
        </g>
        <g>
          <g>
            <path d="M320.881,673.387l-0.238-0.025l-190.668-20.04l0.025-0.239l20.04-190.668l0.238,0.025l190.668,20.04l-0.025,0.239 L320.881,673.387z M130.502,652.895l189.953,19.965l19.965-189.952l-189.953-19.965L130.502,652.895z"/>
          </g>
        </g>
        <g>
          <g>
            <path d="M171.737,687.748l-0.07-0.229l-56.053-183.341l0.229-0.07l183.341-56.053l0.07,0.229l56.053,183.341l-0.229,0.07 L171.737,687.748z M116.213,504.496l55.842,182.653l182.653-55.843l-55.842-182.653L116.213,504.496z"/>
          </g>
        </g>
        <g>
          <g>
            <path d="M223.63,703.12l-0.154-0.184L100.242,556.071l0.184-0.154l146.865-123.234l0.154,0.184l123.234,146.865l-0.184,0.154 L223.63,703.12z M100.918,556.13L223.69,702.444l146.314-122.772L247.232,433.359L100.918,556.13z"/>
          </g>
        </g>
        <g>
          <g>
            <path d="M277.405,696.993l-171.036-87.147l87.148-171.036l171.036,87.147L277.405,696.993z M107.014,609.636l170.181,86.712 l86.712-170.181l-170.181-86.712L107.014,609.636z"/>
          </g>
        </g>
        <g>
          <g>
            <path d="M324.511,670.342l-191.491-13.39l0.017-0.24l13.373-191.251l191.491,13.391l-0.017,0.239L324.511,670.342z M133.532,656.506l190.534,13.323l13.323-190.534l-190.533-13.323L133.532,656.506z"/>
          </g>
        </g>
        <g>
          <g>
            <path d="M175.958,689.899l-0.078-0.227l-62.418-181.273l181.5-62.495l0.078,0.227l62.418,181.273L175.958,689.899z M114.072,508.696l62.183,180.593l180.593-62.183l-62.183-180.593L114.072,508.696z"/>
          </g>
        </g>
        <g>
          <g>
            <path d="M228.357,703.45l-0.16-0.178L99.912,560.797l142.653-128.445l0.16,0.178L371.01,575.005L228.357,703.45z M100.589,560.833l127.803,141.94l141.94-127.803L242.529,433.03L100.589,560.833z"/>
          </g>
        </g>
        <g>
          <g>
            <path d="M281.885,695.45l-0.218-0.102l-173.756-81.023l81.125-173.973l0.217,0.101l173.756,81.024L281.885,695.45z M108.549,614.093l173.103,80.72l80.72-173.104l-173.104-80.72L108.549,614.093z"/>
          </g>
        </g>
        <g>
          <g>
            <path d="M328.032,667.172l-0.24-0.008l-191.602-6.691l0.008-0.24l6.691-191.602l0.24,0.008l191.602,6.691l-0.008,0.24 L328.032,667.172z M136.686,660.01l190.883,6.666l6.665-190.883l-190.883-6.666L136.686,660.01z"/>
          </g>
        </g>
        <g>
          <g>
            <path d="M180.252,691.901l-0.086-0.224L111.46,512.693l0.224-0.086l178.985-68.706l0.086,0.224l68.706,178.985l-0.224,0.086 L180.252,691.901z M112.08,512.969l68.448,178.313l178.313-68.448l-68.448-178.313L112.08,512.969z"/>
          </g>
        </g>
        <g>
          <g>
            <path d="M233.092,703.616l-0.167-0.172L99.746,565.532l0.173-0.167l137.91-133.179l0.167,0.173L371.175,570.27l-0.173,0.167 L233.092,703.616z M100.425,565.544l132.679,137.393l137.393-132.679L237.818,432.865L100.425,565.544z"/>
          </g>
        </g>
        <g>
          <g>
            <path d="M286.308,693.753l-176.699-75.004l75.004-176.699l176.699,75.004l-0.094,0.221L286.308,693.753z M110.239,618.494 l175.815,74.629l74.629-175.815l-175.815-74.629L110.239,618.494z"/>
          </g>
        </g>
        <g>
          <g>
            <path d="M331.44,663.88H139.481V471.922H331.44V663.88z M139.961,663.401H330.96V472.402H139.961V663.401z"/>
          </g>
        </g>
      </g>
      <g>
        <g>
          <g>
            <path d="M1015.109,1011.109l-222.626-59.652l162.974-162.974l0.159,0.59L1015.109,1011.109z M793.846,951.091l220.265,59.02 l-59.02-220.264L793.846,951.091z"/>
          </g>
        </g>
        <g>
          <g>
            <path d="M1009.13,1016.782L789.932,945.56l171.279-154.221l0.128,0.598L1009.13,1016.782z M791.313,945.266l216.873,70.466 l-47.411-223.051L791.313,945.266z"/>
          </g>
        </g>
        <g>
          <g>
            <path d="M1002.863,1022.135l-0.57-0.219l-214.601-82.378l179.116-145.045l0.096,0.604L1002.863,1022.135z M789.086,939.317 l212.889,81.72l-35.673-225.227L789.086,939.317z"/>
          </g>
        </g>
        <g>
          <g>
            <path d="M996.325,1027.152l-0.558-0.249l-209.995-93.496l186.462-135.473l0.063,0.608L996.325,1027.152z M787.176,933.26 l208.319,92.75L971.66,799.224L787.176,933.26z"/>
          </g>
        </g>
        <g>
          <g>
            <path d="M989.533,1031.82l-0.545-0.278L784.174,927.184l193.297-125.528l0.032,0.611L989.533,1031.82z M785.585,927.11 l203.18,103.525L976.83,802.914L785.585,927.11z"/>
          </g>
        </g>
        <g>
          <g>
            <path d="M982.506,1036.126l-199.601-115.24l199.601-115.24V1036.126z M784.316,920.886L981.8,1034.903V806.869L784.316,920.886 z"/>
          </g>
        </g>
        <g>
          <g>
            <path d="M975.263,1040.058L781.967,914.53l0.545-0.278l204.814-104.358l-0.032,0.61L975.263,1040.058z M783.377,914.604 l191.245,124.196l11.934-227.722L783.377,914.604z"/>
          </g>
        </g>
        <g>
          <g>
            <path d="M967.825,1043.607L781.363,908.134l210.554-93.744l-0.064,0.608L967.825,1043.607z M782.766,908.282l184.484,134.036 l23.836-226.785L782.766,908.282z"/>
          </g>
        </g>
        <g>
          <g>
            <path d="M960.21,1046.761L781.095,901.715l215.171-82.596l-0.095,0.604L960.21,1046.761z M782.488,901.936l177.216,143.507 l35.673-225.227L782.488,901.936z"/>
          </g>
        </g>
        <g>
          <g>
            <path d="M952.441,1049.512l-171.28-154.221l0.582-0.189l218.617-71.033l-0.127,0.598L952.441,1049.512z M782.543,895.584 l169.462,152.585l47.411-223.051L782.543,895.584z"/>
          </g>
        </g>
        <g>
          <g>
            <path d="M944.539,1051.852L781.565,888.879l222.626-59.653l-0.158,0.59L944.539,1051.852z M782.929,889.244l161.245,161.245 l59.02-220.265L782.929,889.244z"/>
          </g>
        </g>
        <g>
          <g>
            <path d="M936.525,1053.776l-0.409-0.454L782.304,882.497l0.598-0.127l224.845-47.792L936.525,1053.776z M783.647,882.933 l152.585,169.462l70.467-216.873L783.647,882.933z"/>
          </g>
        </g>
        <g>
          <g>
            <path d="M928.422,1055.278l-0.385-0.475L783.376,876.162l227.642-36.055L928.422,1055.278z M784.694,876.668l143.507,177.216 l81.72-212.888L784.694,876.668z"/>
          </g>
        </g>
        <g>
          <g>
            <path d="M920.251,1056.354l-0.359-0.495L784.779,869.892l229.216-24.092l-0.248,0.558L920.251,1056.354z M786.068,870.466 l134.035,184.484l92.75-208.32L786.068,870.466z"/>
          </g>
        </g>
        <g>
          <g>
            <path d="M912.035,1057L786.507,863.704l230.163-12.062l-0.278,0.545L912.035,1057z M787.764,864.345l124.196,191.246 l103.526-203.18L787.764,864.345z"/>
          </g>
        </g>
        <g>
          <g>
            <path d="M903.796,1057.217l-0.305-0.529L788.556,857.615h230.48l-0.306,0.529L903.796,1057.217z M789.778,858.321 l114.018,197.484l114.017-197.484H789.778z"/>
          </g>
        </g>
        <g>
          <g>
            <path d="M895.557,1057l-0.277-0.544L790.921,851.642l230.164,12.062L895.557,1057z M792.106,852.411l103.526,203.18 l124.197-191.246L792.106,852.411z"/>
          </g>
        </g>
        <g>
          <g>
            <path d="M887.341,1056.354L793.596,845.8l229.217,24.092l-0.359,0.495L887.341,1056.354z M794.738,846.63l92.75,208.32 l134.036-184.484L794.738,846.63z"/>
          </g>
        </g>
        <g>
          <g>
            <path d="M879.17,1055.278l-82.597-215.171l227.642,36.055L879.17,1055.278z M797.67,840.995l81.72,212.888l143.507-177.216 L797.67,840.995z"/>
          </g>
        </g>
        <g>
          <g>
            <path d="M871.066,1053.776l-71.222-219.199l0.598,0.127l224.845,47.792l-0.409,0.454L871.066,1053.776z M800.894,835.522 l70.466,216.873l152.585-169.462L800.894,835.522z"/>
          </g>
        </g>
        <g>
          <g>
            <path d="M863.052,1051.852l-0.159-0.59L803.4,829.226l222.626,59.653L863.052,1051.852z M804.398,830.224l59.02,220.265 l161.245-161.245L804.398,830.224z"/>
          </g>
        </g>
        <g>
          <g>
            <path d="M855.151,1049.512l-0.128-0.598l-47.792-224.845l219.199,71.222L855.151,1049.512z M808.176,825.118l47.411,223.051 l169.462-152.585L808.176,825.118z"/>
          </g>
        </g>
        <g>
          <g>
            <path d="M847.382,1046.761l-0.096-0.604l-35.959-227.038l0.57,0.219l214.601,82.378l-0.475,0.385L847.382,1046.761z M812.215,820.216l35.673,225.227l177.216-143.507L812.215,820.216z"/>
          </g>
        </g>
        <g>
          <g>
            <path d="M839.767,1043.607l-0.064-0.608L815.675,814.39l210.554,93.744l-0.494,0.36L839.767,1043.607z M816.505,815.532 l23.836,226.785l184.484-134.036L816.505,815.532z"/>
          </g>
        </g>
        <g>
          <g>
            <path d="M832.328,1040.058l-0.032-0.61l-12.031-229.553l205.359,104.636L832.328,1040.058z M821.035,811.079l11.934,227.722 l191.245-124.196L821.035,811.079z"/>
          </g>
        </g>
        <g>
          <g>
            <path d="M825.086,1036.126v-230.48l199.601,115.24L825.086,1036.126z M825.792,806.869v228.034l197.484-114.017 L825.792,806.869z"/>
          </g>
        </g>
        <g>
          <g>
            <path d="M818.058,1031.82l0.032-0.611l12.031-229.553l193.297,125.528l-0.545,0.278L818.058,1031.82z M830.762,802.914 l-11.935,227.722l203.18-103.525L830.762,802.914z"/>
          </g>
        </g>
        <g>
          <g>
            <path d="M811.266,1027.152l0.064-0.608l24.028-228.609l0.494,0.359l185.967,135.113L811.266,1027.152z M835.933,799.224 l-23.836,226.785l208.32-92.75L835.933,799.224z"/>
          </g>
        </g>
        <g>
          <g>
            <path d="M804.728,1022.135l0.095-0.604l35.959-227.038l179.116,145.045L804.728,1022.135z M841.289,795.811l-35.672,225.227 l212.889-81.72L841.289,795.811z"/>
          </g>
        </g>
        <g>
          <g>
            <path d="M798.461,1016.782l0.127-0.598l47.793-224.845L1017.66,945.56l-0.582,0.189L798.461,1016.782z M846.816,792.682 l-47.411,223.051l216.873-70.466L846.816,792.682z"/>
          </g>
        </g>
        <g>
          <g>
            <path d="M792.483,1011.109l0.158-0.59l59.494-222.036l162.974,162.974L792.483,1011.109z M852.5,789.846l-59.02,220.264 l220.265-59.02L852.5,789.846z"/>
          </g>
        </g>
      </g>
      <g>
        <g>
          <g>
            <path d="M246.072,230.961c-0.022,0-0.043-0.001-0.062-0.005L220.17,226.4c-0.112-0.02-0.28-0.126-0.345-0.219 c-0.065-0.093-0.108-0.286-0.088-0.398l4.556-25.841c0.02-0.112,0.126-0.279,0.219-0.344c0.093-0.065,0.285-0.108,0.398-0.089 c0,0,0,0,0,0l25.84,4.556c0.29,0.051,0.484,0.329,0.433,0.618l-4.556,25.841c-0.02,0.112-0.126,0.279-0.219,0.345 C246.331,230.923,246.184,230.961,246.072,230.961z M220.637,225.612l25.203,4.444l4.444-25.203l-25.202-4.444L220.637,225.612 z"/>
          </g>
        </g>
        <g>
          <g>
            <path d="M245.545,233.241c-0.047,0-0.095-0.006-0.142-0.019l-27.548-7.382c-0.289-0.077-0.461-0.375-0.384-0.664l7.382-27.55 c0.03-0.11,0.154-0.272,0.253-0.329c0.099-0.057,0.302-0.083,0.412-0.054l0,0l27.549,7.382 c0.289,0.077,0.461,0.375,0.384,0.664l-7.382,27.55c-0.03,0.11-0.154,0.273-0.253,0.33 C245.732,233.216,245.639,233.241,245.545,233.241z M218.381,225.094l26.941,7.219l7.219-26.941l-26.941-7.219L218.381,225.094 z M225.296,198.072c0,0,0.001,0,0.001,0L225.296,198.072L225.296,198.072z"/>
          </g>
        </g>
        <g>
          <g>
            <path d="M244.711,235.643c-0.066,0-0.131-0.008-0.176-0.024l-29.131-10.603c-0.107-0.039-0.264-0.183-0.312-0.286 c-0.062-0.134-0.069-0.284-0.018-0.423l10.603-29.131c0.039-0.107,0.182-0.263,0.285-0.312 c0.103-0.048,0.316-0.058,0.423-0.019l29.132,10.603c0.106,0.039,0.264,0.183,0.312,0.286c0.048,0.103,0.058,0.316,0.019,0.423 l-10.603,29.131c-0.039,0.107-0.183,0.264-0.286,0.312C244.899,235.628,244.803,235.643,244.711,235.643z M215.984,224.315 l28.558,10.394l10.394-28.558l-28.558-10.394L215.984,224.315z"/>
          </g>
        </g>
        <g>
          <g>
            <path d="M243.625,238.176c-0.094,0-0.193-0.015-0.253-0.043l-30.54-14.241c-0.281-0.131-0.404-0.467-0.273-0.748l14.241-30.54 c0.048-0.103,0.212-0.253,0.318-0.291c0.14-0.052,0.294-0.045,0.431,0.019l30.54,14.241c0.103,0.048,0.252,0.211,0.291,0.318 c0.039,0.107,0.03,0.328-0.019,0.431l-14.24,30.539c-0.048,0.103-0.211,0.252-0.318,0.291 C243.758,238.169,243.693,238.176,243.625,238.176z M213.461,223.24l30.006,13.992l13.993-30.006l-30.007-13.992 L213.461,223.24z"/>
          </g>
        </g>
        <g>
          <g>
            <path d="M242.163,240.824c-0.099,0-0.197-0.026-0.286-0.077l-31.72-18.314c-0.274-0.158-0.369-0.51-0.211-0.785l18.314-31.72 c0.16-0.275,0.512-0.369,0.786-0.21l31.719,18.313c0.275,0.159,0.369,0.511,0.211,0.785l-18.314,31.72 c-0.077,0.133-0.2,0.228-0.349,0.268C242.263,240.818,242.213,240.824,242.163,240.824z M210.83,221.832l31.23,18.031 l18.031-31.23l-31.231-18.031L210.83,221.832z M260.335,208.774h0.011H260.335z M228.616,190.46 C228.616,190.46,228.616,190.46,228.616,190.46C228.616,190.46,228.616,190.46,228.616,190.46z"/>
          </g>
        </g>
        <g>
          <g>
            <path d="M240.348,243.544c-0.12,0-0.237-0.037-0.337-0.107L207.4,220.602c-0.128-0.09-0.214-0.224-0.242-0.379 c-0.027-0.155,0.007-0.311,0.098-0.44l22.835-32.612c0.185-0.265,0.551-0.331,0.818-0.145c0,0,0,0,0.001,0l32.612,22.835 c0.265,0.186,0.33,0.553,0.145,0.818l-22.836,32.612c-0.09,0.129-0.225,0.215-0.38,0.242 C240.416,243.541,240.382,243.544,240.348,243.544z M240.503,242.734l0.001,0.001 C240.503,242.735,240.503,242.735,240.503,242.734z M208.113,220.055l32.17,22.526l22.526-32.17l-32.17-22.526L208.113,220.055 z M230.418,187.73C230.418,187.73,230.418,187.73,230.418,187.73L230.418,187.73L230.418,187.73z"/>
          </g>
        </g>
        <g>
          <g>
            <path d="M238.127,246.317c-0.136,0-0.273-0.046-0.386-0.14l-33.15-27.816c-0.123-0.103-0.199-0.248-0.212-0.408 c-0.014-0.16,0.035-0.316,0.138-0.439l27.816-33.149c0.103-0.123,0.249-0.199,0.409-0.213c0.159-0.014,0.316,0.035,0.438,0.139 l33.15,27.816c0.123,0.103,0.198,0.248,0.212,0.408c0.014,0.16-0.035,0.316-0.138,0.439l-27.816,33.149 C238.47,246.243,238.299,246.317,238.127,246.317z M205.338,217.868l32.757,27.487l27.487-32.757l-32.758-27.487 L205.338,217.868z M265.779,212.762h0.011H265.779z M232.629,184.946c0,0.001,0.001,0.001,0.001,0.001L232.629,184.946 C232.629,184.946,232.629,184.946,232.629,184.946z"/>
          </g>
        </g>
        <g>
          <g>
            <path d="M235.461,249.109c-0.165,0-0.32-0.065-0.437-0.182l-33.259-33.259c-0.117-0.117-0.181-0.271-0.181-0.436 c0-0.165,0.064-0.319,0.181-0.436l33.26-33.26c0.232-0.232,0.639-0.233,0.872,0l33.26,33.26 c0.116,0.117,0.181,0.271,0.181,0.436c0,0.165-0.064,0.32-0.181,0.436l-33.26,33.26 C235.781,249.045,235.626,249.109,235.461,249.109z M202.542,215.232l32.919,32.919l32.919-32.919l-32.919-32.919 L202.542,215.232z M268.55,215.403h0.01H268.55z"/>
          </g>
        </g>
        <g>
          <g>
            <path d="M232.311,251.88c-0.019,0-0.038-0.001-0.057-0.003c-0.168-0.015-0.321-0.094-0.429-0.224l-32.864-39.165 c-0.224-0.268-0.189-0.668,0.078-0.892l39.165-32.863c0.13-0.109,0.298-0.16,0.463-0.146c0.168,0.015,0.321,0.094,0.429,0.224 l32.864,39.165c0.224,0.267,0.189,0.667-0.078,0.891l-39.166,32.864C232.602,251.828,232.459,251.88,232.311,251.88z M199.763,212.109l32.575,38.821l38.821-32.575l-32.575-38.821L199.763,212.109z M271.303,218.528h0.011H271.303z M238.439,179.362c0,0,0.001,0.001,0.001,0.001L238.439,179.362C238.44,179.363,238.439,179.362,238.439,179.362z"/>
          </g>
        </g>
        <g>
          <g>
            <path d="M228.638,254.582c-0.038,0-0.076-0.003-0.115-0.01c-0.171-0.03-0.32-0.125-0.42-0.268l-31.875-45.522 c-0.1-0.142-0.138-0.315-0.108-0.486c0.03-0.171,0.125-0.32,0.267-0.42l45.522-31.875c0.142-0.1,0.315-0.138,0.486-0.108 c0.171,0.03,0.321,0.125,0.42,0.268l31.875,45.522c0.1,0.143,0.138,0.315,0.108,0.487c-0.03,0.171-0.125,0.32-0.268,0.42 l-45.521,31.875C228.9,254.542,228.771,254.582,228.638,254.582z M197.05,208.46l31.638,45.184l45.184-31.638l-31.638-45.183 L197.05,208.46z M273.99,222.175h0.011H273.99z M242.115,176.652C242.115,176.653,242.115,176.653,242.115,176.652 L242.115,176.652L242.115,176.652z"/>
          </g>
        </g>
        <g>
          <g>
            <path d="M224.407,257.16c-0.058,0-0.117-0.008-0.174-0.023c-0.173-0.046-0.317-0.157-0.407-0.312l-30.202-52.312 c-0.185-0.32-0.075-0.731,0.245-0.915l52.312-30.202c0.155-0.089,0.337-0.113,0.508-0.067c0.173,0.046,0.317,0.157,0.407,0.312 l30.202,52.312c0.185,0.32,0.074,0.731-0.245,0.915l-52.312,30.202C224.638,257.13,224.523,257.16,224.407,257.16z M194.459,204.246l30.015,51.987l51.988-30.015l-30.015-51.987L194.459,204.246z M276.555,226.381h0.011H276.555z M246.353,174.069C246.353,174.069,246.353,174.069,246.353,174.069L246.353,174.069L246.353,174.069z M246.353,174.069 L246.353,174.069L246.353,174.069z"/>
          </g>
        </g>
        <g>
          <g>
            <path d="M219.582,259.551c-0.08,0-0.16-0.014-0.237-0.042c-0.173-0.063-0.312-0.19-0.39-0.357l-27.748-59.506 c-0.161-0.346-0.011-0.757,0.334-0.918l59.506-27.748c0.168-0.078,0.356-0.086,0.529-0.023c0.174,0.063,0.312,0.19,0.39,0.358 l27.748,59.505c0.161,0.346,0.011,0.757-0.334,0.918l-59.505,27.748C219.781,259.529,219.682,259.551,219.582,259.551z M192.055,199.434l27.607,59.204l59.204-27.607l-27.607-59.204L192.055,199.434z M278.937,231.182h0.011H278.937z M251.188,171.676c0,0.001,0.001,0.001,0.001,0.002L251.188,171.676C251.188,171.676,251.188,171.676,251.188,171.676z"/>
          </g>
        </g>
        <g>
          <g>
            <path d="M214.133,261.683c-0.103,0-0.205-0.023-0.301-0.067c-0.173-0.081-0.304-0.224-0.369-0.403l-24.409-67.062 c-0.065-0.179-0.057-0.373,0.023-0.545c0.081-0.173,0.224-0.304,0.403-0.369l67.063-24.409 c0.179-0.065,0.373-0.057,0.546,0.024c0.173,0.081,0.304,0.224,0.369,0.403l24.409,67.063c0.134,0.37-0.057,0.78-0.426,0.915 l-67.063,24.409C214.298,261.668,214.216,261.683,214.133,261.683z M189.909,193.992l24.31,66.793l66.793-24.311l-24.31-66.793 L189.909,193.992z M281.061,236.609h0.011H281.061z M256.652,169.546c0,0.001,0.001,0.001,0.001,0.002L256.652,169.546 C256.652,169.546,256.652,169.546,256.652,169.546z"/>
          </g>
        </g>
        <g>
          <g>
            <path d="M208.035,263.475c-0.326,0-0.625-0.218-0.714-0.547l-20.078-74.93c-0.105-0.394,0.13-0.799,0.523-0.904l74.929-20.077 c0.191-0.051,0.389-0.025,0.56,0.074c0.171,0.098,0.293,0.258,0.344,0.448l20.078,74.929c0.105,0.394-0.129,0.799-0.522,0.905 l-74.93,20.077C208.162,263.466,208.098,263.475,208.035,263.475z M188.103,187.891l20.016,74.7l74.7-20.016l-20.016-74.699 L188.103,187.891z M282.849,242.689h0.011H282.849z"/>
          </g>
        </g>
        <g>
          <g>
            <path d="M201.263,264.837c-0.364,0-0.688-0.262-0.753-0.633l-14.642-83.037c-0.073-0.415,0.205-0.813,0.62-0.887l83.038-14.642 c0.417-0.074,0.813,0.205,0.887,0.621v0l14.642,83.037c0.036,0.201-0.009,0.404-0.127,0.572 c-0.117,0.168-0.293,0.28-0.495,0.315l-83.037,14.641C201.351,264.834,201.307,264.837,201.263,264.837z M186.728,181.109 l14.61,82.856l82.855-14.61L269.584,166.5L186.728,181.109z"/>
          </g>
        </g>
        <g>
          <g>
            <path d="M193.802,265.672c-0.186,0-0.365-0.065-0.509-0.186c-0.163-0.137-0.263-0.328-0.281-0.54l-7.988-91.301 c-0.038-0.437,0.286-0.823,0.722-0.861l91.301-7.988c0.21-0.018,0.417,0.046,0.58,0.183c0.163,0.137,0.263,0.328,0.281,0.54 l7.988,91.301c0.038,0.437-0.286,0.823-0.722,0.861l-91.301,7.988C193.85,265.671,193.826,265.672,193.802,265.672z M277.061,165.656l-91.239,7.982l8.045,91.233l91.234-8.045L277.061,165.656z"/>
          </g>
        </g>
        <g>
          <g>
            <path d="M285.27,265.869h-99.62c-0.455,0-0.826-0.371-0.826-0.826v-99.62c0-0.456,0.371-0.827,0.826-0.827h99.62 c0.456,0,0.827,0.371,0.827,0.827v99.62C286.097,265.498,285.726,265.869,285.27,265.869z M185.651,165.454l0.031,99.589 l99.589-0.031l-0.031-99.558H185.651z"/>
          </g>
        </g>
        <g>
          <g>
            <path d="M284.677,274.748c-0.025,0-0.05-0.001-0.076-0.003l-107.87-9.437c-0.473-0.042-0.824-0.46-0.783-0.933l9.438-107.871 c0.041-0.473,0.462-0.824,0.933-0.783l107.87,9.437c0.473,0.042,0.824,0.46,0.783,0.933c0,0,0,0,0,0l-9.437,107.87 C285.495,274.409,285.119,274.748,284.677,274.748z M186.245,156.575l-9.442,107.873l107.873,9.441l9.442-107.874v0 c0-0.002-0.002-0.004-0.004-0.004L186.245,156.575z M294.545,166.054h0.011H294.545z"/>
          </g>
        </g>
        <g>
          <g>
            <path d="M283.198,284.306c-0.053,0-0.105-0.005-0.158-0.014l-115.91-20.438c-0.236-0.042-0.442-0.173-0.58-0.37 c-0.138-0.197-0.19-0.435-0.148-0.672l20.438-115.91c0.086-0.488,0.553-0.817,1.041-0.729l115.91,20.438 c0.237,0.042,0.443,0.173,0.58,0.37c0.138,0.197,0.19,0.435,0.149,0.672l-20.438,115.91c-0.041,0.236-0.172,0.442-0.369,0.58 C283.559,284.25,283.381,284.306,283.198,284.306z M187.732,147.018l-20.486,115.943l115.943,20.486l20.486-115.944v0 c0.004-0.019-0.014-0.044-0.033-0.048L187.732,147.018z"/>
          </g>
        </g>
        <g>
          <g>
            <path d="M280.693,294.515c-0.082,0-0.164-0.011-0.245-0.033l-123.573-33.111c-0.243-0.065-0.445-0.22-0.571-0.438 c-0.125-0.217-0.159-0.471-0.094-0.713l33.111-123.573c0.065-0.242,0.22-0.445,0.438-0.57c0.218-0.126,0.472-0.158,0.713-0.094 l123.574,33.112c0.242,0.065,0.445,0.22,0.571,0.438c0.125,0.217,0.159,0.471,0.094,0.713l-33.112,123.573 c-0.065,0.242-0.22,0.445-0.438,0.571C281.017,294.473,280.856,294.515,280.693,294.515z M190.236,136.809 c-0.035,0-0.076,0.027-0.085,0.06l-33.111,123.574c-0.01,0.037,0.02,0.091,0.058,0.101l123.574,33.112 c0.039,0.009,0.09-0.021,0.1-0.058l33.111-123.573c0.01-0.037-0.02-0.091-0.058-0.101l-123.574-33.111 C190.246,136.809,190.241,136.809,190.236,136.809z"/>
          </g>
        </g>
        <g>
          <g>
            <path d="M277.014,305.332c-0.111,0-0.224-0.019-0.335-0.059l-130.671-47.561c-0.51-0.186-0.774-0.751-0.588-1.261 l47.56-130.671c0.09-0.247,0.271-0.444,0.509-0.555c0.237-0.111,0.505-0.123,0.752-0.033l130.671,47.56 c0.51,0.186,0.774,0.752,0.588,1.261v0l-47.56,130.671C277.795,305.084,277.417,305.332,277.014,305.332z M193.916,125.993 c-0.052,0-0.113,0.035-0.13,0.081l-47.561,130.671c-0.024,0.065,0.01,0.138,0.076,0.162l130.671,47.561 c0.067,0.025,0.139-0.01,0.162-0.076l47.56-130.671v0c0.024-0.066-0.01-0.138-0.076-0.162l-130.671-47.56 C193.939,125.994,193.928,125.993,193.916,125.993z M325.098,173.867h0.011H325.098z"/>
          </g>
        </g>
        <g>
          <g>
            <path d="M272.014,316.698c-0.146,0-0.294-0.031-0.435-0.097l-136.988-63.878c-0.516-0.241-0.74-0.856-0.5-1.372l63.878-136.988 c0.24-0.516,0.855-0.74,1.372-0.499l136.988,63.878c0.25,0.116,0.439,0.323,0.534,0.583c0.094,0.259,0.082,0.539-0.034,0.789 l-63.878,136.988C272.776,316.477,272.403,316.698,272.014,316.698z M198.906,114.625c-0.066,0-0.129,0.037-0.159,0.101 l-63.878,136.987c-0.04,0.087-0.002,0.192,0.085,0.233l136.987,63.878c0.087,0.041,0.192,0.003,0.233-0.085l63.878-136.988l0,0 c0.035-0.075-0.01-0.197-0.085-0.232L198.98,114.641C198.956,114.63,198.931,114.625,198.906,114.625z"/>
          </g>
        </g>
        <g>
          <g>
            <path d="M265.527,328.532c-0.188,0-0.374-0.049-0.541-0.146L122.704,246.24c-0.518-0.299-0.696-0.964-0.397-1.482 l82.146-142.282c0.144-0.251,0.378-0.43,0.658-0.505c0.279-0.075,0.572-0.037,0.823,0.108l142.281,82.146 c0.251,0.145,0.431,0.379,0.506,0.659c0.075,0.28,0.037,0.572-0.109,0.823l-82.146,142.281 c-0.144,0.251-0.378,0.431-0.658,0.506C265.716,328.52,265.621,328.532,265.527,328.532z M205.41,102.798 c-0.084,0-0.176,0.041-0.214,0.106L123.05,245.186c-0.063,0.109-0.025,0.248,0.083,0.311l142.282,82.146 c0.052,0.03,0.114,0.038,0.172,0.023c0.059-0.016,0.108-0.053,0.138-0.106l82.147-142.282c0,0,0,0,0,0 c0.03-0.053,0.038-0.114,0.023-0.172c-0.016-0.059-0.053-0.108-0.106-0.138l-142.282-82.146 C205.479,102.806,205.445,102.798,205.41,102.798z"/>
          </g>
        </g>
        <g>
          <g>
            <path d="M257.385,340.731c-0.232,0-0.458-0.071-0.653-0.207L110.449,238.095c-0.25-0.175-0.416-0.437-0.469-0.737 c-0.053-0.301,0.014-0.604,0.189-0.854L212.598,90.222c0.175-0.25,0.437-0.417,0.737-0.47c0.299-0.053,0.603,0.014,0.853,0.189 L360.472,192.37c0.25,0.175,0.417,0.437,0.47,0.737c0.053,0.3-0.014,0.604-0.189,0.854L258.323,340.244 c-0.175,0.25-0.437,0.417-0.737,0.47C257.519,340.725,257.452,340.731,257.385,340.731z M213.534,90.592 c-0.017,0-0.033,0.001-0.05,0.005c-0.075,0.013-0.14,0.055-0.184,0.117L110.872,236.997c-0.044,0.062-0.06,0.138-0.047,0.212 s0.055,0.14,0.117,0.184l146.283,102.429c0.062,0.043,0.137,0.06,0.212,0.047c0.075-0.013,0.14-0.055,0.184-0.117 L360.05,193.469v0c0.044-0.062,0.06-0.137,0.047-0.212c-0.013-0.075-0.055-0.14-0.117-0.184L213.696,90.644 C213.648,90.61,213.592,90.592,213.534,90.592z"/>
          </g>
        </g>
        <g>
          <g>
            <path d="M247.421,353.169c-0.283,0-0.553-0.098-0.772-0.282L97.954,228.117c-0.508-0.427-0.575-1.188-0.148-1.696 l124.77-148.695c0.427-0.508,1.188-0.576,1.696-0.148l148.695,124.77c0.508,0.427,0.574,1.187,0.148,1.696c0,0,0,0,0,0 l-124.77,148.695c-0.207,0.246-0.497,0.398-0.818,0.426C247.492,353.168,247.456,353.169,247.421,353.169z M223.498,78.154 c-0.099,0-0.197,0.042-0.266,0.124L98.463,226.973c-0.123,0.146-0.104,0.365,0.043,0.488l148.695,124.77 c0.071,0.059,0.156,0.087,0.253,0.08c0.092-0.008,0.176-0.052,0.235-0.123l124.77-148.695c0.123-0.146,0.103-0.366-0.043-0.488 L223.721,78.235C223.656,78.18,223.577,78.154,223.498,78.154z M372.787,203.768h0.011H372.787z"/>
          </g>
        </g>
        <g>
          <g>
            <path d="M235.461,365.694c-0.339,0-0.659-0.133-0.899-0.373l-149.19-149.19c-0.495-0.496-0.495-1.303,0-1.798l149.19-149.19 c0.48-0.48,1.318-0.48,1.798,0l149.19,149.19c0.496,0.496,0.496,1.302,0,1.798l-0.303-0.303l0.303,0.303l-149.19,149.19 C236.12,365.562,235.8,365.694,235.461,365.694z M235.461,65.629c-0.111,0-0.214,0.043-0.293,0.121L85.978,214.94 c-0.078,0.078-0.121,0.182-0.121,0.293c0,0.111,0.043,0.215,0.121,0.293l149.19,149.19c0.156,0.156,0.429,0.156,0.585,0 l149.19-149.19c0.078-0.078,0.121-0.182,0.121-0.293c0-0.111-0.043-0.214-0.121-0.293L235.753,65.75 C235.675,65.672,235.571,65.629,235.461,65.629z"/>
          </g>
        </g>
      </g>
      <g>
        <g>
          <g>
            <path d="M563.17,233.161c-0.103,0-0.202-0.045-0.27-0.126l-12.037-14.323c-0.081-0.097-0.105-0.23-0.061-0.348l6.412-17.576 c0.043-0.118,0.146-0.205,0.27-0.227l18.449-3.253c0.123-0.022,0.25,0.024,0.332,0.121l12.037,14.323 c0.081,0.097,0.105,0.23,0.061,0.348l-6.413,17.576c-0.043,0.118-0.146,0.205-0.27,0.227l-18.449,3.253 C563.211,233.16,563.19,233.161,563.17,233.161z M551.535,218.415l11.775,14.011l18.048-3.182l6.273-17.193l-11.775-14.011 l-18.048,3.183L551.535,218.415z"/>
          </g>
        </g>
        <g>
          <g>
            <path d="M561.157,233.617c-0.114,0-0.223-0.056-0.289-0.15l-11.429-16.295c-0.073-0.104-0.084-0.238-0.031-0.352l8.426-18.032 c0.053-0.114,0.164-0.191,0.289-0.202l19.854-1.737c0.126-0.01,0.247,0.046,0.32,0.149l11.428,16.295 c0.073,0.104,0.084,0.238,0.031,0.352l-8.425,18.032c-0.053,0.114-0.164,0.191-0.289,0.202l-19.854,1.737 C561.178,233.617,561.168,233.617,561.157,233.617z M550.135,216.934l11.195,15.961l19.448-1.701l8.253-17.663l-11.194-15.961 l-19.449,1.702L550.135,216.934z"/>
          </g>
        </g>
        <g>
          <g>
            <path d="M580.184,233.914h-21.202c-0.126,0-0.242-0.067-0.305-0.176l-10.601-18.329c-0.063-0.109-0.063-0.244,0-0.353 l10.601-18.329c0.063-0.109,0.179-0.176,0.305-0.176h21.202c0.126,0,0.242,0.067,0.305,0.176l10.601,18.329 c0.063,0.109,0.063,0.244,0,0.353l-10.601,18.329C580.426,233.847,580.31,233.914,580.184,233.914z M559.185,233.208h20.795 l10.397-17.976l-10.397-17.976h-20.795l-10.397,17.976L559.185,233.208z"/>
          </g>
        </g>
        <g>
          <g>
            <path d="M579.118,235.993c-0.01,0-0.02-0.001-0.031-0.001l-22.469-1.966c-0.125-0.011-0.236-0.088-0.289-0.202l-9.536-20.407 c-0.053-0.114-0.042-0.249,0.031-0.352l12.934-18.441c0.072-0.103,0.197-0.158,0.32-0.149l22.469,1.966 c0.125,0.011,0.236,0.088,0.289,0.202l9.536,20.407c0.053,0.114,0.042,0.249-0.031,0.352l-12.934,18.441 C579.341,235.937,579.232,235.993,579.118,235.993z M556.882,233.34l22.064,1.93l12.7-18.108l-9.363-20.038l-22.064-1.93 l-12.7,18.108L556.882,233.34z"/>
          </g>
        </g>
        <g>
          <g>
            <path d="M577.796,238.097c-0.02,0-0.041-0.002-0.061-0.005l-23.631-4.167c-0.124-0.022-0.227-0.108-0.27-0.227l-8.213-22.511 c-0.043-0.119-0.02-0.252,0.061-0.348l15.417-18.345c0.081-0.097,0.205-0.143,0.332-0.121l23.631,4.167 c0.124,0.022,0.227,0.108,0.27,0.227l8.213,22.512c0.043,0.118,0.02,0.251-0.061,0.348l-15.417,18.345 C577.998,238.052,577.899,238.097,577.796,238.097z M554.427,233.265l23.23,4.096l15.155-18.033l-8.074-22.128l-23.23-4.096 l-15.155,18.033L554.427,233.265z"/>
          </g>
        </g>
        <g>
          <g>
            <path d="M576.199,240.204c-0.03,0-0.061-0.004-0.091-0.012l-24.657-6.607c-0.122-0.033-0.217-0.128-0.249-0.249l-6.617-24.619 c-0.033-0.122,0.002-0.252,0.092-0.341l18.04-18.012c0.089-0.089,0.218-0.124,0.341-0.091l24.657,6.607 c0.122,0.033,0.217,0.128,0.25,0.249l6.617,24.619c0.033,0.122-0.002,0.252-0.091,0.342l-18.04,18.012 C576.382,240.168,576.292,240.204,576.199,240.204z M551.831,232.957l24.263,6.501l17.752-17.724l-6.511-24.225l-24.263-6.501 l-17.752,17.724L551.831,232.957z"/>
          </g>
        </g>
        <g>
          <g>
            <path d="M574.313,242.29c-0.041,0-0.081-0.007-0.121-0.021l-25.518-9.288c-0.118-0.043-0.205-0.146-0.227-0.27l-4.73-26.704 c-0.022-0.124,0.024-0.251,0.121-0.332l20.789-17.416c0.097-0.081,0.229-0.104,0.347-0.061l25.518,9.288 c0.118,0.043,0.205,0.146,0.227,0.27l4.73,26.704c0.022,0.124-0.024,0.251-0.121,0.332l-20.789,17.416 C574.474,242.261,574.394,242.29,574.313,242.29z M549.106,232.387l25.136,9.149l20.476-17.154l-4.659-26.303l-25.136-9.149 l-20.476,17.154L549.106,232.387z"/>
          </g>
        </g>
        <g>
          <g>
            <path d="M572.119,244.325c-0.051,0-0.102-0.011-0.149-0.033l-26.183-12.209c-0.114-0.053-0.191-0.163-0.202-0.289 l-2.537-28.739c-0.011-0.126,0.046-0.248,0.149-0.32l23.646-16.53c0.103-0.072,0.237-0.084,0.352-0.031l26.183,12.209 c0.114,0.053,0.191,0.163,0.202,0.289l2.537,28.739c0.011,0.126-0.046,0.248-0.149,0.32l-23.646,16.53 C572.261,244.303,572.19,244.325,572.119,244.325z M546.27,231.529l25.814,12.037l23.312-16.296l-2.501-28.333l-25.814-12.037 l-23.312,16.297L546.27,231.529z"/>
          </g>
        </g>
        <g>
          <g>
            <path d="M569.606,246.278c-0.061,0-0.122-0.016-0.176-0.047l-26.616-15.367c-0.109-0.063-0.177-0.18-0.177-0.305l-0.024-30.692 c0-0.126,0.067-0.243,0.177-0.306l26.592-15.326c0.109-0.063,0.244-0.063,0.353,0l26.616,15.367 c0.109,0.063,0.177,0.18,0.177,0.305l0.024,30.692c0,0.126-0.067,0.243-0.177,0.306l-26.592,15.326 C569.728,246.262,569.667,246.278,569.606,246.278z M543.343,230.354l26.263,15.163l26.239-15.122l-0.024-30.285 l-26.263-15.163L543.32,200.07L543.343,230.354z"/>
          </g>
        </g>
        <g>
          <g>
            <path d="M566.762,248.115c-0.071,0-0.142-0.021-0.202-0.064l-26.783-18.753c-0.103-0.073-0.16-0.194-0.149-0.32l2.821-32.529 c0.011-0.126,0.088-0.236,0.203-0.29l29.603-13.776c0.115-0.053,0.248-0.041,0.351,0.031l26.782,18.753 c0.103,0.072,0.16,0.194,0.149,0.32l-2.821,32.529c-0.011,0.126-0.088,0.236-0.203,0.29l-29.603,13.776 C566.864,248.104,566.813,248.115,566.762,248.115z M540.349,228.837l26.449,18.52l29.234-13.604l2.785-32.123l-26.448-18.52 l-29.234,13.604L540.349,228.837z"/>
          </g>
        </g>
        <g>
          <g>
            <path d="M563.577,249.798c-0.082,0-0.162-0.028-0.227-0.083l-26.644-22.357c-0.096-0.081-0.143-0.207-0.121-0.331l6.005-34.213 c0.022-0.125,0.109-0.228,0.227-0.271l32.65-11.855c0.117-0.043,0.251-0.02,0.347,0.061l26.645,22.357 c0.097,0.081,0.143,0.207,0.121,0.332l-6.006,34.212c-0.022,0.124-0.109,0.228-0.227,0.271l-32.65,11.855 C563.659,249.791,563.617,249.798,563.577,249.798z M537.316,226.948l26.333,22.096l32.267-11.716l5.935-33.811l-26.333-22.096 l-32.267,11.716L537.316,226.948z"/>
          </g>
        </g>
        <g>
          <g>
            <path d="M560.046,251.286c-0.092,0-0.182-0.036-0.249-0.103l-26.164-26.165c-0.089-0.089-0.124-0.219-0.091-0.341l9.536-35.701 c0.033-0.122,0.128-0.217,0.25-0.25l35.701-9.536c0.122-0.032,0.252,0.002,0.341,0.092l26.164,26.164 c0.089,0.089,0.124,0.219,0.091,0.341l-9.537,35.701c-0.032,0.122-0.128,0.217-0.25,0.25l-35.701,9.536 C560.107,251.283,560.076,251.286,560.046,251.286z M534.275,224.663l25.877,25.876l35.307-9.431l9.431-35.307l-25.877-25.876 l-35.307,9.431L534.275,224.663z"/>
          </g>
        </g>
        <g>
          <g>
            <path d="M556.166,252.537c-0.103,0-0.203-0.045-0.27-0.126l-25.303-30.155c-0.081-0.097-0.104-0.229-0.062-0.347l13.417-36.951 c0.044-0.119,0.147-0.205,0.271-0.227l38.72-6.796c0.123-0.022,0.25,0.024,0.331,0.121l25.303,30.155 c0.081,0.096,0.104,0.229,0.062,0.347l-13.417,36.951c-0.043,0.119-0.147,0.205-0.271,0.227l-38.719,6.796 C556.207,252.535,556.186,252.537,556.166,252.537z M531.264,221.958l25.041,29.843l38.318-6.726l13.278-36.568l-25.041-29.843 l-38.318,6.726L531.264,221.958z"/>
          </g>
        </g>
        <g>
          <g>
            <path d="M551.938,253.502c-0.114,0-0.223-0.056-0.289-0.15l-24.019-34.303c-0.072-0.103-0.084-0.237-0.031-0.351l17.645-37.916 c0.053-0.115,0.163-0.192,0.29-0.203l41.664-3.613c0.124-0.01,0.247,0.046,0.319,0.149l24.019,34.303 c0.072,0.103,0.084,0.237,0.031,0.351l-17.645,37.916c-0.053,0.114-0.164,0.192-0.289,0.203l-41.664,3.613 C551.958,253.501,551.948,253.502,551.938,253.502z M528.324,218.809l23.786,33.97l41.258-3.577l17.473-37.547l-23.786-33.97 l-41.258,3.577L528.324,218.809z"/>
          </g>
        </g>
        <g>
          <g>
            <path d="M591.857,254.167L591.857,254.167l-44.491-0.034c-0.126,0-0.242-0.067-0.305-0.176l-22.275-38.581 c-0.063-0.109-0.063-0.243,0-0.353l22.215-38.547c0.063-0.109,0.18-0.177,0.306-0.177h0l44.49,0.034 c0.126,0,0.242,0.067,0.305,0.177l22.275,38.581c0.063,0.109,0.063,0.243,0,0.353l-22.215,38.547 C592.1,254.099,591.984,254.167,591.857,254.167z M547.571,253.427l44.083,0.034l22.011-38.193l-22.071-38.229l-44.083-0.034 L525.5,215.198L547.571,253.427z"/>
          </g>
        </g>
        <g>
          <g>
            <path d="M589.612,258.538c-0.01,0-0.021,0-0.031-0.001l-47.146-4.162c-0.126-0.011-0.236-0.088-0.289-0.202l-20.029-42.953 c-0.053-0.114-0.042-0.248,0.031-0.351l27.117-38.791c0.072-0.103,0.198-0.159,0.32-0.149l47.146,4.161 c0.125,0.011,0.236,0.088,0.289,0.202l20.029,42.953c0.054,0.114,0.042,0.248-0.031,0.351l-27.117,38.791 C589.835,258.483,589.727,258.538,589.612,258.538z M542.699,253.69l46.74,4.126l26.884-38.457l-19.857-42.584l-46.74-4.126 l-26.884,38.457L542.699,253.69z"/>
          </g>
        </g>
        <g>
          <g>
            <path d="M586.827,262.963c-0.02,0-0.041-0.002-0.062-0.005l-49.579-8.782c-0.124-0.022-0.227-0.109-0.27-0.227l-17.244-47.378 c-0.043-0.118-0.02-0.251,0.061-0.347l32.335-38.596c0.081-0.097,0.206-0.143,0.332-0.121l49.579,8.782 c0.124,0.022,0.227,0.108,0.27,0.227l17.244,47.378c0.043,0.118,0.02,0.251-0.061,0.347l-32.335,38.596 C587.029,262.918,586.93,262.963,586.827,262.963z M537.509,253.517l49.178,8.711l32.074-38.284l-17.105-46.995l-49.178-8.711 l-32.074,38.284L537.509,253.517z"/>
          </g>
        </g>
        <g>
          <g>
            <path d="M583.465,267.394c-0.031,0-0.061-0.004-0.092-0.012l-51.729-13.904c-0.122-0.033-0.217-0.128-0.249-0.25 l-13.882-51.809c-0.033-0.122,0.002-0.252,0.091-0.341l37.847-37.905c0.089-0.09,0.219-0.125,0.341-0.092l51.729,13.904 c0.122,0.033,0.217,0.128,0.249,0.249l13.882,51.809c0.033,0.122-0.002,0.252-0.091,0.341l-37.847,37.905 C583.647,267.358,583.557,267.394,583.465,267.394z M532.024,252.85l51.335,13.798l37.559-37.617l-13.777-51.416 l-51.336-13.798l-37.558,37.617L532.024,252.85z"/>
          </g>
        </g>
        <g>
          <g>
            <path d="M579.491,271.779c-0.041,0-0.082-0.007-0.121-0.021l-53.532-19.531c-0.118-0.043-0.205-0.146-0.226-0.27l-9.908-56.193 c-0.022-0.124,0.024-0.25,0.12-0.331l43.624-36.662c0.097-0.081,0.23-0.104,0.348-0.061l53.532,19.531 c0.118,0.043,0.205,0.146,0.227,0.27l9.908,56.193c0.022,0.124-0.024,0.251-0.12,0.332l-43.624,36.662 C579.653,271.75,579.573,271.779,579.491,271.779z M526.271,251.633l53.149,19.391l43.312-36.4l-9.838-55.792l-53.149-19.391 l-43.311,36.4L526.271,251.633z"/>
          </g>
        </g>
        <g>
          <g>
            <path d="M574.873,276.057c-0.051,0-0.102-0.011-0.149-0.033l-54.922-25.662c-0.115-0.053-0.191-0.163-0.202-0.289 l-5.291-60.471c-0.011-0.126,0.046-0.247,0.149-0.32l49.631-34.809c0.103-0.072,0.237-0.084,0.352-0.031l54.922,25.662 c0.115,0.053,0.191,0.163,0.202,0.289l5.291,60.471c0.011,0.126-0.046,0.247-0.149,0.32l-49.631,34.809 C575.016,276.035,574.945,276.057,574.873,276.057z M520.286,249.808l54.552,25.489l49.297-34.575l-5.255-60.066 l-54.552-25.489l-49.297,34.575L520.286,249.808z"/>
          </g>
        </g>
        <g>
          <g>
            <path d="M569.583,280.162c-0.061,0-0.122-0.016-0.177-0.047l-55.826-32.288c-0.109-0.063-0.176-0.18-0.176-0.306v-64.577 c0-0.126,0.067-0.242,0.176-0.305l55.826-32.288c0.109-0.063,0.244-0.063,0.354,0l55.825,32.288 c0.109,0.063,0.176,0.18,0.176,0.305v64.577c0,0.126-0.067,0.242-0.176,0.306l-55.825,32.288 C569.705,280.147,569.644,280.162,569.583,280.162z M514.11,247.318l55.473,32.084l55.472-32.084v-64.17l-55.472-32.084 l-55.473,32.084V247.318z"/>
          </g>
        </g>
        <g>
          <g>
            <path d="M563.595,284.023c-0.071,0-0.143-0.021-0.203-0.064l-56.169-39.395c-0.103-0.072-0.16-0.194-0.149-0.32l5.988-68.437 c0.011-0.126,0.088-0.236,0.202-0.289l62.157-29.043c0.115-0.053,0.249-0.042,0.352,0.031l56.169,39.395 c0.103,0.072,0.16,0.194,0.149,0.32l-5.988,68.437c-0.011,0.126-0.088,0.236-0.202,0.289l-62.157,29.043 C563.697,284.012,563.646,284.023,563.595,284.023z M507.795,244.103l55.835,39.161l61.787-28.87l5.952-68.032l-55.835-39.16 l-61.787,28.87L507.795,244.103z"/>
          </g>
        </g>
        <g>
          <g>
            <path d="M556.892,287.559c-0.082,0-0.162-0.029-0.227-0.083l-55.875-46.958c-0.096-0.081-0.142-0.207-0.12-0.331l12.691-71.974 c0.022-0.124,0.108-0.227,0.226-0.27l68.565-25.016c0.118-0.043,0.251-0.02,0.348,0.061l55.875,46.958 c0.096,0.081,0.142,0.208,0.12,0.332l-12.691,71.973c-0.022,0.124-0.108,0.227-0.226,0.27l-68.565,25.016 C556.974,287.552,556.932,287.559,556.892,287.559z M501.4,240.109l55.562,46.696l68.182-24.876l12.62-71.573l-55.562-46.695 l-68.182,24.876L501.4,240.109z"/>
          </g>
        </g>
        <g>
          <g>
            <path d="M549.46,290.685c-0.092,0-0.183-0.036-0.25-0.104l-54.861-54.946c-0.089-0.089-0.124-0.219-0.091-0.341l20.123-75.1 c0.032-0.122,0.128-0.217,0.249-0.249l74.984-20.154c0.122-0.032,0.252,0.002,0.342,0.092l54.861,54.946 c0.089,0.089,0.124,0.219,0.091,0.341l-20.123,75.099c-0.032,0.122-0.128,0.217-0.249,0.25l-74.984,20.154 C549.521,290.681,549.49,290.685,549.46,290.685z M494.993,235.281l54.572,54.657l74.59-20.048l20.017-74.706L589.6,140.527 l-74.59,20.048L494.993,235.281z"/>
          </g>
        </g>
        <g>
          <g>
            <path d="M541.294,293.309c-0.103,0-0.203-0.046-0.271-0.126l-53.046-63.317c-0.081-0.097-0.104-0.229-0.061-0.347 l28.289-77.723c0.043-0.118,0.146-0.205,0.27-0.227l81.335-14.406c0.125-0.022,0.251,0.024,0.332,0.121l53.046,63.317 c0.081,0.096,0.104,0.229,0.061,0.347L622.96,278.67c-0.043,0.118-0.146,0.205-0.27,0.227l-81.335,14.406 C541.335,293.307,541.314,293.309,541.294,293.309z M488.649,229.568l52.784,63.005l80.933-14.335l28.15-77.341l-52.784-63.004 l-80.933,14.335L488.649,229.568z"/>
          </g>
        </g>
        <g>
          <g>
            <path d="M532.396,295.332c-0.115,0-0.223-0.056-0.289-0.151l-50.346-72.02c-0.073-0.103-0.084-0.237-0.031-0.351l37.187-79.747 c0.053-0.114,0.163-0.191,0.289-0.202l87.533-7.726c0.125-0.01,0.248,0.046,0.32,0.149l50.347,72.021 c0.072,0.103,0.084,0.237,0.031,0.351l-37.187,79.747c-0.053,0.114-0.163,0.191-0.289,0.202l-87.533,7.726 C532.417,295.332,532.406,295.332,532.396,295.332z M482.456,222.923l50.113,71.686l87.127-7.69l37.014-79.378l-50.113-71.687 l-87.127,7.691L482.456,222.923z"/>
          </g>
        </g>
        <g>
          <g>
            <path d="M522.779,296.652c-0.126,0-0.243-0.067-0.306-0.177l-46.678-80.994c-0.063-0.109-0.063-0.244,0-0.353l46.804-81.066 c0.063-0.109,0.18-0.176,0.305-0.176l93.482-0.072h0c0.126,0,0.243,0.067,0.306,0.177l46.678,80.994 c0.063,0.109,0.063,0.244,0,0.353l-46.803,81.066c-0.063,0.109-0.18,0.176-0.305,0.176L522.779,296.652L522.779,296.652z M476.508,215.305l46.475,80.641l93.075-0.072l46.6-80.714l-46.475-80.641l-93.075,0.072L476.508,215.305z"/>
          </g>
        </g>
        <g>
          <g>
            <path d="M611.542,305.75c-0.01,0-0.02-0.001-0.03-0.001l-99.077-8.591c-0.126-0.011-0.236-0.088-0.289-0.203l-41.96-90.164 c-0.053-0.114-0.042-0.248,0.031-0.351l57.118-81.573c0.072-0.103,0.192-0.159,0.319-0.149l99.077,8.591 c0.126,0.011,0.236,0.088,0.289,0.203l41.959,90.164c0.053,0.114,0.041,0.248-0.031,0.351l-57.118,81.573 C611.765,305.694,611.656,305.75,611.542,305.75z M512.699,296.471l98.671,8.556l56.884-81.24l-41.787-89.794l-98.671-8.556 l-56.885,81.239L512.699,296.471z"/>
          </g>
        </g>
        <g>
          <g>
            <path d="M605.691,315.03c-0.02,0-0.041-0.002-0.061-0.005l-104.204-18.291c-0.124-0.022-0.227-0.108-0.271-0.227 l-36.108-99.445c-0.043-0.118-0.019-0.251,0.062-0.347l68.096-81.153c0.081-0.097,0.208-0.143,0.331-0.121l104.204,18.291 c0.124,0.022,0.227,0.108,0.271,0.227l36.108,99.445c0.043,0.118,0.02,0.251-0.061,0.347l-68.096,81.154 C605.893,314.985,605.794,315.03,605.691,315.03z M501.749,296.074l103.802,18.22l67.834-80.842l-35.969-99.061 l-103.802-18.221l-67.835,80.842L501.749,296.074z"/>
          </g>
        </g>
        <g>
          <g>
            <path d="M598.629,324.323c-0.03,0-0.061-0.004-0.091-0.012L489.8,295.265c-0.122-0.033-0.217-0.128-0.25-0.25l-29.046-108.737 c-0.033-0.122,0.002-0.252,0.091-0.341l79.691-79.691c0.089-0.089,0.22-0.124,0.341-0.091L649.365,135.2 c0.122,0.033,0.217,0.128,0.25,0.25l29.046,108.738c0.033,0.122-0.002,0.251-0.091,0.34l-79.691,79.691 C598.811,324.287,598.721,324.323,598.629,324.323z M490.179,294.636l108.344,28.941l79.403-79.403l-28.94-108.344 l-108.344-28.941l-79.403,79.404L490.179,294.636z"/>
          </g>
        </g>
        <g>
          <g>
            <path d="M590.283,333.517c-0.041,0-0.081-0.007-0.121-0.021l-112.545-40.864c-0.119-0.043-0.205-0.146-0.227-0.271 l-20.7-117.931c-0.022-0.124,0.024-0.251,0.121-0.331l91.844-77.067c0.097-0.081,0.23-0.104,0.347-0.061l112.545,40.865 c0.119,0.043,0.205,0.146,0.227,0.271l20.7,117.931c0.022,0.124-0.024,0.25-0.121,0.331l-91.844,77.066 C590.445,333.488,590.365,333.517,590.283,333.517z M478.05,292.037l112.162,40.726l91.532-76.805l-20.63-117.529 L548.953,97.703l-91.532,76.805L478.05,292.037z"/>
          </g>
        </g>
        <g>
          <g>
            <path d="M580.586,342.486c-0.051,0-0.101-0.011-0.149-0.033l-115.484-53.743c-0.114-0.053-0.192-0.164-0.203-0.289 L453.747,161.52c-0.011-0.125,0.046-0.247,0.149-0.32l104.48-73.158c0.103-0.072,0.237-0.084,0.351-0.031l115.484,53.743 c0.114,0.053,0.192,0.164,0.203,0.29l11.003,126.9c0.011,0.126-0.046,0.247-0.149,0.32l-104.48,73.158 C580.728,342.465,580.658,342.486,580.586,342.486z M465.436,288.157l115.115,53.571l104.147-72.924l-10.968-126.494 l-115.114-53.57l-104.147,72.924L465.436,288.157z"/>
          </g>
        </g>
        <g>
          <g>
            <path d="M569.478,351.093c-0.061,0-0.122-0.016-0.176-0.047l-117.405-67.663c-0.109-0.063-0.177-0.18-0.177-0.306 l0.105-135.507c0-0.126,0.067-0.242,0.177-0.305L569.511,79.42c0.109-0.063,0.244-0.063,0.353,0l117.405,67.663 c0.11,0.063,0.177,0.18,0.177,0.306l-0.105,135.507c0,0.126-0.067,0.242-0.176,0.305l-117.509,67.844 C569.6,351.077,569.539,351.093,569.478,351.093z M452.426,282.873l117.052,67.46l117.156-67.641l0.105-135.099L569.687,80.133 l-117.156,67.641L452.426,282.873z"/>
          </g>
        </g>
      </g>
      <g>
        <g>
          <g>
            <path d="M647.43,683.545l-0.281-0.052l-192.246-35.531l0.053-0.283l36.778-195.421l0.281,0.052l192.246,35.531l-0.053,0.283 L647.43,683.545z M455.574,647.502l191.398,35.375l36.62-194.575l-191.399-35.374L455.574,647.502z"/>
          </g>
        </g>
        <g>
          <g>
            <path d="M652.768,680.844l-194.926-30.283l0.041-0.282l28.514-195.321l194.926,30.283l-0.041,0.281L652.768,680.844z M458.492,650.081l193.791,30.107l28.39-194.467l-193.791-30.107L458.492,650.081z"/>
          </g>
        </g>
        <g>
          <g>
            <path d="M655.238,677.786l-0.284-0.032l-194.257-21.9l0.034-0.286l23.195-197.551l0.284,0.032l194.257,21.9l-0.034,0.286 L655.238,677.786z M461.335,655.348l193.4,21.803l23.095-196.696l-193.4-21.803L461.335,655.348z"/>
          </g>
        </g>
        <g>
          <g>
            <path d="M660.377,674.716l-0.288-0.024L463.81,658.24l0.022-0.284l14.957-196.869l0.289,0.024l196.279,16.451l-0.022,0.284 L660.377,674.716z M464.425,657.716l195.423,16.38l14.892-196.008l-195.423-16.38L464.425,657.716z"/>
          </g>
        </g>
        <g>
          <g>
            <path d="M662.63,671.49l-195.605-8.171l9.51-199.007l195.605,8.171L662.63,671.49z M467.626,662.769l194.458,8.123 l9.455-197.86l-194.458-8.123L467.626,662.769z"/>
          </g>
        </g>
        <g>
          <g>
            <path d="M667.545,668.065l-197.25-2.585l0.002-0.285l1.325-197.458l197.25,2.585l-0.002,0.285L667.545,668.065z M470.872,664.914l196.102,2.57l1.319-196.595l-196.103-2.57L470.872,664.914z"/>
          </g>
        </g>
        <g>
          <g>
            <path d="M473.853,670.321l-4.258-199.207l0.285-0.008l195.433-5.624l4.258,199.207l-0.285,0.008L473.853,670.321z M470.181,471.671l4.233,198.059l194.57-5.599l-4.233-198.059L470.181,471.671z"/>
          </g>
        </g>
        <g>
          <g>
            <path d="M477.264,672.247l-0.018-0.285l-12.317-197.085l196.972-11.321l0.018,0.285l12.317,197.085L477.264,672.247z M465.537,475.417l12.263,196.224l195.827-11.255l-12.263-196.224L465.537,475.417z"/>
          </g>
        </g>
        <g>
          <g>
            <path d="M481.148,676.825l-18.008-198.437l0.283-0.028l194.593-19.382l18.008,198.437l-0.283,0.028L481.148,676.825z M463.764,478.903l17.904,197.293l193.734-19.297l-17.904-197.293L463.764,478.903z"/>
          </g>
        </g>
        <g>
          <g>
            <path d="M484.685,678.506l-0.038-0.284l-25.902-195.751l195.735-25.175l0.038,0.284l25.902,195.751L484.685,678.506z M459.39,482.967l25.789,194.896l194.596-25.028l-25.789-194.896L459.39,482.967z"/>
          </g>
        </g>
        <g>
          <g>
            <path d="M488.877,682.799l-0.046-0.286L457.204,486.1l0.28-0.048l192.805-33.049l0.046,0.286l31.627,196.413l-0.28,0.048 L488.877,682.799z M457.861,486.57l31.49,195.566l191.953-32.903l-31.49-195.566L457.861,486.57z"/>
          </g>
        </g>
        <g>
          <g>
            <path d="M492.521,684.227l-0.057-0.281L453.1,490.483l193.544-38.908l0.057,0.28l39.363,193.464L492.521,684.227z M453.778,490.933l39.191,192.619l192.418-38.682l-39.191-192.619L453.778,490.933z"/>
          </g>
        </g>
        <g>
          <g>
            <path d="M497,688.216l-45.186-194.003l190.352-46.625l45.186,194.003L497,688.216z M452.501,494.635l44.926,192.885 l189.236-46.352l-44.925-192.885L452.501,494.635z"/>
          </g>
        </g>
        <g>
          <g>
            <path d="M500.734,689.383l-52.712-190.509l190.409-52.455l52.712,190.509L500.734,689.383z M448.729,499.275l52.405,189.402 l189.302-52.15l-52.406-189.402L448.729,499.275z"/>
          </g>
        </g>
        <g>
          <g>
            <path d="M505.478,693.046l-0.085-0.278l-58.397-190.083l0.27-0.087l186.421-59.842l0.085,0.278l58.397,190.083L505.478,693.046 z M447.711,503.059l58.145,189.264l185.597-59.578L633.309,443.48L447.711,503.059z"/>
          </g>
        </g>
        <g>
          <g>
            <path d="M509.284,693.948l-65.749-186.345l0.271-0.096l186.074-65.653l65.749,186.345l-0.271,0.096L509.284,693.948z M444.268,507.954l65.367,185.262l185.262-65.367L629.53,442.587L444.268,507.954z"/>
          </g>
        </g>
      </g>
      <g>
        <g>
          <g>
            <path d="M256.076,914.483l-43.358-5.654l5.055-46.165L256.076,914.483z M213.494,908.219l41.028,5.35l-36.245-49.034 L213.494,908.219z"/>
          </g>
        </g>
        <g>
          <g>
            <path d="M256.803,915.803l-45.824-7.452l7.078-47.809L256.803,915.803z M211.78,907.766l43.484,7.072l-36.768-52.44 L211.78,907.766z"/>
          </g>
        </g>
        <g>
          <g>
            <path d="M257.528,917.201l-48.378-9.411l9.288-49.448L257.528,917.201z M209.973,907.231l46.034,8.955l-37.196-56.006 L209.973,907.231z"/>
          </g>
        </g>
        <g>
          <g>
            <path d="M258.247,918.682l-51.021-11.542l11.696-51.075L258.247,918.682z M208.071,906.609l48.674,11.01l-37.516-59.736 L208.071,906.609z"/>
          </g>
        </g>
        <g>
          <g>
            <path d="M258.956,920.249l-53.752-13.853l14.314-52.682L258.956,920.249z M206.073,905.891l51.405,13.249l-37.716-63.631 L206.073,905.891z"/>
          </g>
        </g>
        <g>
          <g>
            <path d="M259.652,921.904l-56.57-16.357l17.155-54.262L259.652,921.904z M203.974,905.07l54.225,15.68l-37.781-67.693 L203.974,905.07z"/>
          </g>
        </g>
        <g>
          <g>
            <path d="M260.331,923.651l-59.472-19.064l20.232-55.805L260.331,923.651z M201.773,904.138l57.134,18.315l-37.698-71.925 L201.773,904.138z"/>
          </g>
        </g>
        <g>
          <g>
            <path d="M260.989,925.493l-62.457-21.986l23.558-57.3L260.989,925.493z M199.467,903.088l60.128,21.166l-37.449-76.328 L199.467,903.088z"/>
          </g>
        </g>
        <g>
          <g>
            <path d="M261.62,927.433l-65.524-25.134l27.147-58.737L261.62,927.433z M197.054,901.911l63.205,24.245l-37.019-80.904 L197.054,901.911z"/>
          </g>
        </g>
        <g>
          <g>
            <path d="M262.22,929.475l-68.666-28.521l31.014-60.105L262.22,929.475z M194.532,900.596l66.362,27.564l-36.389-85.651 L194.532,900.596z"/>
          </g>
        </g>
        <g>
          <g>
            <path d="M262.782,931.621l-71.882-32.159l35.174-61.389L262.782,931.621z M191.9,899.136l69.595,31.136l-35.54-90.571 L191.9,899.136z"/>
          </g>
        </g>
        <g>
          <g>
            <path d="M263.301,933.874l-75.167-36.062l39.642-62.577l0.244,0.679L263.301,933.874z M189.154,897.519l72.899,34.973 L227.6,836.831L189.154,897.519z"/>
          </g>
        </g>
        <g>
          <g>
            <path d="M263.77,936.237l-78.516-40.242l44.435-63.654L263.77,936.237z M186.296,895.736l76.269,39.09l-33.105-100.922 L186.296,895.736z"/>
          </g>
        </g>
        <g>
          <g>
            <path d="M264.181,938.714l-81.921-44.715l0.251-0.327l49.318-64.274L264.181,938.714z M183.323,893.774l79.697,43.501 l-31.474-106.348L183.323,893.774z"/>
          </g>
        </g>
        <g>
          <g>
            <path d="M264.528,941.305l-85.376-49.492l55.06-65.404L264.528,941.305z M180.234,891.624l83.179,48.218l-29.536-111.938 L180.234,891.624z"/>
          </g>
        </g>
        <g>
          <g>
            <path d="M264.802,944.014l-88.873-54.589l60.926-66.041l0.151,0.65L264.802,944.014z M177.03,889.273l86.703,53.257 l-27.265-117.686L177.03,889.273z"/>
          </g>
        </g>
        <g>
          <g>
            <path d="M264.993,946.844l-92.402-60.022l67.184-66.493L264.993,946.844z M173.711,886.708l90.263,58.633L239.34,821.753 L173.711,886.708z"/>
          </g>
        </g>
        <g>
          <g>
            <path d="M265.093,949.796l-95.954-65.804l73.853-66.739L265.093,949.796z M170.276,883.916l93.847,64.36l-21.616-129.634 L170.276,883.916z"/>
          </g>
        </g>
        <g>
          <g>
            <path d="M265.091,952.872l-99.516-71.951l80.95-66.754L265.091,952.872z M166.728,880.884l97.445,70.453L245.994,815.52 L166.728,880.884z"/>
          </g>
        </g>
        <g>
          <g>
            <path d="M264.976,956.073l-103.077-78.478l88.495-66.515L264.976,956.073z M163.069,877.599l101.042,76.93l-14.293-142.131 L163.069,877.599z"/>
          </g>
        </g>
        <g>
          <g>
            <path d="M264.735,959.402L158.115,874l96.507-65.993L264.735,959.402z M159.3,874.044l104.624,83.803L254,809.287 L159.3,874.044z"/>
          </g>
        </g>
        <g>
          <g>
            <path d="M264.358,962.857L154.225,870.12l105.003-65.16l0.02,0.611L264.358,962.857z M155.424,870.207l108.177,91.091 l-5.038-155.094L155.424,870.207z"/>
          </g>
        </g>
        <g>
          <g>
            <path d="M263.83,966.44l-113.595-100.5l114.004-63.987L263.83,966.44z M151.446,866.07l111.682,98.807l0.401-161.716 L151.446,866.07z"/>
          </g>
        </g>
        <g>
          <g>
            <path d="M263.137,970.15L146.147,861.445l123.529-62.441l-0.023,0.599L263.137,970.15z M147.369,861.617l115.121,106.969 l6.434-168.412L147.369,861.617z"/>
          </g>
        </g>
        <g>
          <g>
            <path d="M262.264,973.988L141.968,856.617l133.597-60.487L262.264,973.988z M143.2,856.834l118.473,115.591l13.098-175.162 L143.2,856.834z"/>
          </g>
        </g>
        <g>
          <g>
            <path d="M261.196,977.95L137.705,851.44l144.227-58.09l-0.066,0.588L261.196,977.95z M138.946,851.701l121.715,124.691 l20.437-181.945L138.946,851.701z"/>
          </g>
        </g>
        <g>
          <g>
            <path d="M259.914,982.037l-126.55-136.14l155.438-55.21L259.914,982.037z M134.612,846.203l124.822,134.282l28.495-188.738 L134.612,846.203z"/>
          </g>
        </g>
        <g>
          <g>
            <path d="M258.402,986.245L128.956,839.969l167.25-51.806l-0.11,0.577L258.402,986.245z M130.209,840.32l127.768,144.381 l37.315-195.516L130.209,840.32z"/>
          </g>
        </g>
        <g>
          <g>
            <path d="M256.639,990.571L124.49,833.639l179.682-47.836l-0.133,0.572L256.639,990.571z M125.746,834.035L256.27,989.037 l46.948-202.25L125.746,834.035z"/>
          </g>
        </g>
        <g>
          <g>
            <path d="M254.606,995.01l-0.432-0.54L119.976,826.887l192.75-43.253L254.606,995.01z M121.233,827.328l133.059,166.16 l57.441-208.908L121.233,827.328z"/>
          </g>
        </g>
        <g>
          <g>
            <path d="M252.282,999.558L115.428,819.696l206.473-38.009l-0.18,0.561L252.282,999.558z M116.685,820.182l135.337,177.869 l68.847-215.457L116.685,820.182z"/>
          </g>
        </g>
        <g>
          <g>
            <path d="M249.644,1004.208L110.86,812.045l220.867-32.054L249.644,1004.208z M112.114,812.576l137.323,190.141l81.22-221.858 L112.114,812.576z"/>
          </g>
        </g>
        <g>
          <g>
            <path d="M246.668,1008.954L106.287,803.915l0.587-0.063l235.362-25.27l-0.228,0.55L246.668,1008.954z M107.537,804.491 l138.978,202.99l94.614-228.07L107.537,804.491z"/>
          </g>
        </g>
        <g>
          <g>
            <path d="M243.33,1013.786l-141.602-218.5l251.734-17.791L243.33,1013.786z M102.971,795.906l140.258,216.426l109.087-234.048 L102.971,795.906z"/>
          </g>
        </g>
        <g>
          <g>
            <path d="M239.603,1018.697L97.201,786.139l268.235-9.367L239.603,1018.697z M98.435,786.802l141.118,230.461L364.252,777.52 L98.435,786.802z"/>
          </g>
        </g>
        <g>
          <g>
            <path d="M235.461,1023.674L92.727,776.453l285.467,0L235.461,1023.674z M93.95,777.159l141.51,245.103l141.51-245.103 L93.95,777.159z"/>
          </g>
        </g>
      </g>
      <g>
        <g>
          <g>
            <path d="M956.412,688.161c-5.087,0-10.014-1.911-13.894-5.529L817.74,566.274c-5.42-5.054-7.66-12.383-5.994-19.603 c1.667-7.221,6.894-12.825,13.981-14.992l163.157-49.882c7.088-2.167,14.553-0.443,19.973,4.611 c5.42,5.054,7.66,12.383,5.994,19.603l-38.38,166.239c-1.667,7.221-6.893,12.825-13.98,14.992 C960.478,687.859,958.432,688.161,956.412,688.161z M818.222,565.758l124.778,116.357c5.233,4.88,12.444,6.544,19.286,4.452 c6.843-2.092,11.889-7.504,13.499-14.476l38.379-166.239c1.61-6.972-0.553-14.048-5.787-18.928 c-5.234-4.88-12.445-6.544-19.285-4.452l-163.157,49.882c-6.844,2.092-11.89,7.503-13.5,14.475 C810.825,553.802,812.988,560.878,818.222,565.758L818.222,565.758z"/>
          </g>
        </g>
        <g>
          <g>
            <path d="M921.182,699.893c-0.247,0-0.496-0.004-0.746-0.013c-7.407-0.259-13.906-4.319-17.385-10.863l-80.097-150.642v0 c-3.48-6.543-3.212-14.202,0.715-20.486c3.927-6.285,10.68-9.879,18.1-9.624l170.508,5.954 c7.406,0.259,13.905,4.32,17.385,10.863c3.479,6.544,3.212,14.202-0.715,20.487l-90.411,144.687 C934.74,696.33,928.295,699.893,921.182,699.893z M841.023,508.959c-6.868,0-13.091,3.441-16.756,9.305 c-3.791,6.068-4.05,13.463-0.69,19.781v0l80.097,150.641c3.36,6.318,9.635,10.239,16.786,10.489 c7.15,0.251,13.683-3.224,17.476-9.292l90.411-144.687c3.792-6.068,4.05-13.463,0.691-19.781 c-3.36-6.318-9.634-10.239-16.786-10.489l-170.508-5.954C841.503,508.963,841.263,508.959,841.023,508.959z"/>
          </g>
        </g>
        <g>
          <g>
            <path d="M883.969,699.526c-2.48,0-4.987-0.457-7.413-1.389c-6.919-2.656-11.742-8.611-12.901-15.931l-26.69-168.512 c-1.159-7.319,1.587-14.474,7.346-19.137c5.76-4.664,13.328-5.862,20.247-3.207l159.28,61.142 c6.919,2.656,11.741,8.611,12.901,15.93c1.159,7.32-1.587,14.474-7.346,19.138L896.802,694.93 C893.063,697.958,888.56,699.526,883.969,699.526z M857.148,490.668c-4.434,0-8.781,1.513-12.392,4.438 c-5.561,4.503-8.212,11.411-7.092,18.478l26.689,168.512c1.12,7.068,5.776,12.818,12.457,15.382 c6.681,2.564,13.989,1.406,19.549-3.097l132.591-107.37c5.561-4.503,8.212-11.411,7.093-18.479 c-1.12-7.067-5.776-12.817-12.456-15.382l-159.281-61.142C861.963,491.11,859.542,490.668,857.148,490.668z"/>
          </g>
        </g>
        <g>
          <g>
            <path d="M848.737,687.024c-4.714,0-9.323-1.65-13.103-4.822c-5.677-4.764-8.298-11.965-7.011-19.263l29.627-168.02 c1.286-7.298,6.212-13.168,13.176-15.703c6.964-2.535,14.511-1.204,20.188,3.56l130.697,109.667 c5.677,4.763,8.298,11.965,7.011,19.263c-1.287,7.298-6.213,13.169-13.177,15.703l-160.323,58.353 C853.495,686.609,851.103,687.024,848.737,687.024z M878.507,478.661c-2.284,0-4.594,0.401-6.841,1.219 c-6.724,2.447-11.48,8.116-12.722,15.162l-29.627,168.02c-1.242,7.047,1.288,14,6.77,18.599 c5.481,4.599,12.767,5.884,19.492,3.437l160.323-58.353c6.724-2.447,11.48-8.116,12.723-15.163 c1.242-7.047-1.288-14-6.77-18.599L891.16,483.317C887.51,480.254,883.059,478.661,878.507,478.661z"/>
          </g>
        </g>
        <g>
          <g>
            <path d="M819.684,663.755c-7.261,0-13.802-3.696-17.555-9.942c-3.817-6.352-3.951-14.014-0.358-20.496l82.715-149.221 l0.309,0.171l-0.309-0.171c3.593-6.482,10.161-10.428,17.571-10.558c7.379-0.125,14.111,3.586,17.928,9.938l87.872,146.243 c3.817,6.352,3.95,14.014,0.358,20.496c-3.593,6.482-10.161,10.429-17.571,10.558l-170.586,2.977 C819.934,663.754,819.808,663.755,819.684,663.755z M902.431,474.242c-0.121,0-0.241,0.001-0.362,0.003 c-7.154,0.125-13.497,3.936-16.965,10.194L802.39,633.66c-3.469,6.258-3.341,13.656,0.345,19.79 c3.686,6.134,10.178,9.726,17.311,9.596l170.586-2.977c7.155-0.125,13.497-3.936,16.967-10.195 c3.469-6.258,3.34-13.656-0.346-19.79l-87.872-146.243C915.758,477.811,909.442,474.242,902.431,474.242z"/>
          </g>
        </g>
        <g>
          <g>
            <path d="M962.089,685.046c-2.135,0-4.297-0.337-6.417-1.027L793.41,631.297c-7.048-2.29-12.176-7.985-13.717-15.234 c-1.541-7.249,0.827-14.537,6.334-19.495l126.79-114.162l0.236,0.262l-0.236-0.262c5.508-4.959,13.004-6.552,20.051-4.262 c7.048,2.29,12.176,7.985,13.717,15.234l35.472,166.884c1.541,7.249-0.827,14.537-6.335,19.496 C971.872,683.224,967.05,685.046,962.089,685.046z M926.454,477.824c-4.791,0-9.446,1.759-13.164,5.106L786.5,597.093 c-5.318,4.788-7.604,11.825-6.116,18.824c1.487,6.999,6.439,12.498,13.244,14.709l162.262,52.722 c6.805,2.212,14.043,0.673,19.361-4.115c5.318-4.788,7.604-11.825,6.116-18.824l-35.472-166.884 c-1.487-6.999-6.439-12.498-13.244-14.709C930.603,478.15,928.516,477.824,926.454,477.824z"/>
          </g>
        </g>
        <g>
          <g>
            <path d="M927.318,698.769c-4.35,0-8.636-1.409-12.282-4.157L778.779,591.935c-5.918-4.46-8.913-11.514-8.01-18.87 c0.903-7.356,5.515-13.476,12.337-16.371l157.049-66.664c6.823-2.896,14.427-1.962,20.346,2.498 c5.919,4.46,8.912,11.514,8.009,18.87l-20.792,169.34c-0.903,7.355-5.515,13.475-12.337,16.371 C932.764,698.222,930.029,698.769,927.318,698.769z M940.293,490.356l0.138,0.325l-157.049,66.664 c-6.586,2.796-11.039,8.705-11.912,15.807c-0.872,7.102,2.02,13.913,7.734,18.22l136.257,102.677 c5.715,4.306,13.059,5.208,19.645,2.412c6.587-2.796,11.04-8.705,11.912-15.808l20.792-169.34 c0.872-7.102-2.019-13.913-7.734-18.22c-5.713-4.306-13.057-5.208-19.645-2.412L940.293,490.356z"/>
          </g>
        </g>
        <g>
          <g>
            <path d="M890.104,700.436c-6.822,0-13.073-3.308-16.938-9.038l-95.405-141.444c-4.144-6.144-4.679-13.788-1.43-20.449 c3.249-6.661,9.601-10.946,16.994-11.463l170.197-11.901c7.396-0.517,14.28,2.842,18.425,8.987 c4.144,6.144,4.678,13.788,1.43,20.449l-74.792,153.345c-3.248,6.661-9.601,10.946-16.994,11.463 C891.093,700.419,890.597,700.436,890.104,700.436z M963.546,506.493l0.025,0.352l-170.197,11.901 c-7.138,0.499-13.273,4.637-16.41,11.068c-3.136,6.431-2.62,13.813,1.381,19.745l95.405,141.444 c4.002,5.933,10.667,9.175,17.79,8.677c7.138-0.499,13.273-4.637,16.409-11.068l74.792-153.345 c3.136-6.431,2.621-13.813-1.381-19.745c-4.001-5.932-10.646-9.177-17.79-8.677L963.546,506.493z"/>
          </g>
        </g>
        <g>
          <g>
            <path d="M854.517,689.939c-1.79,0-3.602-0.236-5.399-0.717c-7.159-1.918-12.577-7.337-14.495-14.495l-44.157-164.799 c-1.918-7.158,0.065-14.56,5.306-19.801c5.241-5.24,12.642-7.223,19.801-5.305L980.37,528.98 c7.158,1.918,12.577,7.337,14.495,14.495c1.918,7.158-0.065,14.56-5.306,19.8L868.918,683.916 C864.993,687.841,859.856,689.939,854.517,689.939z M810.176,484.811c-5.156,0-10.116,2.025-13.906,5.815 c-5.06,5.06-6.974,12.207-5.122,19.119l44.157,164.799c1.852,6.912,7.084,12.144,13.996,13.996 c6.911,1.852,14.059-0.063,19.119-5.123L989.06,562.776c5.06-5.06,6.975-12.207,5.123-19.118 c-1.852-6.912-7.084-12.144-13.996-13.996l-164.798-44.158C813.654,485.039,811.904,484.811,810.176,484.811z"/>
          </g>
        </g>
        <g>
          <g>
            <path d="M824.024,668.377c-3.99,0-7.951-1.189-11.431-3.536c-6.144-4.144-9.503-11.031-8.986-18.424l11.901-170.196 c0.517-7.393,4.802-13.746,11.464-16.995c6.661-3.249,14.306-2.714,20.448,1.43l141.444,95.405 c6.144,4.144,9.503,11.031,8.986,18.424c-0.518,7.393-4.802,13.746-11.464,16.995l-153.345,74.792 C830.154,667.679,827.081,668.377,824.024,668.377z M835.989,457.826c-2.952,0-5.918,0.673-8.708,2.034 c-6.431,3.137-10.569,9.271-11.068,16.409l-11.901,170.197c-0.5,7.138,2.744,13.788,8.676,17.79 c5.933,4.002,13.313,4.518,19.746,1.381l153.345-74.791c6.431-3.137,10.569-9.271,11.068-16.409 c0.499-7.138-2.744-13.788-8.676-17.79L847.026,461.24C843.667,458.974,839.842,457.826,835.989,457.826z"/>
          </g>
        </g>
        <g>
          <g>
            <path d="M802.288,638.064c-6.4,0-12.355-2.945-16.291-8.168c-4.46-5.919-5.395-13.525-2.499-20.347l66.664-157.049 c2.896-6.822,9.016-11.433,16.371-12.337c7.36-0.904,14.409,2.092,18.869,8.01L988.08,584.431 c4.46,5.918,5.394,13.524,2.498,20.346c-2.896,6.822-9.016,11.434-16.372,12.337l-169.34,20.792 C804.002,638.012,803.141,638.064,802.288,638.064z M869.11,440.712c-0.824,0-1.655,0.051-2.49,0.153 c-7.103,0.872-13.012,5.325-15.808,11.912l-66.664,157.049c-2.796,6.587-1.894,13.931,2.413,19.646 c4.307,5.714,11.117,8.605,18.22,7.733l169.34-20.792c7.102-0.872,13.011-5.325,15.808-11.912 c2.796-6.586,1.894-13.931-2.413-19.645L884.839,448.599C881.04,443.556,875.289,440.712,869.11,440.712z"/>
          </g>
        </g>
        <g>
          <g>
            <path d="M958.702,637.847c-1.442,0-2.901-0.152-4.358-0.462L787.46,601.914c-7.249-1.541-12.944-6.669-15.234-13.716 c-2.291-7.048-0.697-14.544,4.262-20.051l114.162-126.79c4.959-5.508,12.249-7.875,19.496-6.335 c7.249,1.541,12.943,6.668,15.234,13.717L978.102,611c2.29,7.048,0.696,14.544-4.262,20.051 C969.878,635.451,964.429,637.847,958.702,637.847z M905.791,435.267c-5.53,0-10.791,2.314-14.617,6.562l-114.161,126.79 c-4.789,5.318-6.327,12.555-4.115,19.361c2.211,6.805,7.71,11.756,14.709,13.244l166.884,35.472 c7.001,1.487,14.036-0.799,18.825-6.117c4.788-5.318,6.326-12.555,4.115-19.36l-52.722-162.262 c-2.211-6.805-7.71-11.756-14.709-13.244C908.592,435.413,907.183,435.267,905.791,435.267z"/>
          </g>
        </g>
        <g>
          <g>
            <path d="M939.513,653.047c-3.638,0-7.268-0.989-10.55-2.961L782.72,562.215c-6.352-3.817-10.067-10.519-9.938-17.929 c0.129-7.41,4.076-13.978,10.557-17.571l149.221-82.715c6.482-3.593,14.144-3.459,20.496,0.358 c6.352,3.817,10.068,10.519,9.938,17.929l-2.977,170.586c-0.13,7.41-4.077,13.978-10.558,17.571 C946.326,652.181,942.917,653.047,939.513,653.047z M942.507,442.105c-3.287,0-6.578,0.836-9.604,2.513l-149.221,82.714 c-6.258,3.469-10.069,9.811-10.194,16.966c-0.125,7.154,3.462,13.626,9.596,17.311l146.243,87.872 c6.134,3.686,13.531,3.814,19.79,0.346c6.258-3.469,10.07-9.812,10.194-16.966l0.353,0.006l-0.353-0.006l2.977-170.586 c0.125-7.154-3.462-13.626-9.595-17.311C949.524,443.06,946.018,442.105,942.507,442.105z"/>
          </g>
        </g>
        <g>
          <g>
            <path d="M916.44,661.166c-5.993,0-11.645-2.608-15.61-7.333L791.163,523.136c-4.764-5.677-6.094-13.223-3.56-20.187 c2.535-6.964,8.405-11.89,15.703-13.177l168.02-29.626c7.298-1.287,14.499,1.334,19.262,7.011 c4.764,5.677,6.094,13.224,3.56,20.188l-58.352,160.323c-2.535,6.964-8.405,11.889-15.703,13.176 C918.869,661.06,917.647,661.165,916.44,661.166z M974.976,460.53c-1.166,0-2.344,0.102-3.527,0.311l-168.02,29.626 c-7.048,1.243-12.716,5.999-15.163,12.723c-2.447,6.724-1.162,14.011,3.437,19.492L901.37,653.379 c4.6,5.482,11.557,8.012,18.6,6.769c7.047-1.243,12.715-5.999,15.163-12.723l0.332,0.121l-0.332-0.121l58.352-160.323 c2.447-6.724,1.162-14.011-3.437-19.493C986.22,463.048,980.762,460.53,974.976,460.53z"/>
          </g>
        </g>
        <g>
          <g>
            <path d="M892.238,661.377c-1.09,0-2.191-0.086-3.296-0.261c-7.32-1.159-13.276-5.982-15.931-12.901l-61.142-159.28 c-2.656-6.918-1.457-14.487,3.207-20.247c4.664-5.76,11.821-8.505,19.137-7.346l168.512,26.69 c7.32,1.16,13.275,5.982,15.931,12.901c2.656,6.918,1.457,14.487-3.207,20.246l-107.37,132.59l-0.274-0.222l0.274,0.222 C904.12,658.659,898.364,661.377,892.238,661.377z M830.919,461.787c-5.916,0-11.472,2.624-15.295,7.345 c-4.503,5.561-5.661,12.869-3.096,19.549l61.142,159.28c2.564,6.68,8.315,11.337,15.383,12.456 c7.063,1.119,13.974-1.532,18.478-7.093l107.37-132.59c4.503-5.561,5.661-12.869,3.096-19.549 c-2.564-6.68-8.314-11.337-15.382-12.456l-168.512-26.69C833.035,461.87,831.971,461.787,830.919,461.787z"/>
          </g>
        </g>
        <g>
          <g>
            <path d="M869.038,653.662c-3.288,0-6.585-0.807-9.64-2.432c-6.543-3.479-10.604-9.978-10.863-17.384l-5.954-170.508 c-0.258-7.406,3.339-14.173,9.624-18.1c6.283-3.927,13.943-4.195,20.486-0.715l150.642,80.098 c6.543,3.479,10.604,9.978,10.863,17.384c0.259,7.406-3.339,14.172-9.624,18.099l-144.687,90.411 C876.533,652.609,872.792,653.662,869.038,653.662z M863.052,442.798c-3.626,0-7.238,1.017-10.474,3.039 c-6.068,3.792-9.542,10.325-9.292,17.476l5.954,170.508c0.249,7.151,4.17,13.426,10.488,16.786 c6.317,3.359,13.713,3.101,19.781-0.691l0.187,0.299l-0.187-0.299l144.687-90.41c6.068-3.792,9.541-10.325,9.292-17.476 c-0.25-7.151-4.17-13.426-10.488-16.786l-150.642-80.098C869.41,443.578,866.225,442.798,863.052,442.798z"/>
          </g>
        </g>
        <g>
          <g>
            <path d="M849.578,638.8c-5.597,0-10.942-2.294-14.896-6.534c-5.054-5.42-6.778-12.887-4.611-19.974l49.882-163.157 c2.167-7.087,7.771-12.313,14.992-13.98c7.221-1.668,14.55,0.574,19.603,5.993l116.357,124.778 c5.055,5.42,6.779,12.887,4.612,19.974c-2.167,7.087-7.771,12.313-14.992,13.98l-166.24,38.379l-0.079-0.344l0.079,0.344 C852.713,638.622,851.135,638.8,849.578,638.8z M899.649,435.32c-1.505,0-3.027,0.172-4.545,0.522 c-6.972,1.61-12.383,6.656-14.476,13.499l-49.882,163.157c-2.092,6.843-0.428,14.052,4.452,19.286 c4.881,5.234,11.957,7.396,18.928,5.787l166.24-38.379c6.972-1.61,12.383-6.656,14.476-13.499 c2.092-6.843,0.427-14.053-4.452-19.286L914.032,441.629C910.215,437.535,905.053,435.32,899.649,435.32z"/>
          </g>
        </g>
        <g>
          <g>
            <path d="M1005.966,636.287c-0.734,0-1.473-0.039-2.217-0.117l-169.678-17.834c-7.369-0.775-13.569-5.279-16.583-12.048 c-3.014-6.77-2.213-14.391,2.143-20.387l100.283-138.028c4.355-5.995,11.354-9.111,18.727-8.338 c7.37,0.775,13.57,5.279,16.584,12.049l69.394,155.862c3.014,6.77,2.214,14.391-2.143,20.387 C1018.56,633.223,1012.504,636.287,1005.966,636.287z M936.426,440.124c-6.313,0-12.16,2.958-15.942,8.163L820.201,586.316 c-4.206,5.789-4.979,13.148-2.069,19.685c2.91,6.537,8.896,10.885,16.013,11.633l169.678,17.834 c7.111,0.749,13.876-2.261,18.081-8.05c4.206-5.789,4.98-13.148,2.069-19.685l-69.394-155.862 c-2.91-6.537-8.896-10.886-16.013-11.634C937.849,440.161,937.135,440.124,936.426,440.124z"/>
          </g>
        </g>
        <g>
          <g>
            <path d="M984.775,666.974c-2.941,0-5.901-0.645-8.703-1.952l-154.627-72.104c-6.717-3.132-11.112-9.409-11.758-16.792 c-0.646-7.383,2.593-14.328,8.663-18.579l139.757-97.859c6.072-4.251,13.706-4.918,20.422-1.787 c6.716,3.132,11.112,9.409,11.758,16.792l14.87,169.963c0.646,7.383-2.592,14.328-8.663,18.578 C992.955,665.713,988.885,666.974,984.775,666.974z M969.827,456.658c-3.968,0-7.897,1.217-11.314,3.609l-139.757,97.859 c-5.862,4.104-8.989,10.81-8.366,17.939c0.624,7.128,4.868,13.189,11.353,16.213l154.627,72.104 c6.486,3.024,13.857,2.379,19.718-1.725c5.861-4.104,8.989-10.81,8.365-17.939l-14.87-169.963 c-0.624-7.128-4.868-13.189-11.353-16.214C975.526,457.281,972.667,456.658,969.827,456.658z"/>
          </g>
        </g>
        <g>
          <g>
            <path d="M954.659,689.065c-5.213,0-10.245-2.003-14.15-5.773L817.782,564.774c-5.331-5.148-7.443-12.514-5.65-19.705 c1.793-7.191,7.116-12.703,14.24-14.745l164.003-47.027c7.125-2.042,14.56-0.188,19.89,4.959 c5.331,5.148,7.443,12.514,5.65,19.705L974.64,673.505c-1.793,7.191-7.116,12.703-14.24,14.746 C958.494,688.798,956.564,689.065,954.659,689.065z M996.112,483.189c-1.84,0-3.702,0.258-5.543,0.786l-164.003,47.027 c-6.878,1.972-12.018,7.295-13.749,14.238c-1.732,6.943,0.308,14.056,5.456,19.027L941,682.784 c5.147,4.971,12.328,6.761,19.205,4.788c6.879-1.972,12.019-7.295,13.75-14.238l41.275-165.544 c1.732-6.943-0.308-14.056-5.455-19.026C1006.005,485.124,1001.145,483.189,996.112,483.189z"/>
          </g>
        </g>
        <g>
          <g>
            <path d="M919.246,700.182c-0.371,0-0.743-0.01-1.117-0.029c-7.401-0.388-13.828-4.561-17.192-11.164l-77.457-152.017 c-3.365-6.603-2.963-14.256,1.073-20.471c4.037-6.215,10.862-9.697,18.265-9.306l170.379,8.929 c7.401,0.388,13.827,4.561,17.191,11.164c3.365,6.603,2.963,14.256-1.073,20.471l-92.922,143.088 C932.562,696.747,926.213,700.182,919.246,700.182z M824.11,536.651l77.457,152.017c3.249,6.376,9.455,10.406,16.6,10.78 c7.154,0.376,13.738-2.984,17.636-8.986l92.922-143.088c3.897-6.001,4.284-13.39,1.036-19.766 c-3.249-6.376-9.454-10.406-16.6-10.78l-170.378-8.929c-7.14-0.371-13.738,2.984-17.636,8.986 C821.248,522.886,820.861,530.275,824.11,536.651z"/>
          </g>
        </g>
        <g>
          <g>
            <path d="M882.026,699.164c-2.595,0-5.216-0.501-7.74-1.521c-6.872-2.776-11.589-8.815-12.621-16.153l-23.745-168.952 c-1.031-7.339,1.839-14.444,7.679-19.006c5.84-4.563,13.428-5.629,20.3-2.853l158.189,63.913 c6.871,2.776,11.589,8.815,12.62,16.153c1.032,7.339-1.839,14.444-7.679,19.006l-134.444,105.04 C890.892,697.677,886.497,699.164,882.026,699.164z M838.62,512.44l23.745,168.952c0.996,7.086,5.551,12.916,12.186,15.597 c6.637,2.681,13.962,1.651,19.601-2.755l134.444-105.039c5.639-4.405,8.41-11.266,7.414-18.352 c-0.995-7.086-5.551-12.917-12.186-15.597l-158.189-63.913c-6.634-2.68-13.961-1.651-19.601,2.755 C840.396,498.493,837.624,505.354,838.62,512.44z"/>
          </g>
        </g>
        <g>
          <g>
            <path d="M847.02,686.05c-4.838,0-9.553-1.734-13.371-5.053c-5.593-4.862-8.088-12.107-6.674-19.382l32.555-167.478 c1.414-7.275,6.442-13.058,13.449-15.471c7.008-2.412,14.529-0.951,20.122,3.911l128.763,111.932 c5.593,4.862,8.088,12.107,6.674,19.382c-1.414,7.275-6.442,13.058-13.448,15.471l-161.317,55.546 C851.547,685.675,849.27,686.05,847.02,686.05z M859.877,494.205l0.347,0.067L827.669,661.75 c-1.366,7.024,1.044,14.021,6.444,18.715c5.399,4.694,12.663,6.105,19.429,3.776l161.317-55.546 c6.766-2.33,11.621-7.914,12.986-14.938c1.366-7.024-1.044-14.02-6.444-18.715L892.638,483.111 c-5.4-4.695-12.662-6.106-19.429-3.777c-6.766,2.33-11.62,7.914-12.985,14.938L859.877,494.205z"/>
          </g>
        </g>
        <g>
          <g>
            <path d="M989.011,662.278H818.399c-7.411,0-14.047-3.832-17.753-10.249c-3.706-6.418-3.706-14.081,0-20.499l85.306-147.755 c3.705-6.418,10.342-10.25,17.753-10.25c0.001,0,0,0,0.001,0c7.411,0,14.047,3.832,17.752,10.25l85.306,147.755 c3.706,6.418,3.706,14.081,0.001,20.499C1003.058,658.446,996.422,662.278,989.011,662.278z M886.563,484.127l-85.306,147.755 c-3.578,6.197-3.578,13.596,0.001,19.793c3.578,6.197,9.985,9.897,17.141,9.897h170.612c7.156,0,13.564-3.7,17.141-9.897 c3.577-6.197,3.577-13.596,0-19.793l-85.306-147.755c-3.578-6.197-9.986-9.896-17.141-9.897 C896.549,474.23,890.141,477.93,886.563,484.127L886.563,484.127z"/>
          </g>
        </g>
      </g>
      <g>
        <g>
          <g>
            <path d="M580.294,957.358h-21.423l10.184-114.741h1.055L580.294,957.358z M560.028,956.299h19.11l-9.555-107.647 L560.028,956.299z"/>
          </g>
        </g>
        <g>
          <g>
            <path d="M581.424,959.127h-23.683l11.315-118.275h1.054L581.424,959.127z M558.906,958.068h21.353l-10.677-111.606 L558.906,958.068z"/>
          </g>
        </g>
        <g>
          <g>
            <path d="M582.679,960.951h-26.193l13.097-127.026L582.679,960.951z M557.659,959.892h23.846l-11.923-115.644L557.659,959.892z"/>
          </g>
        </g>
        <g>
          <g>
            <path d="M584.074,962.831h-28.982l14.491-130.411L584.074,962.831z M556.274,961.772h26.617l-13.308-119.765L556.274,961.772z"/>
          </g>
        </g>
        <g>
          <g>
            <path d="M585.623,964.77h-32.082l16.041-133.938L585.623,964.77z M554.735,963.711h29.695l-14.847-123.975L554.735,963.711z"/>
          </g>
        </g>
        <g>
          <g>
            <path d="M587.345,966.768H551.82l17.763-137.609L587.345,966.768z M553.024,965.709h33.116l-16.558-128.28L553.024,965.709z"/>
          </g>
        </g>
        <g>
          <g>
            <path d="M589.258,968.828h-39.35l19.675-141.428L589.258,968.828z M551.124,967.77h36.917l-18.459-132.685L551.124,967.77z"/>
          </g>
        </g>
        <g>
          <g>
            <path d="M591.383,970.953h-43.6l21.8-145.395L591.383,970.953z M549.012,969.894h41.142l-20.571-137.196L549.012,969.894z"/>
          </g>
        </g>
        <g>
          <g>
            <path d="M593.744,973.142h-48.322l24.161-149.513L593.744,973.142z M546.665,972.083H592.5l-22.918-141.817L546.665,972.083z"/>
          </g>
        </g>
        <g>
          <g>
            <path d="M596.367,975.4h-53.57l26.785-153.785L596.367,975.4z M544.057,974.341h51.051l-25.525-146.556L544.057,974.341z"/>
          </g>
        </g>
        <g>
          <g>
            <path d="M599.282,977.727h-59.398l29.699-158.214L599.282,977.727z M541.159,976.668h56.846l-28.423-151.416L541.159,976.668z"/>
          </g>
        </g>
        <g>
          <g>
            <path d="M602.52,980.126h-65.875l32.938-162.802L602.52,980.126z M537.94,979.068h63.286l-31.643-156.404L537.94,979.068z"/>
          </g>
        </g>
        <g>
          <g>
            <path d="M606.118,982.6h-73.071l36.536-167.553L606.118,982.6z M534.362,981.541h70.442l-35.221-161.525L534.362,981.541z"/>
          </g>
        </g>
        <g>
          <g>
            <path d="M610.115,985.15H529.05l40.533-172.471L610.115,985.15z M530.386,984.091h78.392l-39.196-166.785L530.386,984.091z"/>
          </g>
        </g>
        <g>
          <g>
            <path d="M614.557,987.778h-89.949l44.974-177.56L614.557,987.778z M525.969,986.72h87.227l-43.614-172.189L525.969,986.72z"/>
          </g>
        </g>
        <g>
          <g>
            <path d="M619.491,990.488h-99.817l49.909-182.822L619.491,990.488z M521.06,989.43h97.044l-48.522-177.743L521.06,989.43z"/>
          </g>
        </g>
        <g>
          <g>
            <path d="M624.974,993.282H514.191l55.391-188.263L624.974,993.282z M515.607,992.223h107.952L569.583,808.77L515.607,992.223z"/>
          </g>
        </g>
        <g>
          <g>
            <path d="M631.065,996.163H508.1l61.483-193.887L631.065,996.163z M509.546,995.104h120.074l-60.037-189.326L509.546,995.104z"/>
          </g>
        </g>
        <g>
          <g>
            <path d="M637.834,999.132H501.332l68.251-199.699L637.834,999.132z M502.812,998.073h133.541l-66.771-195.366L502.812,998.073z "/>
          </g>
        </g>
        <g>
          <g>
            <path d="M645.354,1002.193H493.811l75.772-205.703L645.354,1002.193z M495.33,1001.135h148.506l-74.253-201.581 L495.33,1001.135z"/>
          </g>
        </g>
        <g>
          <g>
            <path d="M653.709,1005.349H485.456l0.287-0.725l83.839-211.179L653.709,1005.349z M487.016,1004.291h165.134l-82.567-207.976 L487.016,1004.291z"/>
          </g>
        </g>
        <g>
          <g>
            <path d="M662.992,1008.603h-186.82l93.41-218.308L662.992,1008.603z M477.777,1007.544h183.61l-91.805-214.558 L477.777,1007.544z"/>
          </g>
        </g>
        <g>
          <g>
            <path d="M673.307,1011.957H465.858l103.724-224.92L673.307,1011.957z M467.513,1010.898h204.14l-102.07-221.333 L467.513,1010.898z"/>
          </g>
        </g>
        <g>
          <g>
            <path d="M684.767,1015.415H454.398l115.185-231.747L684.767,1015.415z M456.107,1014.356h226.951L569.583,786.047 L456.107,1014.356z"/>
          </g>
        </g>
        <g>
          <g>
            <path d="M697.5,1018.98H441.665l127.918-238.792L697.5,1018.98z M443.433,1017.921h252.299L569.583,782.43L443.433,1017.921z"/>
          </g>
        </g>
        <g>
          <g>
            <path d="M711.648,1022.655h-284.13L569.583,776.59L711.648,1022.655z M429.351,1021.596h280.463L569.583,778.708 L429.351,1021.596z"/>
          </g>
        </g>
      </g>
      <g>
        <g>
          <g>
            <path d="M877.165,313.202c-0.103,0-0.204-0.046-0.272-0.129l-68.815-83.674c-0.103-0.125-0.107-0.303-0.012-0.433l67.085-91.61 c0.085-0.115,0.229-0.168,0.369-0.134l110.276,27.056c0.157,0.038,0.268,0.178,0.269,0.339l1.069,108.331 c0.001,0.15-0.092,0.284-0.232,0.335l-109.616,39.897C877.247,313.195,877.206,313.202,877.165,313.202z M808.797,229.162 l68.482,83.269l109.146-39.726l-1.064-107.808l-109.781-26.934L808.797,229.162z"/>
          </g>
        </g>
        <g>
          <g>
            <path d="M872.849,315.204c-0.107,0-0.212-0.049-0.281-0.138l-67.89-88.685c-0.098-0.128-0.096-0.306,0.003-0.433l72.414-91.972 c0.088-0.112,0.235-0.16,0.373-0.121l112.645,31.843c0.155,0.044,0.261,0.187,0.257,0.348l-2.797,111.652 c-0.004,0.15-0.101,0.28-0.244,0.327l-114.372,37.162C872.922,315.199,872.886,315.204,872.849,315.204z M805.407,226.17 l67.571,88.269l113.897-37.007l2.783-111.129l-112.154-31.704L805.407,226.17z"/>
          </g>
        </g>
        <g>
          <g>
            <path d="M868.33,317.113c-0.112,0-0.22-0.054-0.287-0.148l-66.756-93.815c-0.094-0.131-0.086-0.309,0.018-0.432l77.918-92.153 c0.092-0.109,0.241-0.152,0.377-0.108l114.911,36.861c0.154,0.049,0.254,0.196,0.245,0.357l-6.898,114.934 c-0.009,0.149-0.111,0.277-0.255,0.318l-119.174,34.173C868.395,317.108,868.363,317.113,868.33,317.113z M802.021,222.964 l66.452,93.388l118.695-34.035l6.866-114.412L879.609,131.2L802.021,222.964z"/>
          </g>
        </g>
        <g>
          <g>
            <path d="M863.606,318.916c-0.116,0-0.228-0.058-0.294-0.159l-65.403-99.059c-0.089-0.134-0.075-0.312,0.033-0.432 l83.593-92.142c0.096-0.106,0.247-0.144,0.381-0.095l117.067,42.112c0.152,0.055,0.247,0.205,0.232,0.365l-11.243,118.169 c-0.014,0.149-0.121,0.273-0.266,0.309l-124.015,30.92C863.663,318.913,863.634,318.916,863.606,318.916z M798.648,219.538 l65.115,98.622l123.53-30.8l11.193-117.648l-116.588-41.939L798.648,219.538z"/>
          </g>
        </g>
        <g>
          <g>
            <path d="M858.673,320.605c-0.121,0-0.236-0.063-0.301-0.169l-63.821-104.414c-0.084-0.137-0.064-0.315,0.048-0.43 l89.442-91.927c0.099-0.103,0.25-0.135,0.384-0.082l119.099,47.6c0.15,0.06,0.24,0.214,0.219,0.373l-15.835,121.345 c-0.019,0.148-0.13,0.268-0.277,0.299l-128.885,27.395C858.722,320.602,858.697,320.605,858.673,320.605z M795.296,215.888 l63.548,103.967l128.396-27.291l15.767-120.826l-118.626-47.411L795.296,215.888z"/>
          </g>
        </g>
        <g>
          <g>
            <path d="M853.53,322.167c-0.125,0-0.244-0.067-0.307-0.179l-61.998-109.874c-0.079-0.14-0.053-0.317,0.063-0.428l95.459-91.494 c0.103-0.099,0.257-0.126,0.386-0.068l120.995,53.327c0.148,0.065,0.232,0.222,0.206,0.381l-20.68,124.452 c-0.025,0.148-0.139,0.264-0.287,0.29l-133.776,23.588C853.571,322.165,853.55,322.167,853.53,322.167z M791.974,212.005 l61.741,109.418l133.284-23.502l20.595-123.936l-120.528-53.121L791.974,212.005z"/>
          </g>
        </g>
        <g>
          <g>
            <path d="M848.175,323.591c-0.13,0-0.252-0.072-0.313-0.19l-59.923-115.433c-0.074-0.143-0.043-0.318,0.078-0.426 l101.643-90.832c0.107-0.095,0.261-0.116,0.389-0.055l122.743,59.296c0.145,0.07,0.224,0.23,0.192,0.388L987.2,303.818 c-0.03,0.147-0.149,0.259-0.297,0.279l-138.678,19.49C848.207,323.59,848.191,323.591,848.175,323.591z M788.691,207.885 l59.681,114.968l138.184-19.42l25.68-126.966l-122.283-59.074L788.691,207.885z"/>
          </g>
        </g>
        <g>
          <g>
            <path d="M842.607,324.865c-0.135,0-0.26-0.078-0.319-0.201l-57.586-121.087c-0.069-0.146-0.031-0.32,0.093-0.423 l107.991-89.927c0.11-0.092,0.263-0.107,0.391-0.041l124.328,65.509c0.143,0.075,0.216,0.238,0.179,0.394l-31.152,130.414 c-0.034,0.146-0.158,0.253-0.306,0.269l-143.581,15.091C842.631,324.865,842.619,324.865,842.607,324.865z M785.457,203.521 l57.361,120.614l143.085-15.039l31.031-129.904l-123.878-65.271L785.457,203.521z"/>
          </g>
        </g>
        <g>
          <g>
            <path d="M836.823,325.978c-0.14,0-0.268-0.083-0.324-0.212l-54.974-126.828c-0.064-0.148-0.02-0.321,0.107-0.419 l114.499-88.767c0.114-0.087,0.268-0.098,0.391-0.027l125.739,71.967c0.14,0.08,0.208,0.245,0.165,0.4l-36.789,133.244 c-0.04,0.144-0.167,0.248-0.316,0.258l-148.475,10.382C836.84,325.978,836.832,325.978,836.823,325.978z M782.282,198.908 l54.766,126.347l147.977-10.348l36.649-132.74l-125.296-71.714L782.282,198.908z"/>
          </g>
        </g>
        <g>
          <g>
            <path d="M830.826,326.917c-0.145,0-0.275-0.089-0.329-0.224l-52.077-132.648c-0.059-0.15-0.008-0.321,0.123-0.415 l121.162-87.336c0.116-0.083,0.271-0.089,0.392-0.014l126.959,78.672c0.136,0.085,0.199,0.252,0.151,0.406l-42.697,135.958 c-0.045,0.143-0.174,0.242-0.324,0.247l-153.347,5.355C830.834,326.917,830.83,326.917,830.826,326.917z M779.177,194.041 l51.886,132.161l152.848-5.337l42.539-135.459l-126.524-78.403L779.177,194.041z"/>
          </g>
        </g>
        <g>
          <g>
            <path d="M982.797,327.668H824.612c-0.15,0-0.283-0.094-0.333-0.236l-48.882-138.541c-0.054-0.152,0.003-0.321,0.136-0.411 l127.975-85.623c0.118-0.08,0.274-0.08,0.393,0l127.975,85.623c0.134,0.09,0.19,0.259,0.137,0.411L983.13,327.432 C983.081,327.573,982.947,327.668,982.797,327.668z M824.861,326.962h157.687l48.708-138.048l-127.552-85.34l-127.551,85.34 L824.861,326.962z"/>
          </g>
        </g>
      </g>
    </g>
  </g>
</svg>