<?xml version="1.0" encoding="utf-8"?>
<svg version="1.1" id="svg3629" width="800" height="800" viewBox="0 0 800 800" xmlns="http://www.w3.org/2000/svg">
  <defs id="defs3633">
    <clipPath clipPathUnits="userSpaceOnUse" id="clipPath3645">
      <path d="M 0,600 H 600 V 0 H 0 Z" id="path3643"/>
    </clipPath>
  </defs>
  <g id="g3637" transform="matrix(1.3333333,0,0,-1.3333333,0,800)">
    <g id="g3639">
      <g id="g3641" clip-path="url(#clipPath3645)">
        <path d="m 390.225,458.546 c 1.767,-0.517 3.553,-1.06 5.361,-1.629 6.456,-1.932 13.276,-4.2 20.497,-6.857 l 6.932,3.63 c -5.631,2.309 -11.092,4.324 -16.384,6.072 -4.543,1.49 -8.93,2.82 -13.17,4.009 z" style="fill:#00adef;fill-opacity:1;fill-rule:evenodd;stroke:none" id="path3647"/>
        <path d="m 400.116,474.516 c -0.013,-0.261 -0.026,-0.52 -0.039,-0.779 4.536,-0.744 9.277,-1.576 14.244,-2.504 8.95,-1.822 18.601,-4.088 29.062,-6.879 l 3.298,1.727 c -0.305,0.097 -0.611,0.193 -0.914,0.288 -11.112,3.845 -21.844,6.764 -32.094,8.899 -2.952,0.684 -6.044,1.238 -9.221,1.673 -0.106,0.023 -0.213,0.045 -0.32,0.066 0.002,0.109 0.004,0.218 0.004,0.326 0.105,1.367 0.187,2.722 0.241,4.062 z m 13.595,21.947 c -0.398,-4.437 -0.798,-8.665 -1.202,-12.7 5.072,-0.578 10.441,-1.225 16.139,-1.953 8.867,-1.173 18.279,-2.695 28.271,-4.622 0.923,-0.222 1.966,-0.419 3.111,-0.583 0.177,-0.017 0.376,-0.012 0.552,0.009 0.133,0.014 0.219,0.048 0.224,0.084 0.008,0.067 -0.069,0.128 -0.209,0.186 -6.914,2.085 -13.64,3.863 -20.158,5.362 -5.93,1.362 -11.732,2.506 -17.398,3.456 -1.891,0.348 -3.8,0.668 -5.721,0.953 -0.354,0.045 -0.706,0.089 -1.057,0.134 0.03,0.354 0.059,0.708 0.09,1.065 0.129,1.937 0.22,3.869 0.281,5.792 0.124,2.621 0.215,5.279 0.269,7.971 z" style="fill:#00adef;fill-opacity:1;fill-rule:evenodd;stroke:none" id="path3649"/>
        <path d="m 412.982,419.465 c 1.959,5.402 3.863,11.155 5.692,17.3 1.577,5.346 3.031,10.982 4.341,16.925 l -6.932,-3.63 c -1.929,-7.449 -3.949,-14.345 -6.042,-20.751 -1.275,-4.12 -2.61,-8.077 -3.992,-11.883 3.222,-2.452 6.488,-5.059 9.792,-7.829 5.223,-4.256 10.656,-8.962 16.312,-14.178 l 7.794,0.7 c -4.321,4.287 -8.594,8.239 -12.813,11.881 -4.866,4.176 -9.58,7.982 -14.152,11.465" style="fill:#00adef;fill-opacity:1;fill-rule:evenodd;stroke:none" id="path3651"/>
        <path d="m 431.423,424.887 c 0.044,0.101 0.085,0.2 0.13,0.301 1.451,2.86 2.755,5.714 3.876,8.531 4.084,9.641 7.797,20.127 10.967,31.447 0.096,0.303 0.189,0.609 0.284,0.915 l -3.298,-1.726 c -3.665,-10.187 -7.3,-19.411 -10.902,-27.804 -2.064,-4.611 -4.083,-8.982 -6.055,-13.134 3.905,-2.422 7.969,-5.005 12.203,-7.764 7.57,-5.107 15.621,-10.896 24.216,-17.476 l 3.707,0.333 c -0.245,0.206 -0.489,0.412 -0.736,0.617 -8.792,7.802 -17.589,14.608 -26.243,20.503 -2.468,1.761 -5.109,3.456 -7.878,5.075 -0.09,0.06 -0.18,0.122 -0.271,0.182 m 14.95,4.397 c 0.162,0.313 0.328,0.629 0.492,0.947 0.861,1.741 1.687,3.492 2.475,5.245 2.446,5.197 4.813,10.619 7.07,16.268 2.481,6.212 4.851,12.751 7.077,19.622 0.033,0.148 0.025,0.246 -0.036,0.277 -0.031,0.017 -0.107,-0.034 -0.196,-0.135 -0.119,-0.133 -0.234,-0.293 -0.317,-0.448 -0.521,-1.035 -0.954,-2.006 -1.296,-2.89 -4.109,-9.311 -8.219,-17.914 -12.304,-25.867 -2.65,-5.099 -5.177,-9.881 -7.589,-14.379 4.465,-2.476 9.177,-5.128 14.163,-7.982 7.741,-4.475 15.856,-9.483 24.35,-15.088 0.765,-0.56 1.654,-1.14 2.652,-1.729 0.158,-0.083 0.339,-0.157 0.512,-0.203 0.128,-0.038 0.22,-0.039 0.237,-0.008 0.034,0.059 -0.014,0.144 -0.12,0.253 -5.591,4.572 -11.122,8.787 -16.571,12.666 -4.956,3.528 -9.88,6.806 -14.749,9.852 -1.617,1.044 -3.258,2.071 -4.923,3.068 -0.31,0.178 -0.62,0.355 -0.927,0.531" style="fill:#00adef;fill-opacity:1;fill-rule:evenodd;stroke:none" id="path3653"/>
        <path d="m 417.581,368.338 c 3.873,4.243 7.834,8.828 11.875,13.805 3.506,4.337 7.005,8.988 10.491,13.976 l -7.794,-0.7 c -4.634,-6.144 -9.141,-11.743 -13.523,-16.863 -2.757,-3.314 -5.502,-6.461 -8.234,-9.449 2.037,-3.497 4.054,-7.155 6.046,-10.979 3.202,-5.932 6.419,-12.357 9.646,-19.342 l 7.469,-2.335 c -2.351,5.613 -4.787,10.902 -7.29,15.88 -2.897,5.72 -5.798,11.041 -8.686,16.007" style="fill:#00adef;fill-opacity:1;fill-rule:evenodd;stroke:none" id="path3655"/>
        <path d="m 458.084,330.403 c -4.987,10.155 -10.333,19.451 -15.875,27.913 -1.606,2.57 -3.399,5.147 -5.337,7.702 -0.06,0.091 -0.119,0.183 -0.181,0.273 0.079,0.076 0.157,0.153 0.236,0.229 2.434,2.087 4.732,4.225 6.845,6.399 7.462,7.343 14.907,15.608 22.165,24.854 0.206,0.247 0.412,0.492 0.615,0.738 l -3.708,-0.334 c -7.284,-8.006 -14.174,-15.139 -20.711,-21.514 -3.673,-3.469 -7.209,-6.736 -10.621,-9.816 2.68,-3.733 5.444,-7.675 8.302,-11.843 4.955,-7.488 10.085,-15.762 15.412,-24.943 z m 15.184,1.808 c -2.368,4.199 -4.772,8.235 -7.199,12.112 -3.228,5.156 -6.523,10.069 -9.858,14.745 -1.091,1.584 -2.215,3.161 -3.372,4.72 -0.22,0.282 -0.439,0.564 -0.652,0.845 0.268,0.227 0.54,0.456 0.816,0.686 1.46,1.28 2.893,2.58 4.294,3.897 4.248,3.866 8.51,7.97 12.76,12.325 4.668,4.791 9.359,9.924 14.043,15.42 0.088,0.124 0.118,0.218 0.075,0.269 -0.024,0.029 -0.113,0.011 -0.233,-0.048 -0.159,-0.078 -0.329,-0.182 -0.468,-0.294 -0.875,-0.755 -1.647,-1.487 -2.3,-2.174 -7.36,-7.028 -14.449,-13.402 -21.267,-19.188 -4.4,-3.699 -8.56,-7.149 -12.514,-10.382 3.177,-3.995 6.516,-8.248 10.03,-12.791 4.794,-6.255 9.693,-12.999 14.692,-20.278 z" style="fill:#00adef;fill-opacity:1;fill-rule:evenodd;stroke:none" id="path3657"/>
        <path d="m 413.988,325.146 c 1.493,0.78 3.004,1.583 4.53,2.407 4.896,2.665 9.909,5.623 15.039,8.898 l -7.469,2.335 c -6.632,-3.901 -12.939,-7.349 -18.945,-10.404 -3.63,-1.907 -7.191,-3.681 -10.687,-5.325 z" style="fill:#00adef;fill-opacity:1;fill-rule:evenodd;stroke:none" id="path3659"/>
        <path d="m 470.919,331.932 c 0.697,-1.704 1.39,-3.441 2.07,-5.208 2.517,-6.252 4.993,-12.999 7.418,-20.3 l 7.162,-3.157 c -1.708,5.841 -3.536,11.368 -5.468,16.595 -1.669,4.48 -3.362,8.742 -5.079,12.797 z" style="fill:#00adef;fill-opacity:1;fill-rule:evenodd;stroke:none" id="path3661"/>
        <path d="m 489.573,334.156 c -0.211,-0.153 -0.424,-0.305 -0.635,-0.457 2.247,-4.01 4.554,-8.235 6.926,-12.699 4.156,-8.131 8.402,-17.09 12.74,-27.008 l 3.406,-1.502 c -0.112,0.298 -0.229,0.598 -0.345,0.896 -3.921,11.082 -8.33,21.294 -13.052,30.639 -1.306,2.733 -2.799,5.496 -4.439,8.253 -0.048,0.097 -0.099,0.193 -0.149,0.29 0.084,0.066 0.172,0.133 0.257,0.201 1.134,0.77 2.244,1.55 3.327,2.342 z m 25.637,3.054 c -3.717,-2.455 -7.274,-4.778 -10.68,-6.98 2.711,-4.324 5.552,-8.927 8.536,-13.835 4.611,-7.664 9.289,-15.97 14.013,-24.986 0.399,-0.858 0.897,-1.796 1.485,-2.795 0.097,-0.149 0.223,-0.301 0.35,-0.426 0.096,-0.093 0.173,-0.14 0.203,-0.121 0.058,0.034 0.06,0.133 0.016,0.279 -2.68,6.706 -5.483,13.07 -8.375,19.102 -2.632,5.486 -5.356,10.738 -8.146,15.757 -0.905,1.697 -1.847,3.387 -2.821,5.067 -0.187,0.306 -0.373,0.609 -0.557,0.912 0.295,0.196 0.593,0.395 0.892,0.593 1.593,1.106 3.163,2.241 4.702,3.39 2.127,1.539 4.261,3.124 6.401,4.76 z" style="fill:#00adef;fill-opacity:1;fill-rule:evenodd;stroke:none" id="path3663"/>
        <path d="m 454.554,289.771 c 5.445,1.838 11.129,3.937 17.074,6.337 5.162,2.1 10.476,4.478 15.941,7.159 l -7.162,3.157 c -7.024,-3.136 -13.678,-5.858 -19.989,-8.216 -4.018,-1.57 -7.942,-2.994 -11.779,-4.289 0.09,-4.046 0.088,-8.223 -0.018,-12.535 -0.069,-6.738 -0.359,-13.918 -0.914,-21.593 l 5.408,-5.658 c 0.657,6.052 1.082,11.857 1.298,17.427 0.233,6.408 0.269,12.467 0.141,18.211" style="fill:#00adef;fill-opacity:1;fill-rule:evenodd;stroke:none" id="path3665"/>
        <path d="m 470.291,278.735 c 0.106,0.029 0.209,0.058 0.315,0.087 3.142,0.649 6.188,1.408 9.088,2.286 10.083,2.82 20.597,6.455 31.424,11.034 0.296,0.116 0.596,0.232 0.892,0.35 l -3.406,1.5 c -10.249,-3.484 -19.726,-6.393 -28.534,-8.812 -4.892,-1.259 -9.567,-2.408 -14.044,-3.454 0.54,-4.563 1.054,-9.351 1.537,-14.38 0.726,-9.104 1.221,-19.007 1.436,-29.832 l 2.572,-2.691 c 0.009,0.322 0.018,0.641 0.024,0.963 0.618,11.737 0.454,22.86 -0.332,33.299 -0.161,3.027 -0.485,6.149 -0.947,9.324 -0.005,0.109 -0.015,0.217 -0.025,0.326 m 12.76,-8.946 c 0.345,0.066 0.696,0.137 1.047,0.204 1.899,0.414 3.781,0.861 5.643,1.336 5.589,1.327 11.304,2.858 17.128,4.615 6.402,1.932 12.991,4.159 19.752,6.701 0.139,0.067 0.206,0.134 0.194,0.202 -0.004,0.034 -0.092,0.061 -0.227,0.067 -0.177,0.01 -0.373,0 -0.549,-0.028 -1.135,-0.241 -2.162,-0.506 -3.067,-0.79 -9.841,-2.595 -19.13,-4.742 -27.895,-6.509 -5.639,-1.108 -10.953,-2.114 -15.973,-3.03 0.847,-5.036 1.711,-10.373 2.589,-16.05 1.328,-8.846 2.471,-18.312 3.386,-28.445 0.042,-0.951 0.142,-2.004 0.304,-3.154 0.03,-0.173 0.088,-0.363 0.156,-0.526 0.052,-0.124 0.109,-0.196 0.145,-0.191 0.067,0.01 0.103,0.1 0.122,0.251 0.09,7.221 -0.066,14.177 -0.43,20.855 -0.331,6.074 -0.837,11.969 -1.493,17.676 -0.192,1.911 -0.411,3.835 -0.669,5.759 -0.056,0.354 -0.111,0.707 -0.163,1.057" style="fill:#00adef;fill-opacity:1;fill-rule:evenodd;stroke:none" id="path3667"/>
        <path d="m 417.447,254.299 c 5.735,-0.384 11.788,-0.623 18.2,-0.676 5.574,-0.038 11.392,0.125 17.468,0.51 l -5.408,5.658 c -7.693,-0.209 -14.878,-0.176 -21.612,0.058 -4.315,0.09 -8.486,0.275 -12.525,0.547 -1.464,-3.774 -3.066,-7.63 -4.813,-11.574 -2.644,-6.199 -5.659,-12.722 -9.109,-19.599 l 2.832,-7.294 c 2.922,5.339 5.539,10.536 7.869,15.598 2.665,5.832 5.018,11.416 7.098,16.772" style="fill:#00adef;fill-opacity:1;fill-rule:evenodd;stroke:none" id="path3669"/>
        <path d="m 413.045,198.979 c 4.827,10.234 8.765,20.208 11.924,29.815 1.01,2.859 1.907,5.866 2.694,8.978 0.033,0.103 0.068,0.206 0.101,0.309 0.108,-0.012 0.217,-0.024 0.325,-0.04 3.149,-0.604 6.255,-1.067 9.271,-1.363 10.394,-1.255 21.497,-1.92 33.252,-1.833 0.321,-0.01 0.64,-0.015 0.96,-0.022 L 469,237.514 c -10.802,0.706 -20.673,1.644 -29.736,2.781 -5.001,0.706 -9.759,1.436 -14.295,2.184 -1.246,-4.426 -2.606,-9.043 -4.083,-13.876 -2.766,-8.542 -6.034,-17.711 -9.892,-27.601 z m 10.879,-10.744 c 1.806,4.471 3.464,8.864 4.982,13.181 2.017,5.739 3.804,11.379 5.383,16.9 0.557,1.839 1.089,3.705 1.585,5.58 0.083,0.348 0.169,0.693 0.254,1.038 0.347,-0.071 0.696,-0.137 1.047,-0.212 1.911,-0.342 3.822,-0.653 5.723,-0.927 5.67,-0.91 11.539,-1.686 17.59,-2.289 6.656,-0.665 13.596,-1.131 20.815,-1.366 0.151,0.006 0.241,0.045 0.258,0.107 0.005,0.037 -0.066,0.098 -0.186,0.151 -0.16,0.08 -0.348,0.144 -0.521,0.185 -1.136,0.212 -2.189,0.361 -3.132,0.444 -10.085,1.371 -19.491,2.937 -28.265,4.664 -5.633,1.13 -10.924,2.235 -15.917,3.312 -1.143,-4.979 -2.387,-10.241 -3.748,-15.823 -1.9,-7.645 -4.119,-15.679 -6.694,-24.126 z" style="fill:#00adef;fill-opacity:1;fill-rule:evenodd;stroke:none" id="path3671"/>
        <path d="m 381.442,230.179 c 1.539,-0.684 3.108,-1.364 4.705,-2.043 5.135,-2.165 10.574,-4.24 16.333,-6.207 l -2.832,7.294 c -7.184,2.753 -13.812,5.53 -19.946,8.325 -3.755,1.649 -7.362,3.327 -10.827,5.036 z" style="fill:#00adef;fill-opacity:1;fill-rule:evenodd;stroke:none" id="path3673"/>
        <path d="m 422.241,189.899 c -0.898,-1.608 -1.824,-3.232 -2.78,-4.867 -3.321,-5.865 -7.049,-12.008 -11.247,-18.456 l 1.997,-7.568 c 3.501,4.977 6.684,9.854 9.565,14.622 2.464,4.101 4.737,8.081 6.841,11.948 z" style="fill:#00adef;fill-opacity:1;fill-rule:evenodd;stroke:none" id="path3675"/>
        <path d="m 435.611,176.7 c -0.251,0.072 -0.504,0.143 -0.753,0.21 -1.733,-4.254 -3.599,-8.693 -5.611,-13.329 -3.767,-8.319 -8.124,-17.225 -13.173,-26.8 l 0.949,-3.598 c 0.165,0.274 0.327,0.549 0.488,0.824 6.218,9.978 11.452,19.791 15.817,29.31 1.321,2.725 2.551,5.617 3.684,8.618 0.043,0.099 0.09,0.195 0.134,0.294 0.106,-0.023 0.208,-0.05 0.317,-0.076 1.308,-0.403 2.611,-0.786 3.906,-1.139 z m 18.371,-18.136 c -4.237,1.374 -8.271,2.705 -12.114,3.998 -1.692,-4.819 -3.517,-9.909 -5.495,-15.302 -3.117,-8.383 -6.695,-17.22 -10.798,-26.533 -0.422,-0.849 -0.846,-1.821 -1.26,-2.905 -0.056,-0.171 -0.095,-0.363 -0.115,-0.538 -0.014,-0.134 -0.002,-0.224 0.034,-0.236 0.062,-0.024 0.139,0.035 0.226,0.161 3.572,6.277 6.802,12.437 9.714,18.458 2.645,5.477 5.054,10.882 7.24,16.193 0.762,1.766 1.496,3.556 2.202,5.367 0.122,0.336 0.244,0.669 0.366,1.002 0.337,-0.11 0.676,-0.216 1.018,-0.329 1.859,-0.554 3.726,-1.074 5.586,-1.561 2.526,-0.701 5.097,-1.383 7.71,-2.037 z" style="fill:#00adef;fill-opacity:1;fill-rule:evenodd;stroke:none" id="path3677"/>
        <path d="m 379.076,176.407 c 4.83,-3.111 10.016,-6.25 15.6,-9.4 4.86,-2.725 10.03,-5.399 15.535,-7.999 l -1.997,7.568 c -6.832,3.538 -13.106,7.04 -18.888,10.507 -3.731,2.163 -7.291,4.345 -10.696,6.535 -3.106,-2.595 -6.374,-5.197 -9.811,-7.802 -5.31,-4.146 -11.107,-8.395 -17.451,-12.746 l -1.055,-7.757 c 5.143,3.261 9.948,6.545 14.435,9.849 5.157,3.815 9.917,7.565 14.328,11.245" style="fill:#00adef;fill-opacity:1;fill-rule:evenodd;stroke:none" id="path3679"/>
        <path d="m 380.26,157.223 c 0.088,-0.067 0.175,-0.129 0.262,-0.193 2.467,-2.052 4.96,-3.96 7.457,-5.678 8.491,-6.129 17.886,-12.082 28.216,-17.69 0.276,-0.161 0.553,-0.319 0.831,-0.479 l -0.95,3.598 c -9.114,5.838 -17.299,11.438 -24.682,16.814 -4.034,3.042 -7.848,5.979 -11.455,8.827 -3.231,-3.268 -6.652,-6.656 -10.285,-10.169 -6.666,-6.242 -14.098,-12.806 -22.427,-19.719 l -0.499,-3.692 c 0.254,0.194 0.509,0.387 0.763,0.581 9.565,6.838 18.156,13.898 25.829,21.023 2.267,2.014 4.506,4.215 6.701,6.552 0.078,0.075 0.161,0.149 0.239,0.225 m 0.959,-15.555 c 0.268,-0.228 0.541,-0.456 0.815,-0.689 1.506,-1.228 3.027,-2.42 4.561,-3.581 4.521,-3.543 9.281,-7.054 14.287,-10.511 5.503,-3.802 11.352,-7.569 17.555,-11.267 0.139,-0.066 0.236,-0.077 0.278,-0.025 0.024,0.021 -0.01,0.111 -0.088,0.219 -0.102,0.146 -0.233,0.293 -0.365,0.412 -0.894,0.734 -1.743,1.373 -2.53,1.904 -8.164,6.076 -15.636,11.996 -22.48,17.754 -4.383,3.716 -8.481,7.241 -12.33,10.595 -3.406,-3.801 -7.04,-7.805 -10.933,-12.034 -6.087,-6.549 -12.773,-13.343 -20.129,-20.379 -0.714,-0.624 -1.478,-1.36 -2.274,-2.202 -0.116,-0.133 -0.229,-0.296 -0.314,-0.454 -0.065,-0.117 -0.087,-0.205 -0.06,-0.228 0.051,-0.046 0.145,-0.021 0.273,0.06 5.703,4.434 11.042,8.888 16.036,13.337 4.544,4.049 8.835,8.118 12.888,12.191 1.377,1.339 2.743,2.712 4.087,4.116 0.241,0.26 0.483,0.521 0.723,0.782" style="fill:#00adef;fill-opacity:1;fill-rule:evenodd;stroke:none" id="path3681"/>
        <path d="m 328.207,183.302 c 3.272,-4.726 6.864,-9.606 10.819,-14.652 3.448,-4.379 7.201,-8.829 11.287,-13.337 l 1.055,7.757 c -4.959,5.881 -9.416,11.521 -13.432,16.93 -2.618,3.428 -5.074,6.807 -7.377,10.136 -3.867,-1.21 -7.879,-2.362 -12.051,-3.453 -6.494,-1.799 -13.477,-3.51 -21.004,-5.1 l -3.938,-6.761 c 5.997,1.039 11.692,2.238 17.103,3.574 6.222,1.551 12.056,3.195 17.538,4.906" style="fill:#00adef;fill-opacity:1;fill-rule:evenodd;stroke:none" id="path3683"/>
        <path d="m 282.211,152.253 c 11.01,2.603 21.262,5.745 30.746,9.269 2.865,0.991 5.775,2.166 8.697,3.487 0.103,0.037 0.204,0.077 0.306,0.114 0.059,-0.093 0.115,-0.184 0.171,-0.279 1.492,-2.839 3.064,-5.555 4.713,-8.097 5.501,-8.911 11.903,-18.006 19.3,-27.14 0.194,-0.256 0.39,-0.51 0.584,-0.765 l 0.499,3.69 c -6.185,8.885 -11.605,17.187 -16.367,24.98 -2.564,4.352 -4.963,8.528 -7.207,12.537 -4.235,-1.781 -8.693,-3.6 -13.392,-5.459 -8.402,-3.163 -17.612,-6.324 -27.746,-9.473 z m -1.615,-15.204 c 4.621,1.372 9.09,2.82 13.409,4.321 5.746,2.003 11.267,4.12 16.571,6.33 1.786,0.711 3.573,1.457 5.351,2.238 0.323,0.152 0.647,0.301 0.969,0.453 0.163,-0.316 0.325,-0.634 0.488,-0.953 0.92,-1.709 1.873,-3.394 2.843,-5.054 2.821,-5.002 5.876,-10.069 9.175,-15.179 3.633,-5.618 7.594,-11.334 11.909,-17.126 0.104,-0.112 0.186,-0.163 0.247,-0.133 0.032,0.017 0.035,0.11 0.005,0.241 -0.042,0.172 -0.106,0.359 -0.182,0.519 -0.545,1.021 -1.084,1.937 -1.608,2.728 -5.217,8.735 -9.854,17.067 -13.976,25.004 -2.625,5.109 -5.064,9.936 -7.336,14.508 -4.604,-2.206 -9.493,-4.518 -14.704,-6.931 -7.163,-3.282 -14.83,-6.559 -23.037,-9.81 z" style="fill:#00adef;fill-opacity:1;fill-rule:evenodd;stroke:none" id="path3685"/>
        <path d="m 286.897,196.415 c 0.429,-1.632 0.875,-3.282 1.341,-4.954 1.509,-5.365 3.274,-10.907 5.328,-16.639 l 3.938,6.761 c -2.328,7.333 -4.286,14.246 -5.926,20.786 -1.054,3.96 -1.99,7.829 -2.814,11.603 z" style="fill:#00adef;fill-opacity:1;fill-rule:evenodd;stroke:none" id="path3687"/>
        <path d="m 280.845,139.401 c -1.816,-0.3 -3.663,-0.588 -5.537,-0.86 -6.656,-1.061 -13.782,-1.975 -21.443,-2.716 l -4.671,-6.279 c 6.076,0.366 11.87,0.92 17.396,1.641 4.74,0.626 9.27,1.334 13.606,2.1 z" style="fill:#00adef;fill-opacity:1;fill-rule:evenodd;stroke:none" id="path3689"/>
        <path d="m 278.864,120.72 c -0.105,0.239 -0.204,0.479 -0.304,0.719 -4.408,-1.297 -9.043,-2.607 -13.922,-3.925 -8.852,-2.242 -18.533,-4.388 -29.165,-6.411 l -2.223,-2.989 c 0.317,0.047 0.633,0.091 0.949,0.14 11.676,1.354 22.615,3.381 32.776,5.906 2.956,0.664 5.982,1.506 9.033,2.491 0.106,0.03 0.212,0.055 0.317,0.082 0.046,-0.099 0.092,-0.195 0.138,-0.295 0.497,-1.278 1.012,-2.535 1.544,-3.766 z m -2.729,-25.671 c -1.567,4.168 -3.039,8.151 -4.427,11.964 -4.821,-1.684 -9.937,-3.428 -15.391,-5.245 -8.494,-2.79 -17.633,-5.501 -27.474,-8.102 -0.926,-0.2 -1.952,-0.476 -3.057,-0.825 -0.166,-0.061 -0.342,-0.15 -0.493,-0.245 -0.112,-0.075 -0.175,-0.14 -0.163,-0.173 0.021,-0.066 0.118,-0.089 0.269,-0.079 7.134,1.122 13.963,2.438 20.487,3.917 5.933,1.343 11.66,2.828 17.176,4.432 1.854,0.508 3.711,1.049 5.566,1.625 0.34,0.114 0.679,0.226 1.015,0.338 0.123,-0.334 0.251,-0.662 0.377,-0.998 0.725,-1.802 1.48,-3.583 2.259,-5.34 1.025,-2.417 2.097,-4.848 3.218,-7.299 z" style="fill:#00adef;fill-opacity:1;fill-rule:evenodd;stroke:none" id="path3691"/>
        <path d="m 243.383,164.736 c 0.581,-5.715 1.362,-11.726 2.381,-18.055 0.898,-5.5 2.031,-11.21 3.43,-17.135 l 4.671,6.279 c -1.493,7.548 -2.663,14.641 -3.561,21.318 -0.637,4.267 -1.152,8.41 -1.558,12.437 -3.968,0.814 -8.039,1.746 -12.218,2.807 -6.554,1.565 -13.49,3.449 -20.849,5.698 l -6.719,-4.014 c 5.753,-1.985 11.319,-3.694 16.701,-5.143 6.195,-1.656 12.094,-3.037 17.722,-4.192" style="fill:#00adef;fill-opacity:1;fill-rule:evenodd;stroke:none" id="path3693"/>
        <path d="m 229.122,151.849 c 0.005,-0.107 0.01,-0.216 0.015,-0.327 -0.066,-3.209 -0.003,-6.343 0.209,-9.367 0.503,-10.458 1.707,-21.517 3.763,-33.09 0.047,-0.314 0.092,-0.633 0.141,-0.951 l 2.223,2.989 c -1.118,10.765 -1.846,20.655 -2.243,29.778 -0.138,5.051 -0.218,9.866 -0.242,14.462 -4.571,0.487 -9.353,1.052 -14.363,1.699 -9.037,1.32 -18.802,3.042 -29.4,5.242 l -3.198,-1.911 c 0.312,-0.079 0.622,-0.158 0.931,-0.237 11.308,-3.214 22.188,-5.528 32.541,-7.086 2.987,-0.518 6.103,-0.898 9.3,-1.152 0.107,-0.018 0.217,-0.032 0.323,-0.049 M 217.561,141.4 c -0.01,-0.351 -0.022,-0.706 -0.033,-1.067 -0.019,-1.941 -0.004,-3.876 0.044,-5.797 0.052,-5.745 0.273,-11.658 0.69,-17.723 0.46,-6.675 1.161,-13.593 2.138,-20.749 0.036,-0.149 0.085,-0.233 0.153,-0.236 0.034,-0.004 0.081,0.077 0.118,0.206 0.048,0.172 0.082,0.366 0.092,0.543 0.021,1.158 -0.013,2.221 -0.085,3.162 -0.342,10.175 -0.369,19.709 -0.138,28.647 0.172,5.743 0.374,11.147 0.597,16.248 -5.096,0.293 -10.493,0.638 -16.224,1.046 -8.918,0.671 -18.4,1.665 -28.484,3.028 -0.933,0.172 -1.987,0.31 -3.141,0.408 -0.177,0.006 -0.374,-0.006 -0.549,-0.041 -0.131,-0.02 -0.216,-0.057 -0.218,-0.095 -0.004,-0.068 0.076,-0.124 0.218,-0.174 7.022,-1.695 13.836,-3.091 20.427,-4.224 5.996,-1.028 11.856,-1.844 17.564,-2.476 1.907,-0.24 3.832,-0.454 5.766,-0.628 0.356,-0.024 0.712,-0.049 1.065,-0.078" style="fill:#00adef;fill-opacity:1;fill-rule:evenodd;stroke:none" id="path3695"/>
        <path d="m 217.058,208.806 c -1.651,-5.504 -3.23,-11.354 -4.711,-17.594 -1.274,-5.424 -2.41,-11.134 -3.387,-17.141 l 6.719,4.014 c 1.509,7.545 3.139,14.541 4.866,21.057 1.046,4.185 2.157,8.211 3.321,12.087 -3.354,2.267 -6.758,4.687 -10.213,7.268 -5.456,3.956 -11.144,8.348 -17.08,13.243 l -7.745,-1.137 c 4.554,-4.038 9.042,-7.746 13.461,-11.144 5.092,-3.896 10.012,-7.436 14.769,-10.653" style="fill:#00adef;fill-opacity:1;fill-rule:evenodd;stroke:none" id="path3697"/>
        <path d="m 164.105,225.409 c 8.9,-6.985 17.75,-13.043 26.415,-18.26 2.563,-1.622 5.295,-3.162 8.152,-4.624 0.094,-0.058 0.187,-0.113 0.281,-0.17 -0.039,-0.102 -0.075,-0.203 -0.112,-0.304 -1.292,-2.938 -2.431,-5.86 -3.393,-8.738 -3.536,-9.85 -6.656,-20.531 -9.186,-32.01 -0.079,-0.309 -0.156,-0.619 -0.235,-0.93 l 3.198,1.907 c 3.088,10.376 6.201,19.79 9.325,28.372 1.803,4.718 3.574,9.199 5.309,13.452 -4.036,2.2 -8.236,4.552 -12.618,7.069 -7.712,4.596 -15.925,9.824 -24.707,15.784 z m -12.893,-8.216 c 3.955,-2.755 7.872,-5.349 11.74,-7.792 5.145,-3.239 10.247,-6.241 15.279,-9.008 1.671,-0.951 3.368,-1.883 5.087,-2.788 0.321,-0.156 0.638,-0.316 0.955,-0.475 -0.145,-0.321 -0.291,-0.646 -0.438,-0.972 -0.762,-1.788 -1.488,-3.583 -2.179,-5.377 -2.152,-5.326 -4.208,-10.874 -6.147,-16.64 -2.128,-6.342 -4.128,-13.001 -5.963,-19.987 -0.025,-0.151 -0.012,-0.247 0.048,-0.274 0.033,-0.017 0.108,0.039 0.189,0.144 0.111,0.14 0.218,0.305 0.295,0.466 0.462,1.066 0.838,2.057 1.131,2.958 3.578,9.526 7.2,18.348 10.834,26.516 2.359,5.241 4.613,10.155 6.771,14.781 -4.598,2.224 -9.45,4.606 -14.59,7.177 -7.031,3.554 -14.371,7.503 -22.034,11.893 z" style="fill:#00adef;fill-opacity:1;fill-rule:evenodd;stroke:none" id="path3699"/>
        <path d="m 201.553,249.275 c -1.007,-1.347 -2.02,-2.724 -3.036,-4.129 -3.254,-4.528 -6.487,-9.368 -9.689,-14.543 l 7.743,1.137 c 4.282,6.393 8.467,12.236 12.556,17.59 2.442,3.297 4.881,6.44 7.317,9.439 z" style="fill:#00adef;fill-opacity:1;fill-rule:evenodd;stroke:none" id="path3701"/>
        <path d="m 153.206,218.464 c -1.37,1.233 -2.744,2.496 -4.124,3.795 -4.979,4.543 -10.141,9.544 -15.493,15.068 l -7.82,-0.263 c 4.071,-4.52 8.117,-8.707 12.126,-12.578 3.448,-3.314 6.823,-6.417 10.126,-9.328 z" style="fill:#00adef;fill-opacity:1;fill-rule:evenodd;stroke:none" id="path3703"/>
        <path d="m 137.365,208.364 c 0.123,0.232 0.249,0.461 0.373,0.688 -3.765,2.636 -7.675,5.442 -11.749,8.437 -7.271,5.522 -14.985,11.752 -23.198,18.806 l -3.72,-0.125 c 0.233,-0.221 0.466,-0.441 0.698,-0.656 8.343,-8.285 16.746,-15.573 25.054,-21.945 2.364,-1.895 4.907,-3.736 7.581,-5.506 0.087,-0.067 0.173,-0.131 0.261,-0.2 -0.049,-0.095 -0.097,-0.193 -0.145,-0.289 -0.688,-1.186 -1.349,-2.373 -1.979,-3.557 z m -21.773,-13.872 c 2.283,3.824 4.478,7.46 6.594,10.919 -4.32,2.723 -8.876,5.636 -13.695,8.765 -7.478,4.9 -15.297,10.357 -23.464,16.428 -0.735,0.6 -1.588,1.232 -2.553,1.875 -0.151,0.091 -0.329,0.176 -0.498,0.234 -0.127,0.042 -0.219,0.052 -0.238,0.017 -0.036,-0.053 0.005,-0.141 0.107,-0.255 5.326,-4.879 10.613,-9.397 15.835,-13.576 4.751,-3.8 9.484,-7.349 14.174,-10.663 1.555,-1.135 3.136,-2.252 4.742,-3.342 0.3,-0.194 0.598,-0.386 0.895,-0.581 -0.18,-0.304 -0.359,-0.611 -0.544,-0.92 -0.956,-1.688 -1.879,-3.389 -2.767,-5.096 -1.248,-2.307 -2.484,-4.663 -3.699,-7.064 z" style="fill:#00adef;fill-opacity:1;fill-rule:evenodd;stroke:none" id="path3705"/>
        <path d="m 149.657,263.55 c -4.108,-4.019 -8.319,-8.377 -12.633,-13.117 -3.741,-4.136 -7.497,-8.58 -11.255,-13.369 l 7.82,0.263 c 4.97,5.874 9.783,11.211 14.446,16.076 2.94,3.159 5.858,6.146 8.752,8.973 -1.839,3.608 -3.647,7.374 -5.422,11.302 -2.861,6.104 -5.717,12.699 -8.546,19.854 l -7.325,2.749 c 2.032,-5.737 4.167,-11.15 6.39,-16.262 2.57,-5.873 5.165,-11.35 7.773,-16.469" style="fill:#00adef;fill-opacity:1;fill-rule:evenodd;stroke:none" id="path3707"/>
        <path d="m 130.69,266.665 c -0.083,-0.073 -0.163,-0.145 -0.247,-0.215 -2.549,-1.947 -4.962,-3.956 -7.194,-6.006 -7.863,-6.912 -15.759,-14.749 -23.525,-23.573 -0.218,-0.233 -0.435,-0.465 -0.653,-0.701 l 3.72,0.125 c 7.722,7.586 15,14.318 21.885,20.321 3.862,3.256 7.576,6.317 11.155,9.202 -2.468,3.88 -5.007,7.97 -7.625,12.291 -4.604,7.887 -9.345,16.595 -14.235,26.253 l -3.487,1.309 c 0.133,-0.293 0.263,-0.583 0.396,-0.875 4.537,-10.845 9.511,-20.792 14.749,-29.858 1.458,-2.66 3.103,-5.332 4.897,-7.993 0.054,-0.093 0.108,-0.187 0.164,-0.28 m -15.377,2.525 c -0.282,-0.212 -0.567,-0.425 -0.855,-0.64 -1.53,-1.196 -3.033,-2.414 -4.506,-3.651 -4.458,-3.62 -8.943,-7.479 -13.427,-11.588 -4.929,-4.523 -9.903,-9.384 -14.888,-14.611 -0.094,-0.12 -0.13,-0.212 -0.089,-0.264 0.019,-0.029 0.112,-0.017 0.234,0.035 0.165,0.069 0.339,0.163 0.484,0.265 0.916,0.708 1.727,1.395 2.419,2.042 7.741,6.608 15.177,12.574 22.309,17.966 4.598,3.445 8.948,6.657 13.076,9.663 -2.948,4.17 -6.045,8.604 -9.299,13.337 -5.032,7.393 -10.169,15.425 -15.389,24.16 -0.449,0.835 -0.999,1.744 -1.642,2.708 -0.104,0.144 -0.238,0.289 -0.373,0.407 -0.097,0.088 -0.181,0.13 -0.209,0.108 -0.056,-0.038 -0.053,-0.135 -0.003,-0.279 3.055,-6.545 6.21,-12.742 9.436,-18.603 2.933,-5.329 5.949,-10.419 9.015,-15.275 1.001,-1.643 2.035,-3.278 3.103,-4.899 0.202,-0.297 0.405,-0.59 0.604,-0.881" style="fill:#00adef;fill-opacity:1;fill-rule:evenodd;stroke:none" id="path3709"/>
        <path d="m 167.698,311.607 c -5.332,-2.14 -10.89,-4.554 -16.69,-7.284 -5.038,-2.386 -10.209,-5.058 -15.514,-8.042 l 7.325,-2.749 c 6.84,3.524 13.33,6.614 19.499,9.323 3.922,1.791 7.762,3.436 11.52,4.942 -0.319,4.035 -0.548,8.205 -0.684,12.515 -0.311,6.733 -0.421,13.919 -0.3,21.611 l -5.715,5.346 c -0.318,-6.079 -0.418,-11.897 -0.321,-17.471 0.128,-6.411 0.432,-12.462 0.88,-18.191" style="fill:#00adef;fill-opacity:1;fill-rule:evenodd;stroke:none" id="path3711"/>
        <path d="m 147.665,363.36 c 0.088,-11.314 0.869,-22.009 2.192,-32.036 0.331,-3.014 0.827,-6.114 1.467,-9.256 0.013,-0.109 0.029,-0.218 0.043,-0.323 -0.104,-0.037 -0.205,-0.071 -0.31,-0.106 -3.1,-0.823 -6.098,-1.753 -8.944,-2.795 -9.909,-3.378 -20.203,-7.594 -30.755,-12.777 -0.292,-0.13 -0.582,-0.262 -0.874,-0.396 l 3.487,-1.309 c 10.037,4.054 19.336,7.49 27.994,10.398 4.815,1.532 9.417,2.942 13.829,4.236 -0.797,4.526 -1.578,9.278 -2.343,14.27 -1.214,8.898 -2.248,18.58 -3.063,29.161 z m -14.463,4.956 c 0.311,-4.808 0.725,-9.487 1.229,-14.033 0.673,-6.047 1.509,-11.902 2.482,-17.562 0.298,-1.9 0.627,-3.808 0.993,-5.717 0.074,-0.349 0.148,-0.698 0.222,-1.043 -0.343,-0.087 -0.687,-0.175 -1.035,-0.266 -1.871,-0.517 -3.725,-1.07 -5.561,-1.647 -5.504,-1.639 -11.123,-3.488 -16.842,-5.569 -6.283,-2.289 -12.737,-4.879 -19.344,-7.799 -0.132,-0.074 -0.2,-0.145 -0.183,-0.21 0.006,-0.034 0.097,-0.059 0.231,-0.056 0.178,0 0.375,0.022 0.547,0.06 1.119,0.303 2.129,0.627 3.017,0.959 9.68,3.143 18.833,5.81 27.487,8.063 5.568,1.424 10.815,2.724 15.779,3.922 -1.13,4.979 -2.292,10.261 -3.489,15.88 -1.604,7.714 -3.093,15.915 -4.435,24.643 z" style="fill:#00adef;fill-opacity:1;fill-rule:evenodd;stroke:none" id="path3713"/>
        <path d="m 189.673,348.963 c -1.683,-0.052 -3.391,-0.12 -5.125,-0.202 -5.567,-0.279 -11.365,-0.767 -17.409,-1.492 l 5.715,-5.344 c 7.669,0.638 14.846,1.008 21.584,1.152 4.099,0.145 8.077,0.196 11.939,0.162 z" style="fill:#00adef;fill-opacity:1;fill-rule:evenodd;stroke:none" id="path3715"/>
        <path d="m 135.437,367.552 c 0.111,1.838 0.241,3.7 0.396,5.588 0.445,6.726 1.14,13.878 2.122,21.511 l -5.08,5.951 c -0.998,-6.006 -1.748,-11.777 -2.274,-17.325 -0.441,-4.76 -0.763,-9.334 -0.98,-13.733 z" style="fill:#00adef;fill-opacity:1;fill-rule:evenodd;stroke:none" id="path3717"/>
        <path d="m 117.666,373.642 c 0.258,0.045 0.513,0.09 0.768,0.134 -0.283,4.588 -0.529,9.396 -0.728,14.446 -0.215,9.13 -0.153,19.044 0.239,29.862 l -2.417,2.832 c -0.027,-0.319 -0.052,-0.638 -0.078,-0.957 -1.275,-11.687 -1.733,-22.799 -1.533,-33.268 -0.01,-3.03 0.136,-6.166 0.42,-9.362 10e-4,-0.108 0.003,-0.216 0.006,-0.327 -0.106,-0.021 -0.212,-0.045 -0.318,-0.068 -1.356,-0.202 -2.694,-0.424 -4.014,-0.668 z m -24.423,8.371 c 4.416,0.599 8.626,1.149 12.651,1.654 -0.566,5.073 -1.13,10.452 -1.688,16.17 -0.831,8.903 -1.439,18.418 -1.784,28.589 0.01,0.948 -0.028,2.009 -0.126,3.164 -0.022,0.175 -0.071,0.367 -0.13,0.535 -0.044,0.126 -0.095,0.202 -0.131,0.198 -0.067,-0.006 -0.111,-0.094 -0.137,-0.245 -0.494,-7.204 -0.73,-14.154 -0.74,-20.843 -0.01,-6.085 0.166,-11.996 0.502,-17.732 0.08,-1.921 0.193,-3.853 0.344,-5.79 0.034,-0.356 0.07,-0.711 0.103,-1.061 -0.351,-0.05 -0.703,-0.1 -1.058,-0.149 -1.918,-0.304 -3.822,-0.645 -5.71,-1.014 -2.582,-0.463 -5.192,-0.966 -7.83,-1.51 z" style="fill:#00adef;fill-opacity:1;fill-rule:evenodd;stroke:none" id="path3719"/>
        <path d="m 168.476,398.436 c -5.705,0.707 -11.736,1.284 -18.135,1.699 -5.563,0.346 -11.382,0.51 -17.466,0.467 l 5.08,-5.951 c 7.691,-0.224 14.865,-0.659 21.578,-1.273 4.299,-0.328 8.453,-0.747 12.471,-1.246 1.675,3.686 3.489,7.448 5.454,11.286 2.987,6.04 6.365,12.384 10.193,19.058 l -2.416,7.442 c -3.217,-5.165 -6.121,-10.21 -8.732,-15.135 -2.99,-5.672 -5.651,-11.117 -8.027,-16.347" style="fill:#00adef;fill-opacity:1;fill-rule:evenodd;stroke:none" id="path3721"/>
        <path d="m 159.084,415.208 c -0.108,0.02 -0.214,0.038 -0.322,0.058 -3.112,0.779 -6.185,1.415 -9.18,1.881 -10.308,1.837 -21.356,3.124 -33.098,3.695 -0.317,0.025 -0.637,0.049 -0.956,0.073 l 2.417,-2.832 c 10.746,-1.306 20.549,-2.797 29.533,-4.438 4.954,-0.991 9.664,-1.984 14.151,-2.984 1.494,4.348 3.108,8.883 4.853,13.625 3.296,8.517 7.149,17.652 11.651,27.497 l -1.151,3.542 c -0.145,-0.286 -0.292,-0.57 -0.437,-0.855 -5.65,-10.309 -10.326,-20.401 -14.149,-30.148 -1.168,-2.797 -2.231,-5.749 -3.194,-8.809 -0.04,-0.102 -0.079,-0.204 -0.118,-0.305 m -7.614,13.596 c -0.341,0.089 -0.686,0.178 -1.032,0.269 -1.889,0.45 -3.779,0.866 -5.664,1.247 -5.611,1.229 -11.424,2.328 -17.433,3.272 -6.608,1.036 -13.51,1.892 -20.705,2.533 -0.153,-10e-4 -0.245,-0.031 -0.262,-0.097 -0.01,-0.033 0.058,-0.097 0.175,-0.161 0.156,-0.085 0.338,-0.162 0.509,-0.212 1.125,-0.276 2.167,-0.481 3.104,-0.619 9.992,-1.932 19.293,-4.026 27.956,-6.239 5.563,-1.448 10.785,-2.847 15.709,-4.199 1.419,4.904 2.955,10.088 4.63,15.585 2.639,8.543 5.717,17.567 9.291,27.096 0.373,0.871 0.743,1.867 1.094,2.971 0.048,0.171 0.078,0.366 0.087,0.543 0.006,0.134 -0.012,0.225 -0.047,0.234 -0.065,0.02 -0.137,-0.044 -0.22,-0.173 -3.214,-6.468 -6.092,-12.799 -8.66,-18.975 -2.338,-5.617 -4.437,-11.148 -6.324,-16.573 -0.659,-1.806 -1.294,-3.635 -1.896,-5.48 -0.103,-0.343 -0.207,-0.684 -0.312,-1.022" style="fill:#00adef;fill-opacity:1;fill-rule:evenodd;stroke:none" id="path3723"/>
        <path d="m 217.296,414.294 c -4.998,2.835 -10.351,5.676 -16.102,8.508 -5.007,2.45 -10.32,4.828 -15.959,7.116 l 2.416,-7.442 c 7.021,-3.151 13.482,-6.298 19.449,-9.431 3.846,-1.95 7.524,-3.927 11.044,-5.927 2.958,2.765 6.074,5.546 9.359,8.34 5.071,4.439 10.619,9.006 16.709,13.707 l 0.617,7.802 c -4.951,-3.541 -9.564,-7.092 -13.859,-10.642 -4.933,-4.097 -9.475,-8.108 -13.674,-12.031" style="fill:#00adef;fill-opacity:1;fill-rule:evenodd;stroke:none" id="path3725"/>
        <path d="m 245.268,462.226 c -8.791,-7.124 -16.666,-14.403 -23.682,-21.689 -2.149,-2.139 -4.261,-4.459 -6.321,-6.918 -0.076,-0.08 -0.151,-0.158 -0.227,-0.237 -0.091,0.06 -0.184,0.118 -0.275,0.178 -2.575,1.911 -5.171,3.675 -7.76,5.251 -8.822,5.641 -18.535,11.058 -29.165,16.079 -0.284,0.146 -0.57,0.29 -0.856,0.435 l 1.149,-3.542 c 9.43,-5.32 17.916,-10.448 25.586,-15.404 4.199,-2.809 8.17,-5.53 11.932,-8.17 3.043,3.444 6.272,7.018 9.699,10.729 6.199,6.497 13.123,13.341 20.887,20.576 z m -5.143,14.398 c -3.567,-3.243 -6.967,-6.484 -10.205,-9.712 -4.31,-4.295 -8.365,-8.601 -12.184,-12.892 -1.301,-1.416 -2.586,-2.863 -3.85,-4.338 -0.227,-0.276 -0.453,-0.552 -0.677,-0.825 -0.284,0.213 -0.566,0.428 -0.854,0.643 -1.57,1.142 -3.159,2.247 -4.753,3.321 -4.715,3.283 -9.664,6.522 -14.855,9.696 -5.709,3.485 -11.758,6.917 -18.159,10.261 -0.14,0.057 -0.238,0.066 -0.279,0.013 -0.023,-0.03 0.015,-0.113 0.1,-0.216 0.111,-0.14 0.251,-0.281 0.388,-0.391 0.933,-0.686 1.818,-1.276 2.633,-1.76 8.49,-5.609 16.282,-11.103 23.44,-16.464 4.583,-3.466 8.873,-6.757 12.904,-9.891 3.189,3.988 6.593,8.189 10.243,12.628 5.029,6.064 10.513,12.342 16.498,18.834 z" style="fill:#00adef;fill-opacity:1;fill-rule:evenodd;stroke:none" id="path3727"/>
        <path d="m 260.204,420.405 c -1.092,1.283 -2.211,2.576 -3.354,3.881 -3.69,4.178 -7.687,8.408 -12.021,12.681 l -0.615,-7.801 c 5.279,-5.597 10.044,-10.978 14.357,-16.156 2.67,-3.114 5.191,-6.193 7.572,-9.235 z" style="fill:#00adef;fill-opacity:1;fill-rule:evenodd;stroke:none" id="path3729"/>
        <path d="m 240.92,474.397 c 1.508,1.061 3.045,2.12 4.617,3.178 5.537,3.843 11.561,7.76 18.141,11.75 l 1.484,7.684 c -5.314,-2.965 -10.296,-5.978 -14.962,-9.025 -3.998,-2.623 -7.774,-5.223 -11.347,-7.797 z" style="fill:#00adef;fill-opacity:1;fill-rule:evenodd;stroke:none" id="path3731"/>
        <path d="m 234.601,492.089 c 0.197,-0.173 0.39,-0.344 0.586,-0.517 3.409,3.083 7.017,6.272 10.839,9.577 7.005,5.86 14.795,11.993 23.496,18.431 l 0.707,3.655 c -0.266,-0.177 -0.533,-0.357 -0.795,-0.534 -9.933,-6.29 -18.907,-12.862 -26.967,-19.544 -2.377,-1.882 -4.735,-3.952 -7.058,-6.165 -0.083,-0.07 -0.167,-0.139 -0.251,-0.209 -0.085,0.069 -0.168,0.137 -0.252,0.206 -1.004,0.934 -2.012,1.843 -3.027,2.721 z m -8.682,24.313 c 3.221,-3.076 6.276,-6.027 9.18,-8.858 3.615,3.605 7.468,7.399 11.59,11.402 6.445,6.199 13.502,12.609 21.24,19.22 0.749,0.582 1.553,1.274 2.397,2.07 0.122,0.126 0.242,0.284 0.335,0.436 0.072,0.113 0.101,0.201 0.072,0.226 -0.044,0.049 -0.142,0.027 -0.275,-0.047 -5.941,-4.105 -11.521,-8.254 -16.759,-12.416 -4.762,-3.787 -9.275,-7.611 -13.549,-11.447 -1.451,-1.261 -2.89,-2.555 -4.312,-3.88 -0.257,-0.249 -0.51,-0.497 -0.765,-0.743 -0.257,0.244 -0.517,0.488 -0.776,0.735 -1.434,1.309 -2.888,2.586 -4.352,3.832 -1.972,1.73 -3.993,3.458 -6.064,5.179 z" style="fill:#00adef;fill-opacity:1;fill-rule:evenodd;stroke:none" id="path3733"/>
        <path d="m 285.665,467.825 c -3.002,4.899 -6.312,9.974 -9.977,15.236 -3.197,4.566 -6.696,9.216 -10.526,13.948 l -1.484,-7.684 c 4.62,-6.153 8.752,-12.033 12.457,-17.662 2.424,-3.567 4.687,-7.077 6.802,-10.53 3.924,0.991 7.999,1.917 12.224,2.773 6.586,1.432 13.65,2.746 21.256,3.914 l 4.312,6.53 c -6.044,-0.704 -11.799,-1.582 -17.277,-2.611 -6.299,-1.199 -12.215,-2.512 -17.787,-3.914" style="fill:#00adef;fill-opacity:1;fill-rule:evenodd;stroke:none" id="path3735"/>
        <path d="m 292.922,485.624 c -0.052,0.095 -0.103,0.19 -0.154,0.287 -1.331,2.919 -2.749,5.718 -4.252,8.351 -4.993,9.203 -10.875,18.645 -17.748,28.179 -0.179,0.266 -0.36,0.53 -0.539,0.794 l -0.708,-3.655 c 5.679,-9.216 10.624,-17.809 14.943,-25.857 2.315,-4.491 4.475,-8.793 6.493,-12.924 4.326,1.543 8.881,3.109 13.678,4.7 8.713,2.733 18.258,5.418 28.76,8.035 l 2.053,3.108 c -0.314,-0.063 -0.629,-0.126 -0.94,-0.19 -11.584,-2.01 -22.39,-4.646 -32.394,-7.735 -2.916,-0.831 -5.886,-1.841 -8.881,-2.996 -0.102,-0.033 -0.206,-0.065 -0.311,-0.097 m 5.885,14.429 c -0.145,0.322 -0.29,0.647 -0.435,0.975 -0.823,1.758 -1.68,3.494 -2.556,5.206 -2.537,5.153 -5.301,10.383 -8.31,15.67 -3.312,5.812 -6.944,11.742 -10.93,17.766 -0.096,0.118 -0.178,0.173 -0.239,0.145 -0.033,-0.013 -0.04,-0.106 -0.018,-0.237 0.033,-0.176 0.086,-0.365 0.152,-0.529 0.487,-1.052 0.975,-1.996 1.451,-2.814 4.721,-9.017 8.882,-17.595 12.553,-25.748 2.336,-5.25 4.498,-10.206 6.511,-14.899 4.72,1.948 9.731,3.978 15.071,6.098 8.327,3.262 17.3,6.483 26.979,9.63 0.915,0.251 1.922,0.583 3.005,0.996 0.163,0.07 0.336,0.167 0.479,0.272 0.108,0.078 0.168,0.149 0.152,0.182 -0.024,0.063 -0.12,0.08 -0.271,0.064 -7.061,-1.52 -13.806,-3.218 -20.235,-5.059 -5.85,-1.676 -11.483,-3.482 -16.899,-5.39 -1.824,-0.611 -3.651,-1.255 -5.468,-1.935 -0.333,-0.133 -0.663,-0.263 -0.992,-0.393" style="fill:#00adef;fill-opacity:1;fill-rule:evenodd;stroke:none" id="path3737"/>
        <path d="m 328.505,439.542 c -0.902,5.675 -2.018,11.631 -3.389,17.894 -1.206,5.442 -2.66,11.078 -4.387,16.914 l -4.312,-6.53 c 1.914,-7.453 3.482,-14.467 4.753,-21.085 0.872,-4.223 1.621,-8.332 2.252,-12.331 4.006,-0.588 8.124,-1.291 12.355,-2.117 6.631,-1.197 13.663,-2.686 21.137,-4.518 l 6.482,4.383 c -5.855,1.662 -11.508,3.055 -16.961,4.201 -6.279,1.301 -12.248,2.352 -17.93,3.189" style="fill:#00adef;fill-opacity:1;fill-rule:evenodd;stroke:none" id="path3739"/>
        <path d="m 383.417,447.558 c -11.05,2.431 -21.65,4.049 -31.721,4.99 -3.011,0.348 -6.145,0.554 -9.35,0.63 -0.109,0.01 -0.218,0.021 -0.326,0.03 -0.01,0.109 -0.023,0.217 -0.035,0.325 -0.11,3.206 -0.35,6.335 -0.731,9.343 -1.089,10.413 -2.911,21.386 -5.612,32.827 -0.065,0.313 -0.131,0.626 -0.194,0.94 l -2.053,-3.108 c 1.719,-10.687 3,-20.519 3.91,-29.607 0.42,-5.034 0.768,-9.836 1.052,-14.423 4.588,-0.232 9.396,-0.528 14.435,-0.894 8.943,-0.795 18.611,-1.941 29.109,-3.502 z m 8.052,12.997 c -4.759,0.767 -9.413,1.404 -13.957,1.925 -6.044,0.689 -11.941,1.177 -17.674,1.487 -1.919,0.133 -3.854,0.237 -5.794,0.304 -0.357,0.005 -0.713,0.011 -1.066,0.016 -0.011,0.354 -0.021,0.71 -0.03,1.067 -0.088,1.94 -0.213,3.872 -0.368,5.788 -0.372,5.733 -0.926,11.622 -1.683,17.658 -0.833,6.638 -1.921,13.506 -3.296,20.596 -0.044,0.146 -0.099,0.228 -0.165,0.227 -0.037,0 -0.079,-0.082 -0.107,-0.213 -0.038,-0.174 -0.063,-0.371 -0.063,-0.548 0.046,-1.157 0.136,-2.216 0.264,-3.154 0.909,-10.137 1.471,-19.654 1.744,-28.592 0.149,-5.745 0.25,-11.151 0.313,-16.257 5.106,-0.006 10.514,-0.048 16.259,-0.133 7.875,-0.152 16.204,-0.526 25.009,-1.157 z" style="fill:#00adef;fill-opacity:1;fill-rule:evenodd;stroke:none" id="path3741"/>
        <path d="m 360.035,409.806 c 0.319,1.652 0.634,3.333 0.942,5.041 0.966,5.489 1.781,11.252 2.419,17.305 l -6.482,-4.383 c -1.085,-7.618 -2.32,-14.697 -3.681,-21.298 -0.767,-4.03 -1.603,-7.919 -2.499,-11.678 z" style="fill:#00adef;fill-opacity:1;fill-rule:evenodd;stroke:none" id="path3743"/>
      </g>
    </g>
  </g>
</svg>